<svg xmlns="http://www.w3.org/2000/svg" fill="none" viewBox="0 0 1231 347">
    <g fill="#f0f0eb" clip-path="url(#a)">
        <path d="M307.9 273.5v-49.8c0-2.8 3.8-4 5.2-1.5l25.7 41.7c1.8 3.2 2.6 4.3 6.1 5.2 7.3 1.5 13.1 2 20.7 2 30 0 49-15.1 49-37.6 0-20.4-14.3-29.7-35.9-38.7l-24.4-10.2c-23-9.7-45.2-26-45.2-56.9 0-36.4 30.9-58.6 74.6-58.6 15.7 0 31.5 1.5 47.8 5.5v46.6c0 2.8-3.6 3.9-5.2 1.5L402.1 86c-1.8-3-3.6-4-6.2-4.4q-5.6-.8-12.5-.8c-28.9 0-45 16.3-45 37 0 15.7 9.4 26.8 30.7 35.9l26.8 11c27.1 11.4 49.3 24 49.3 55.4 0 37-29.2 62.7-79 62.7-19.2 0-40-2.9-58.3-9.3M541.3 151c-14.5 0-26.2 9.7-34 24.5v80.2c0 3.2.5 4 2.8 5.8l14.6 11.9c2 1.7.9 5-1.8 5h-61.7a2.8 2.8 0 0 1-1.9-5l14.4-11.9c2.6-1.7 3.2-2.6 3.2-5.8V93.6c0-3-.3-4-2.6-6.1l-12.8-11a2.8 2.8 0 0 1 1-5l44.7-11.7v99.7c11.1-17.2 24-27.4 45.5-27.4 30 0 47.8 19.5 47.8 59.8 0 18.3-.5 43.7-.9 63.8 0 3.2.6 4 3.3 5.8l14.3 12c2 1.6.9 5-1.8 5h-61.8a2.8 2.8 0 0 1-1.8-5l14.3-12c3-2 3.2-2.6 3.2-5.8.3-9 .3-45.8.3-60.4 0-34.7-12.8-44.3-28.2-44.3M713.9 200.9l.2-22.8c0-23-10.5-34.7-30.6-34.7q-4.4 0-6.7.6a6 6 0 0 0-5 3.5l-19.2 29.2a2.8 2.8 0 0 1-5.1-.8l-9.5-34c16.7-7 31.8-9.8 48.7-9.8 40.9 0 56.3 18.3 56.3 50.4 0 23-1.5 47.3-1.5 65.6 0 10.2 4.1 15.8 10.3 15.8a12 12 0 0 0 5.2-1.3c2.4-1.1 4.8 1.3 3.8 3.7-2.9 6.9-9.2 15.3-22.7 15.3-14.6 0-24.2-9.6-25.1-25a49 49 0 0 1-49.2 24.7 38 38 0 0 1-33.9-37.6c.4-26.8 24.5-45.7 59.5-45.7 7.9 0 16.9 1.1 24.5 2.9m-1 39.6c.4-8.1.7-18.6.7-29.1a81 81 0 0 0-15.8-1.8c-22.7 0-37.3 12.9-37.3 31 0 15 10.2 23.3 22.5 23.3 12.2 0 23.9-8 30-23.4M770.4 347a2.8 2.8 0 0 1-1.8-5l14.5-12c2.3-1.7 3-2.6 3-5.8V164.7c0-2.9-.4-3.8-2.4-5.8l-17-18.6a2.8 2.8 0 0 1 2.1-4.7h44.6v25.6a49 49 0 0 1 46-29.1c31.9 0 57.8 25.3 57.8 70.8 0 51.3-32.4 79-65.6 79a48 48 0 0 1-35-13.7v53c0 4.2.6 5 3.8 6.5l23.7 14c2.5 1.4 1.5 5.2-1.4 5.2zM884 205.2c0-33.6-14.6-55.5-36.2-55.5-11.6 0-23.3 6.5-31.2 22.8V253a31 31 0 0 0 27.1 15.1c20.4 0 40.3-18.3 40.3-63M969.1 203.5c.3 44 24 57.7 46.4 57.7a59 59 0 0 0 36.8-13c2.3-1.9 5.5.6 4.4 3.3-5.2 12-18.6 30.4-52.6 30.4-37 0-66.8-24.2-66.8-73.4s30.4-76.4 66-76.4c32 0 57 17.5 57 64.4v7zm0-11.7h61c-1.2-30.6-10-47.5-28.3-47.5s-31 16-32.7 47.5M1184.5 278.4v-25a49 49 0 0 1-44.9 28.5c-30.3 0-59.4-25.3-59.4-72.8 0-50.2 32.6-77 67-77 12.5 0 24.5 3.8 34.1 11.6V93.6c0-3 0-4-2.3-6.1l-13.4-14.3a2.8 2.8 0 0 1 1.5-4.8l44.8-8.6v190.4c0 2.9.3 3.5 3 6l14.9 17.6c1.6 1.8.3 4.6-2.2 4.6zm-3.2-36.4v-83.4a38 38 0 0 0-27.7-12.5c-19 0-40.2 16.6-40.2 60 0 39.1 16.9 57.5 36.4 57.5 11.7 0 25-6.7 31.5-21.6M229.6 74.4c2.7-.2 3.4-3.2 1-4.2l-51.6-22L123 24.3 68.8 1.2q-1.5-.5-3 .2C44 14.8 35 31.5 35.3 49.3l.1 3v.2C36.6 68.7 46.8 96.3 57 116q.6 1.4.3 2.8c-4.4 15-15.5 32-28.4 41.5-1.4 1-1.2 2.9.5 3.6l49.2 21c1.8.8 2 2.8.3 3.8-18.8 10.7-52 18.9-75.4 20.8-2.7.2-3.4 3.2-1 4.2l51.6 22 55.9 23.8 54.3 23.1q1.5.6 3-.2c21.9-13.4 30.8-30 30.6-47.8l-.1-3v-.2c-1.3-16.2-11.5-43.8-21.7-63.6q-.6-1.3-.3-2.7c4.4-15 15.5-32 28.4-41.5 1.4-1 1.2-3-.5-3.6l-49.2-21c-1.8-.8-2-2.9-.3-3.8 18.8-10.7 52-18.9 75.4-20.8m-119-46.8c2.5-.3 4 2.3 2.1 3.8a52 52 0 0 0-21.5 37.1c-.1 1.6-2.2 2.6-4 1.9L43 51.4c-1.8-.7-2-2.8-.3-3.8 16.9-9.5 45.4-17.2 68-20m-46.5 90a86 86 0 0 1 23.2-37.3c1.5-1.4 4.3-.7 4.6 1.2a245 245 0 0 0 21 58.3q.6 1.3.2 2.7A86 86 0 0 1 90 179.7c-1.6 1.4-4.4.8-4.7-1-3-16.5-11.8-40.6-20.9-58.4q-.7-1.3-.3-2.7m25.8 72 44.5 19c1.8.8 2 3 .3 3.9-16.8 9.6-45.4 17.1-68 20-2.6.3-4.1-2.4-2.2-3.9a52 52 0 0 0 21.5-37c.1-1.7 2.2-2.7 4-2m32.6 66.6c-2.5.4-4-2.3-2.1-3.8a52 52 0 0 0 21.4-37c.2-1.7 2.3-2.7 4-2l44.4 19c1.8.8 2 2.8.3 3.8-16.9 9.6-45.4 17.2-68 20m46.5-90a86 86 0 0 1-23.2 37.3c-1.5 1.4-4.3.7-4.7-1.1-3-16.5-11.8-40.6-20.9-58.3q-.6-1.4-.2-2.8a86 86 0 0 1 23.1-37.2c1.6-1.4 4.3-.7 4.7 1.1 3 16.5 11.8 40.6 20.9 58.3q.6 1.5.3 2.8m-25.8-72-44.6-19c-1.8-.8-2-2.9-.2-3.8 16.8-9.6 45.4-17.2 68-20 2.6-.3 4.1 2.3 2.2 3.8A52 52 0 0 0 147 92.3c-.2 1.6-2.2 2.6-4 1.9"/>
    </g>
    <defs>
        <clipPath id="a">
            <path fill="#fff" d="M0 0h1231v347H0z"/>
        </clipPath>
    </defs>
</svg>