<svg width="974" height="200" viewBox="0 0 974 200" fill="none" xmlns="http://www.w3.org/2000/svg">
<g clip-path="url(#clip0_9701_3316)">
<path d="M354.14 86.6664V73.6664H376.14C380.073 73.6664 383.033 72.5998 385.007 70.4664C387.053 68.2664 388.073 65.2264 388.073 61.3664C388.073 57.4264 386.973 54.3131 384.767 52.0264C382.633 49.7398 379.567 48.5931 375.54 48.5931H354.14V35.5998H374.6C378.3 35.5998 381.1 34.7331 382.993 32.9998C384.96 31.1864 385.947 28.5398 385.947 25.0731C385.947 21.6064 385 19.0064 383.113 17.2731C381.293 15.4598 378.58 14.5531 374.953 14.5531H354.133V1.54645H378.847C386.413 1.54645 392.52 3.47311 397.173 7.33311C401.827 11.1998 404.147 16.4398 404.147 23.0598C404.147 27.2331 403.16 30.8198 401.193 33.8198C399.243 36.793 396.503 39.1639 393.28 40.6664C389.801 42.2805 386.002 43.0894 382.167 43.0331L382.753 40.5464C387.167 40.5464 391.153 41.4931 394.7 43.3864C398.262 45.2202 401.247 48.0026 403.327 51.4264C405.46 54.8131 406.52 58.8331 406.52 63.4864C406.52 68.1398 405.413 72.2331 403.207 75.7798C401.08 79.2464 398.047 81.9331 394.107 83.8198C390.24 85.7131 385.673 86.6598 380.393 86.6598H354.133L354.14 86.6664ZM339.247 86.6664V1.53978H357.453V86.6664H339.247ZM415.313 86.6664V1.53978H433.047V86.6664H415.313ZM483.24 86.6664C482.748 84.8418 482.392 82.9835 482.173 81.1064C482.005 78.826 481.928 76.5397 481.94 74.2531H481.473V45.7598C481.473 43.3131 480.64 41.4264 478.987 40.0864C477.407 38.6664 475.047 37.9531 471.893 37.9531C468.893 37.9531 466.493 38.4664 464.68 39.4864C462.947 40.5198 461.8 42.0198 461.247 43.9864H444.34C445.133 38.5464 447.927 34.0531 452.74 30.5064C457.54 26.9598 464.127 25.1864 472.48 25.1864C481.147 25.1864 487.773 27.1198 492.347 30.9798C496.913 34.8464 499.2 40.3998 499.2 47.6464V74.2464C499.2 76.2198 499.32 78.2331 499.553 80.2798C499.909 82.4332 500.383 84.5653 500.973 86.6664H483.24ZM462.193 87.8464C456.207 87.8464 451.44 86.3531 447.887 83.3531C444.34 80.2864 442.567 76.2198 442.567 71.1798C442.567 65.5798 444.66 61.0864 448.833 57.6998C453.093 54.2331 459 51.9864 466.567 50.9664L484.187 48.4798V58.7664L469.52 61.0131C466.373 61.4798 464.053 62.3464 462.547 63.6131C461.053 64.8731 460.307 66.6064 460.307 68.8131C460.307 70.7864 461.013 72.2798 462.433 73.3064C463.853 74.3331 465.74 74.8398 468.107 74.8398C471.813 74.8398 474.967 73.8598 477.567 71.8864C480.167 69.8398 481.467 67.4731 481.467 64.7931L483.12 74.2531C481.387 78.7464 478.747 82.1331 475.2 84.4198C471.653 86.7064 467.313 87.8464 462.193 87.8464ZM536.867 87.8464C530.56 87.8464 525 86.5131 520.2 83.8264C515.47 81.2282 511.541 77.3849 508.84 72.7131C506.167 67.9798 504.827 62.5864 504.827 56.5131C504.827 50.4464 506.16 45.0464 508.84 40.3198C511.54 35.6489 515.466 31.8057 520.193 29.2064C525 26.5264 530.56 25.1864 536.86 25.1864C542.147 25.1864 546.873 26.1731 551.053 28.1398C555.307 30.0331 558.78 32.6731 561.453 36.0664C564.213 39.4531 565.987 43.4331 566.773 47.9998H549.633C548.767 45.0864 547.193 42.8798 544.9 41.3864C542.7 39.8864 540.1 39.1398 537.1 39.1398C534.267 39.1398 531.78 39.8464 529.653 41.2664C527.528 42.7779 525.885 44.8705 524.92 47.2931C523.82 49.8931 523.267 52.9731 523.267 56.5198C523.267 60.0664 523.82 63.1398 524.92 65.7398C526.027 68.3398 527.6 70.3531 529.653 71.7664C531.787 73.1864 534.267 73.8998 537.1 73.8998C540.1 73.8998 542.7 73.1464 544.9 71.6531C547.193 70.1531 548.767 67.9464 549.633 65.0331H566.78C566.077 69.4077 564.24 73.5218 561.453 76.9664C558.675 80.4362 555.11 83.1945 551.053 85.0131C546.873 86.9064 542.147 87.8464 536.867 87.8464ZM574.047 86.6664V1.53978H591.78V86.6664H574.047ZM612.713 86.6664L587.647 55.3331L612.113 26.3664H632.573L603.84 58.0531L604.673 52.4998L633.753 86.6664H612.713ZM339.247 193.333V108.206H357.453V193.333H339.247ZM347.76 160.346V146.393H396.587V160.346H347.76ZM347.76 122.16V108.2H399.307V122.153L347.76 122.16ZM435.267 194.513C428.647 194.513 422.813 193.213 417.767 190.613C412.924 188.048 408.877 184.204 406.067 179.5C403.307 174.693 401.927 169.173 401.927 162.946C401.927 156.72 403.307 151.28 406.06 146.633C408.883 141.995 412.935 138.229 417.767 135.753C422.813 133.153 428.647 131.853 435.267 131.853C441.967 131.853 447.8 133.153 452.767 135.753C457.63 138.184 461.693 141.961 464.473 146.633C467.227 151.28 468.607 156.72 468.607 162.946C468.607 169.173 467.193 174.693 464.353 179.5C461.593 184.233 457.687 187.933 452.647 190.613C447.68 193.213 441.887 194.513 435.267 194.513ZM435.267 180.566C438.027 180.566 440.507 179.853 442.713 178.433C445 177.02 446.813 175.006 448.153 172.406C449.493 169.726 450.167 166.54 450.167 162.826C450.167 157.393 448.707 153.213 445.787 150.293C444.451 148.843 442.823 147.692 441.009 146.919C439.195 146.145 437.238 145.766 435.267 145.806C431.087 145.806 427.54 147.3 424.627 150.3C421.787 153.293 420.373 157.466 420.373 162.833C420.373 166.533 421.04 169.726 422.38 172.406C423.72 175.006 425.493 177.02 427.7 178.433C429.987 179.853 432.507 180.566 435.267 180.566ZM476.113 193.333V133.033H493.493V147.226H493.853V193.333H476.113ZM493.847 161.886L492.313 147.58C493.733 142.453 496.06 138.553 499.287 135.873C502.52 133.193 506.54 131.853 511.353 131.853C512.847 131.853 513.953 132.013 514.66 132.32V148.88C514.128 148.7 513.568 148.618 513.007 148.64C512.143 148.555 511.275 148.517 510.407 148.526C504.727 148.526 500.553 149.546 497.873 151.593C495.193 153.566 493.847 156.993 493.847 161.886ZM548.78 194.513C542.08 194.513 536.247 193.213 531.287 190.613C526.458 188.068 522.441 184.217 519.693 179.5C517.02 174.766 515.68 169.333 515.68 163.186C515.68 156.96 517.013 151.52 519.693 146.866C522.453 142.133 526.28 138.473 531.16 135.873C536.053 133.193 541.727 131.853 548.193 131.853C554.42 131.853 559.813 133.12 564.393 135.64C568.864 138.066 572.552 141.715 575.027 146.16C577.553 150.653 578.813 155.933 578.813 162C578.813 163.266 578.773 164.446 578.693 165.546C578.613 166.573 578.493 167.56 578.34 168.506H526.08V156.8H564.033L560.96 158.933C560.96 154.04 559.78 150.453 557.413 148.166C555.127 145.806 551.973 144.62 547.953 144.62C543.307 144.62 539.68 146.2 537.073 149.353C534.553 152.506 533.293 157.233 533.293 163.54C533.293 169.686 534.56 174.26 537.073 177.253C539.673 180.253 543.54 181.746 548.66 181.746C551.5 181.746 553.947 181.28 555.993 180.326C558.047 179.38 559.58 177.846 560.607 175.72H577.273C575.307 181.546 571.913 186.16 567.107 189.553C562.373 192.86 556.267 194.513 548.78 194.513ZM611.333 194.513C602.507 194.513 595.493 192.74 590.293 189.193C585.093 185.646 582.253 180.76 581.78 174.533H597.62C598.02 177.213 599.353 179.266 601.64 180.68C604.007 182.02 607.24 182.693 611.333 182.693C615.04 182.693 617.72 182.18 619.373 181.16C620.181 180.695 620.849 180.022 621.306 179.21C621.764 178.398 621.994 177.478 621.973 176.546C621.973 175.046 621.467 173.906 620.44 173.113C619.493 172.246 617.72 171.54 615.12 170.986L605.427 168.98C598.253 167.48 592.973 165.233 589.58 162.24C586.193 159.166 584.5 155.226 584.5 150.413C584.5 144.58 586.747 140.053 591.233 136.813C595.727 133.506 601.993 131.853 610.033 131.853C617.993 131.853 624.34 133.466 629.073 136.7C633.8 139.853 636.407 144.266 636.873 149.94H621.033C620.898 148.96 620.526 148.028 619.948 147.225C619.371 146.422 618.606 145.773 617.72 145.333C615.827 144.226 613.147 143.673 609.68 143.673C606.527 143.673 604.16 144.146 602.587 145.093C601.893 145.448 601.315 145.992 600.917 146.662C600.52 147.332 600.32 148.101 600.34 148.88C600.34 150.3 600.973 151.44 602.233 152.306C603.493 153.093 605.58 153.806 608.5 154.44L619.373 156.68C625.44 157.946 630.013 160.306 633.087 163.773C636.24 167.166 637.82 171.186 637.82 175.84C637.82 181.746 635.493 186.36 630.84 189.666C626.273 192.9 619.773 194.513 611.333 194.513ZM673.047 194.633C665.32 194.633 659.567 192.78 655.78 189.073C652.08 185.293 650.227 179.58 650.227 171.933V119.56L667.96 112.933V172.526C667.96 175.206 668.707 177.213 670.207 178.553C671.707 179.893 674.027 180.566 677.18 180.566C678.367 180.566 679.467 180.446 680.493 180.206C681.52 179.973 682.54 179.7 683.567 179.38V192.86C682.54 193.413 681.087 193.846 679.193 194.16C677.162 194.493 675.105 194.651 673.047 194.633ZM638.993 146.513V133.033H683.567V146.513H638.993ZM711.74 193.333V108.206H729.947V193.333H711.74ZM720.253 193.333V179.38H770.853V193.333H720.253ZM815.947 193.333C815.456 191.509 815.102 189.65 814.887 187.773C814.716 185.493 814.635 183.207 814.647 180.92H814.173V152.426C814.173 149.98 813.347 148.093 811.693 146.746C810.113 145.333 807.753 144.62 804.6 144.62C801.6 144.62 799.2 145.133 797.387 146.153C796.545 146.638 795.808 147.286 795.218 148.059C794.629 148.831 794.199 149.713 793.953 150.653H777.047C777.84 145.213 780.633 140.72 785.447 137.173C790.253 133.626 796.833 131.853 805.187 131.853C813.86 131.853 820.48 133.786 825.053 137.646C829.62 141.513 831.907 147.066 831.907 154.313V180.913C831.907 182.886 832.027 184.9 832.267 186.946C832.58 188.92 833.053 191.046 833.68 193.333H815.947ZM794.9 194.513C788.913 194.513 784.147 193.02 780.593 190.02C777.047 186.953 775.273 182.886 775.273 177.846C775.273 172.246 777.367 167.753 781.54 164.366C785.8 160.9 791.713 158.653 799.28 157.633L816.893 155.146V165.433L802.233 167.68C799.08 168.146 796.753 169.013 795.26 170.28C793.76 171.54 793.013 173.273 793.013 175.48C793.013 177.453 793.72 178.946 795.14 179.973C796.56 181 798.447 181.506 800.813 181.506C804.52 181.506 807.673 180.526 810.273 178.553C812.873 176.506 814.173 174.14 814.173 171.46L815.827 180.92C814.093 185.413 811.453 188.8 807.907 191.086C804.36 193.373 800.027 194.513 794.9 194.513ZM880.413 194.513C874.66 194.513 869.973 193.18 866.347 190.493C862.8 187.813 860.713 184.153 860.08 179.5L861.027 179.38V193.333H843.647V108.206H861.38V146.393L860.313 146.16C860.693 144.052 861.497 142.043 862.676 140.256C863.855 138.468 865.385 136.938 867.173 135.76C870.96 133.16 875.687 131.853 881.36 131.853C886.8 131.853 891.487 133.153 895.433 135.753C899.453 138.28 902.527 141.86 904.653 146.513C906.86 151.166 907.96 156.646 907.96 162.946C907.96 169.333 906.82 174.886 904.533 179.613C902.247 184.346 899.053 188.013 894.96 190.613C890.86 193.213 886.013 194.513 880.413 194.513ZM875.447 180.326C879.627 180.326 883.013 178.833 885.62 175.833C888.22 172.84 889.52 168.586 889.52 163.066C889.52 157.546 888.18 153.333 885.5 150.413C882.9 147.5 879.467 146.04 875.213 146.04C871.113 146.04 867.727 147.54 865.047 150.533C862.447 153.453 861.147 157.666 861.147 163.186C861.147 168.7 862.447 172.96 865.047 175.953C867.727 178.873 871.193 180.326 875.447 180.326ZM940.693 194.513C931.867 194.513 924.853 192.74 919.647 189.193C914.447 185.646 911.607 180.76 911.133 174.533H926.98C927.373 177.213 928.713 179.266 931 180.68C933.367 182.02 936.593 182.693 940.693 182.693C944.4 182.693 947.08 182.18 948.733 181.16C949.541 180.695 950.209 180.022 950.667 179.21C951.124 178.398 951.354 177.478 951.333 176.546C951.333 175.046 950.82 173.906 949.8 173.113C948.853 172.246 947.08 171.54 944.48 170.986L934.78 168.98C927.613 167.48 922.327 165.233 918.94 162.24C915.553 159.166 913.853 155.226 913.853 150.413C913.853 144.58 916.1 140.053 920.593 136.813C925.087 133.506 931.353 131.853 939.393 131.853C947.353 131.853 953.7 133.466 958.427 136.7C963.16 139.853 965.76 144.266 966.233 149.94H950.387C950.253 148.96 949.882 148.029 949.305 147.226C948.729 146.423 947.965 145.773 947.08 145.333C945.187 144.226 942.507 143.673 939.04 143.673C935.887 143.673 933.52 144.146 931.947 145.093C931.253 145.448 930.675 145.992 930.277 146.662C929.88 147.332 929.68 148.101 929.7 148.88C929.7 150.3 930.327 151.44 931.593 152.306C932.853 153.093 934.94 153.806 937.86 154.44L948.733 156.68C954.8 157.946 959.373 160.306 962.447 163.773C965.6 167.166 967.18 171.186 967.18 175.84C967.18 181.746 964.853 186.36 960.2 189.666C955.633 192.9 949.127 194.513 940.693 194.513ZM199.647 85.4864H169.873L140.093 43.5331L47.1933 174.266H77.04L140.093 85.4864H169.867L106.82 174.266H136.74L199.647 85.4864L280 198.606L232.987 198.613V174.353L199.653 127.44L166.5 174.273V198.613H0L140.093 1.39978L199.647 85.4931V85.4864Z" fill="white"/>
</g>
<defs>
<clipPath id="clip0_9701_3316">
<rect width="973.333" height="200" fill="white"/>
</clipPath>
</defs>
</svg>
