<svg xmlns="http://www.w3.org/2000/svg" fill="none" viewBox="0 0 97 28">
    <path fill="#fdfdfd" d="m33.21 4.74.03 6.35.59-.25a6 6 0 0 1 4.59.1q.74.36 1.32.95l.1.09a5 5 0 0 1 .65.9 7 7 0 0 1 .95 4v.1q.02.72-.1 1.4l-.02.1a6.3 6.3 0 0 1-1.64 3.27l-.05.06a6 6 0 0 1-4 1.6q-2.7.08-5.3-.68V5.21L31.47 5l.13-.03 1.3-.21c.1-.02.1-.02.31-.02m.13 8.78-.07.03c-.1.1-.07.22-.07.35v4.18l.01 2.65.36.06.1.02c1.16.18 2.4.21 3.4-.47l.2-.15a3 3 0 0 0 .45-.5l.06-.08c.75-1.01.83-2.52.67-3.73a3.8 3.8 0 0 0-1.14-2.42c-1.14-.85-2.81-.61-3.97.06M81.44 10.4h.07q.6 0 1.17.1l.07.02q1.25.24 2.23 1.06l.07.06c1.19 1.03 1.6 2.66 1.74 4.16a13 13 0 0 1 .01 1.65v.14l-.04.21h-8.1c.07.5.15.95.37 1.39l.04.08a2.8 2.8 0 0 0 1.95 1.46l.1.03c1.46.34 3.13.04 4.5-.46a7 7 0 0 1 .2 1.07l.05.33.08.44q.05.29.04.56a9.5 9.5 0 0 1-6.61.31 6 6 0 0 1-2.1-1.32v-.07h-.06q-.15-.16-.28-.34l-.03-.04a6 6 0 0 1-1.1-2.56l-.01-.09a8 8 0 0 1-.12-1.62v-.1c0-.49 0-.96.1-1.44l.01-.09c.23-1.23.77-2.4 1.64-3.3l.07-.07a5.4 5.4 0 0 1 2.97-1.5l.1-.01q.42-.07.87-.06m-1.67 3-.06.04a3 3 0 0 0-.74 1.07l-.04.08q-.21.52-.27 1.09h5.28a3 3 0 0 0-.86-2.25l-.07-.06a2.3 2.3 0 0 0-1.68-.56q-.88.03-1.56.59M55.34 10.4h.26q.75 0 1.48.14l.1.02q.74.15 1.4.53l.09.05q.34.22.6.5l.07.06c.64.6.93 1.56 1.04 2.4l.02.12q.06.62.05 1.25v7.36l-.38.07-.11.02-.95.17-.08.01q-.61.1-1.23.17h-.07a18 18 0 0 1-2.2.09c-1.31 0-2.71-.17-3.76-1.03l-.07-.06c-.13-.1-.13-.1-.17-.15v-.07h-.06c-.8-.92-.97-2.07-.89-3.26q.03-.23.09-.46 0-.04.02-.07c.14-.54.4-.97.78-1.38l.07-.08q.3-.3.63-.5l.08-.05a6.3 6.3 0 0 1 3.4-.76h.08q1.04 0 2.05.25c-.02-1.2-.02-1.2-.6-2.22l-.07-.06v-.06q-.03 0-.05-.03l-.19-.12c-.98-.66-2.57-.42-3.66-.2q-.43.08-.85.2l-.1.02-.09.03h-.06c-.06-.05-.05-.15-.06-.23l-.01-.06-.04-.22-.02-.15-.1-.7-.05-.31-.03-.15q0-.1-.03-.2l-.01-.13-.02-.18q1.8-.56 3.7-.56m-1.6 7.82c-.35.38-.4.77-.39 1.27q.02.64.47 1.09c.55.44 1.3.5 1.97.5h.07l.97-.04h.11c.4 0 .4 0 .74-.12v-3.15l-.26-.06-.07-.01c-1.1-.25-2.73-.32-3.61.52M62.6 10.72l2.54-.03c.55-.02.55-.02.7.1q.08.1.12.24l.2.29.1.16.05.08.66 1.03.33.5.37.57.08.13.2.3.1.16.05.08q.11.2.26.36l.03-.04.97-1.51.38-.59.72-1.12.06-.08.1-.17c.07-.09.07-.09.1-.19q.08-.16.21-.27c.22-.07.47-.04.7-.04l.73.01.54.01 1.07.02-.33.5-.06.09-.06.09-.26.37-.1.16-.92 1.32-.66.94-.97 1.4-.66.95q.13.24.3.43a12 12 0 0 1 .75 1.01l.6.83.73 1.04q.35.5.69 1.03l.05.09c1.03 1.6 1.03 1.6 1.2 2.13h-3.12l-.46-.86-.33-.55-.13-.22-.2-.33a22 22 0 0 0-.91-1.4 23 23 0 0 0-.86-1.23q-.17.18-.3.38l-.3.4c-.65.91-1.22 1.9-1.78 2.87l-.05.09-.48.85h-2.94a3 3 0 0 1 .22-.5q.31-.59.67-1.13l.06-.1.74-1.15q1.05-1.58 2.18-3.09l.05-.08.06-.07.05-.07.12-.15c.06-.06.06-.06.04-.12l-.12-.21-.06-.1-.06-.08-.48-.69-.05-.07-.19-.28-1.2-1.74-1.6-2.33-.05-.08-.06-.08zM47.2 4.74v6.34l.01 7.86c0 .52.04 1.05.39 1.47.39.37.95.45 1.47.54l-.22 1.38-.05.34-.04.2-.02.1-.01.1-.02.08q0 .1-.04.2a5.2 5.2 0 0 1-3.31-.9l-.07-.04c-.6-.5-.86-1.3-.95-2.05v-.06q-.04-.45-.03-.88V5.2l.31-.06.09-.02q.37-.08.75-.13l.13-.03 1.2-.2.1-.01q.15-.02.3-.02M92.61 4.74v.1l.01 5.41v.72l.02 7.55v.18c0 .83 0 .83.31 1.58.03.05.03.05.03.11l.05.02c.08.04.08.04.14.1.38.29.86.35 1.32.44q-.03.43-.11.87l-.02.13-.05.27-.06.35-.05.26-.02.13-.03.18-.02.1c-.01.08-.01.08-.04.1a6 6 0 0 1-2.58-.45l-.1-.05c-.63-.3-1.15-.8-1.4-1.47a7 7 0 0 1-.28-2.4V5.22l.5-.1.17-.02 1.26-.22.45-.08.08-.01.07-.02h.07q.15-.02.28-.02"/>
    <path fill="#f5803b" d="M25.3 12.38a11.5 11.5 0 0 1-2.2 8.57l-.08.08q-.22.28-.45.53a2 2 0 0 1-.38-.21l-.13-.1-.07-.04-.19-.13a22 22 0 0 1-2.35-1.83l-.2-.17-.05-.05-.13-.1-.34-.35-.26-.25c-.04-.06-.04-.06-.04-.13q.06-.17.16-.31l.04-.07.5-.72.04-.06a10 10 0 0 1 .72-.89q.19-.23.4-.42l.14-.17.06-.07h.06l.02-.05q.09-.14.22-.24l.06-.05.8-.7.05-.05q.89-.7 1.88-1.25l.08-.04c1.33-.73 1.33-.73 1.64-.73"/>
    <path fill="#f4743a" d="M24.26 9.09q.1.08.15.21l.03.08.04.08.03.09c.64 1.53.64 1.53.64 2.03l-.07.03a14 14 0 0 0-4.23 2.5l-.07.06c-.27.23-.27.23-.53.49-.04.03-.04.03-.1.03v.06h-.06l-.03.06a1 1 0 0 1-.16.2h-.06l-.02.05-.15.18q-.19.18-.35.38l-.08.09a15 15 0 0 0-1.23 1.65l-.13.2a.4.4 0 0 1-.2-.17l-.06-.06-.05-.07-.05-.08c-.84-1.2-2-3.1-2-4.61l.08-.03c2.36-.7 4.76-1.46 6.95-2.6l.35-.16q.68-.34 1.36-.7"/>
    <path fill="#f57b3b" d="M14.84 13.43h.06l.02.06q.33 1.07.78 2.1l.03.07q.4.9.98 1.71l.04.06q.23.34.5.66c.13.17.13.17.17.27l-.13.25c-.55 1-.96 2.11-1.2 3.23-.02.1-.02.1-.05.15h-.08a10 10 0 0 0-2.23.23l-.14.02-.03-.06a13 13 0 0 0-2.01-3.27l-.26-.34.61-.83a50 50 0 0 0 1.8-2.54l.82-1.27.06-.08.1-.18q.04-.04.06-.1l.06-.08zM11.71 7.49q.05 0 .09.02l.5.12q1.07.27 2.17.41c.04.1.04.13.03.23l-.01.08-.01.09a13 13 0 0 0-.05 1.38q0 .83.1 1.66l.04.5-.56.17-.08.02-.27.06-.1.02q-2.11.5-4.28.83H9.2l-.22.04-.06.01q-.2.03-.43.02l.01-.05q.22-1.36-.02-2.71c-.02-.07-.02-.07-.02-.2q.12-.08.23-.13c.83-.47 1.58-1.08 2.26-1.74l.06-.07q.39-.36.7-.76"/>
    <path fill="#f4763a" d="M7.08 16.76a7 7 0 0 1 2.18 1.1l.05.04q.46.32.87.74-.08.2-.22.36-.21.24-.39.5a15 15 0 0 1-.74.94l-.08.1-.03.05a18 18 0 0 1-1.28 1.53l-.18.2a5 5 0 0 1-.57.6 5 5 0 0 1-.56-.48c-.64-.61-.64-.61-.89-.9l-.05-.08-.47-.59-.06-.08-.06-.08-.05-.07a.4.4 0 0 1-.07-.19l.12-.16.14-.15.24-.3.36-.49a16 16 0 0 0 .74-1q.53-.78 1-1.6"/>
    <path fill="#f5793b" d="M22.48 6.38q.28.23.51.56l.11.15q.44.59.82 1.23a1 1 0 0 1-.21.16l-.16.08-.08.04-.27.14-.1.05a42 42 0 0 1-6.75 2.71l-.09.03a1 1 0 0 1-.28.05q.09-.27.24-.52l.8-1.54.1-.2q.16-.31.26-.65c.2-.6.2-.6.4-.71q.34-.1.7-.1.23-.01.45-.08l.08-.02c1.2-.29 2.4-.74 3.47-1.38"/>
    <path fill="#f4743a" d="m14.14 12.94.03.09-.14.22-.1.14-.04.08-.24.37-.76 1.14a30 30 0 0 1-.95 1.36l-.44.62-.77 1.03a1 1 0 0 1-.25-.18 9 9 0 0 0-2.97-1.76q.03-.15.1-.31l.04-.1.05-.1q.18-.39.33-.81l.04-.09.21-.62q.33-.07.66-.11l.18-.03h.1q2.48-.36 4.92-.94"/>
    <path fill="#f57a3b" d="M10.73 19.28c.42.19.77.86 1.02 1.23l.04.07c1 1.52 1 1.52 1 1.9q-.03.02-.07.03c-.98.42-1.87.87-2.69 1.57l-.05.04-.24.22-.05.05-.1.1-.14.1a1 1 0 0 1-.28-.1l-.08-.04-.24-.12-.09-.04a13 13 0 0 1-1.4-.85q.09-.16.24-.3.18-.18.35-.38l.2-.22a9 9 0 0 0 .57-.67 14 14 0 0 0 .8-1.02l.62-.8z"/>
    <path fill="#f57c3b" d="M13.34 2.5a3 3 0 0 1-.1.65l-.03.09A11 11 0 0 1 11.5 6.5q-.27-.05-.5-.17l-.1-.04a6 6 0 0 1-.69-.38l-.07-.04a5 5 0 0 1-1.86-1.9q.88-.47 1.8-.83.06 0 .1-.03 1.2-.43 2.48-.58h.1q.29-.04.58-.03"/>
    <path fill="#f4783a" d="M5.21 6.56c.25.1.45.35.62.55l.2.22q.26.3.5.62l.04.05c.4.54.75 1.14.94 1.8-1.39.7-3.03 1.2-4.6 1.17a11 11 0 0 1 2.3-4.4"/>
    <path fill="#f4753a" d="M7.57 4.44q.14.14.23.3a7 7 0 0 0 3.09 2.4c-.11.25-.34.44-.52.62l-.06.07-.44.4-.09.08a8 8 0 0 1-1.02.74c-.46.31-.46.31-.54.31l-.03-.07A8 8 0 0 0 6.8 7.05L6.77 7q-.46-.55-.97-1.05.18-.24.4-.43l.06-.06a7 7 0 0 1 .76-.63l.07-.05q.24-.19.48-.34"/>
    <path fill="#f4723a" d="M17.97 19q.14.07.23.17l.07.07.06.06q.23.25.5.48l.1.08a24 24 0 0 0 1.6 1.28q.7.53 1.46 1c-.03.1-.05.13-.13.19l-.28.25a8 8 0 0 1-.79.65l-.07.05-.39.28-.19-.1-.06-.04-.35-.22a9 9 0 0 0-2.86-1.11q.06-.4.18-.79l.02-.06q.34-1.16.9-2.23"/>
    <path fill="#f57c3b" d="M7.7 10.63q.1.38.1.8v.41q.02.73-.16 1.44h-.07l-.73.07-.28.02-1.49.14-1.78.15h-.1q-.36.03-.7.02a4.4 4.4 0 0 1 .2-1.88l.19-.02h.17a11 11 0 0 0 4.4-1.08 1 1 0 0 1 .25-.07"/>
    <path fill="#f4753a" d="M16.44 2.77q.3.04.59.12l.1.03q.66.17 1.27.47c-.11 1.3-.75 2.7-1.26 3.88a14 14 0 0 1-1.71.03c.54-4.06.54-4.06 1-4.53"/>
    <path fill="#f57f3b" d="M14.2 2.5h.25l1.16.12-.15.5c-.37 1.15-.54 2.33-.74 3.51l-.01.1-.04.22-.01.1-.02.09c-.01.07-.01.07-.04.1q-.42-.01-.84-.1l-.12-.02c-.92-.16-.92-.16-1.34-.31a2 2 0 0 1 .22-.37l.07-.1q.47-.7.84-1.47l.03-.07q.52-1.05.7-2.21c0-.06 0-.06.04-.1"/>
    <path fill="#f4723a" d="M6.26 16.51a1 1 0 0 1-.1.25l-.04.07-.05.08-.05.08q-.3.48-.62.94l-.1.14a17 17 0 0 1-.9 1.2q-.18.25-.38.47c-.14-.12-.21-.3-.3-.47l-.02-.06q-.66-1.32-.97-2.76c1.13-.3 2.4-.2 3.53.06"/>
    <path fill="#f4733a" d="M19.17 3.79q.24.08.44.2l.08.04.64.4.06.05a10 10 0 0 1 1.54 1.25v.06a13 13 0 0 1-3.84 1.36q.03-.17.1-.33l.04-.1.04-.11q.53-1.39.9-2.82"/>
    <path fill="#f5793b" d="M7.4 14.1q-.06.24-.14.44l-.03.08q-.23.59-.51 1.15l-.58-.1a10 10 0 0 0-2.46-.15h-.11l-.7.09h-.26c-.07-.06-.06-.18-.06-.27l-.01-.07-.06-.76q.18-.04.35-.04h.12l.07-.01q.79-.04 1.58-.12h.11l1.65-.16.33-.03.2-.01.09-.01q.2-.03.41-.02"/>
    <path fill="#f6813b" d="M13.1 23.23q.13.23.2.5l.01.06q.18.56.33 1.12 0 .05.02.08l.05.22.02.07c.04.16.04.16.04.22-1.16.05-2.33-.2-3.44-.55a1 1 0 0 1 .16-.21l.06-.05.06-.05.07-.05q.55-.44 1.16-.78l.05-.03q.6-.33 1.2-.55"/>
    <path fill="#f57f3b" d="M15.38 22.8h.5v.06c-.1.75-.14 1.46-.06 2.21l.01.09.02.2q-.34.07-.7.1l-.1.02c-.3.03-.3.03-.45.02l-.03-.11q-.26-1.11-.62-2.18c-.03-.08-.03-.08-.03-.2q.47-.14.95-.18l.1-.02z"/>
    <path fill="#f36939" d="M16.68 22.89c1.02.1 2 .62 2.85 1.14-.62.5-1.57.78-2.33 1.01l-.07.03c-.32.1-.32.1-.48.1-.2-.72-.12-1.56.03-2.28"/>
    <path fill="#f36739" d="M15.4 8.1h1.37q-.08.3-.22.56l-.04.08-.12.24-.42.87-.5.96-.06.08-.04.08c-.04.06-.04.06-.1.09q-.04-.6-.03-1.21V9.5c0-.94 0-.94.06-1.37.03-.03.03-.03.1-.03"/>
    <path fill="#dadadc" d="M71.13 10.72h2.84c-.06.06-.06.06-.18.07h-.24l-1.3-.01-.97-.01h-.08c-.13 0-.19 0-.3.07l-.06.06c.07-.18.09-.18.29-.18"/>
</svg>