<svg width="1200" height="620" viewBox="0 0 1200 620" fill="none" xmlns="http://www.w3.org/2000/svg">
<g clip-path="url(#clip0_9753_123)">
<mask id="mask0_9753_123" style="mask-type:luminance" maskUnits="userSpaceOnUse" x="72" y="170" width="1057" height="280">
<path d="M1128.08 170.52H72V449.48H1128.08V170.52Z" fill="white"/>
</mask>
<g mask="url(#mask0_9753_123)">
<path fill-rule="evenodd" clip-rule="evenodd" d="M157.914 172.038C159.754 170.118 162.794 170.038 164.794 171.878L164.954 172.038L205.914 194.998L246.874 218.998C249.834 220.038 250.874 222.998 250.874 225.958V288.918C250.634 292.998 247.114 296.118 243.114 295.878C241.994 295.878 240.874 295.478 239.914 294.918L229.914 289.878C226.954 287.878 224.874 287.878 221.914 289.878L186.954 309.878L153.034 329.878C150.553 330.838 148.953 333.238 149.033 335.878V355.878C149.033 361.878 142.073 364.838 137.033 361.878L117.033 349.878L76.0735 326.918C73.5135 325.558 71.9135 322.838 72.0735 319.878V225.878C72.0735 222.918 73.1135 219.878 76.0735 218.918L117.033 194.998L157.914 172.038Z" fill="#2380FF"/>
<path fill-rule="evenodd" clip-rule="evenodd" d="M246.795 172.039C249.755 170.039 252.795 170.039 254.795 172.039L273.755 182.039L291.755 192.999C294.715 193.959 295.755 196.999 295.755 199.959V241.879C295.755 244.839 294.715 247.879 291.755 248.839L273.755 259.799C267.755 262.759 261.755 258.759 261.755 252.839V219.879C261.755 216.919 260.795 213.879 257.755 212.919L227.755 195.879C223.915 193.319 222.875 188.039 225.435 184.199C226.075 183.319 226.875 182.519 227.755 181.879H228.795L246.795 171.879V172.039Z" fill="#00D25E"/>
<path fill-rule="evenodd" clip-rule="evenodd" d="M221.831 303.878C224.391 302.838 227.271 302.838 229.831 303.878L257.831 320.838L286.791 336.838C289.191 338.358 290.711 340.998 290.791 343.798V408.758C290.791 411.718 288.791 413.798 286.791 415.718L257.831 431.718L229.831 448.678C227.271 449.718 224.391 449.718 221.831 448.678L193.831 431.718L164.871 415.718C162.871 413.958 161.831 411.398 161.911 408.758V343.798C161.911 340.838 162.871 337.798 164.871 336.838L193.831 320.838L221.831 303.878Z" fill="#FF4F67"/>
<path fill-rule="evenodd" clip-rule="evenodd" d="M1128 245.959C1128 245.959 1099.04 335.799 1089.04 368.759L1076.08 338.839C1087.04 304.119 1105.84 246.599 1106.08 245.879H1128.08L1128 245.959ZM1089.04 368.919C1088.32 369.719 1087.92 370.759 1088.08 371.879C1082.08 390.839 1055.12 432.839 1009.2 432.839V411.959C1035.2 411.959 1059.12 390.999 1066.16 370.039L1011.2 246.119H1035.12L1071.04 326.999V327.959L1076 338.919L1088.96 368.919H1089.04ZM797.357 354.919C773.357 354.919 754.397 335.959 754.397 310.999C754.237 287.479 773.117 268.199 796.717 268.039H797.357C821.357 268.039 841.277 286.999 841.277 310.999C841.437 335.159 821.997 354.839 797.837 354.919C797.677 354.919 797.517 354.919 797.277 354.919M732.397 310.999C732.397 346.999 761.357 376.919 797.277 376.919C833.597 376.599 862.877 347.239 863.197 310.999C863.197 275.079 833.197 246.119 797.277 246.119C761.517 246.119 732.397 274.999 732.397 310.839V311.079M621.517 355.079H602.477C598.557 355.079 594.877 353.239 592.557 350.039C589.917 346.199 588.477 341.719 588.557 337.079V268.199H621.517V246.199H588.557V188.039L567.517 201.959V245.879H546.557V267.799H567.517V336.759C567.517 348.759 570.477 357.719 576.477 363.719C584.477 372.679 595.437 376.679 602.477 376.679H621.437V354.679L621.517 355.079ZM993.196 311.079C993.356 335.239 973.916 354.919 949.756 354.999C949.596 354.999 949.436 354.999 949.276 354.999C941.516 354.999 933.996 352.999 927.276 349.079L916.316 368.039C926.236 374.039 937.676 377.159 949.276 376.999C985.276 376.999 1014.24 346.999 1014.24 311.079C1014.24 275.319 985.356 246.199 949.516 246.119H949.276C933.036 245.959 917.276 252.039 905.356 263.079V246.039H883.356L884.316 432.839H905.276V312.599C905.276 289.159 924.476 268.759 947.836 268.039C972.396 267.319 993.196 286.519 993.196 310.999M540.637 354.999H520.637C517.037 354.839 513.677 352.999 511.597 350.039C508.637 347.079 507.597 343.079 507.597 337.079V188.039L485.677 202.039V336.919C485.677 348.919 489.677 357.879 494.637 363.879C502.637 372.839 513.597 376.839 520.637 376.839H540.637V354.839V354.999ZM463.597 274.039C451.917 257.559 433.357 247.319 413.197 246.199C373.037 244.039 341.837 276.039 344.877 316.119C347.437 349.799 375.357 376.919 409.597 376.919C438.557 376.919 463.517 356.919 471.597 330.999H448.557C441.117 345.639 426.077 354.919 409.597 354.919C396.957 354.839 385.037 349.399 376.637 339.959C371.917 334.039 368.557 327.239 366.637 319.959C366.637 316.999 365.677 313.959 365.677 310.919C365.677 286.919 385.677 267.959 409.597 267.959C422.797 267.799 435.277 273.639 443.517 283.959L379.597 313.879C380.637 320.839 384.637 327.879 388.557 333.879L452.477 302.919L472.477 293.959C470.557 286.919 467.517 280.119 463.517 273.959M724.317 266.999C702.317 266.999 690.397 273.959 683.357 281.959C676.397 290.999 675.357 301.959 675.357 310.919V376.839H653.357V245.959H675.357V259.879C686.317 250.919 701.277 245.879 724.237 245.879V266.839L724.317 266.999Z" fill="white"/>
</g>
</g>
<defs>
<clipPath id="clip0_9753_123">
<rect width="1056" height="280" fill="white" transform="translate(72 170)"/>
</clipPath>
</defs>
</svg>
