<svg width="1113" height="200" viewBox="0 0 1113 200" fill="none" xmlns="http://www.w3.org/2000/svg">
<g clip-path="url(#clip0_9701_3269)">
<path d="M112.05 53.0229L129.895 5.07177C123.185 2.7122 116.25 1.20227 109.253 0.532016V26.0736H92.8017V0.512085C85.7312 1.16987 78.7213 2.68727 71.9375 5.07177L89.784 53.0229C93.597 63.2689 108.236 63.2689 112.05 53.0229Z" fill="white"/>
<path d="M188.919 53.0381L142.046 74.4537C132.031 79.0282 121.681 68.7827 126.302 58.8684L147.936 12.4694C154.435 15.5316 160.476 19.3662 165.945 23.8486L147.684 41.9254L159.318 53.4417L177.564 35.3798C182.032 40.7493 185.858 46.6719 188.919 53.0381Z" fill="white"/>
<path d="M196.394 128.267L147.954 110.602H147.956C137.606 106.827 137.606 92.3353 147.956 88.5603L196.397 70.8945C198.806 77.6099 200.338 84.5488 201.003 91.5478H175.178V107.833H200.98C200.303 114.757 198.778 121.622 196.394 128.267Z" fill="white"/>
<path d="M147.936 186.697L126.302 140.298C121.681 130.383 132.031 120.138 142.046 124.712L188.919 146.128C185.825 152.561 181.952 158.542 177.423 163.956L159.162 145.879L147.528 157.395L165.775 175.457C160.35 179.879 154.367 183.667 147.936 186.697Z" fill="white"/>
<path d="M89.784 146.142L71.9375 194.093C78.6508 196.453 85.585 197.963 92.5798 198.633V173.092H109.031V198.656C116.102 197.998 123.112 196.48 129.895 194.096L112.05 146.145C108.236 135.899 93.597 135.899 89.784 146.145V146.142Z" fill="white"/>
<path d="M53.8968 12.4694L75.5308 58.8684C80.1522 68.7827 69.8018 79.0282 59.7866 74.4537L12.9141 53.0381C16.0075 46.6047 19.8813 40.6247 24.4094 35.2104L42.6707 53.2872L54.3047 41.771L36.0583 23.709C41.4826 19.2864 47.4655 15.4992 53.8968 12.4694Z" fill="white"/>
<path d="M5.44115 70.8945L53.8819 88.5629C64.2318 92.3379 64.2318 106.829 53.8819 110.604L5.44115 128.269C3.03234 121.555 1.49947 114.615 0.834961 107.616H26.6573V91.3311H0.855102C1.53219 84.4042 3.05752 77.54 5.44115 70.8945Z" fill="white"/>
<path d="M12.9141 146.128L59.7866 124.712C69.8018 120.138 80.1522 130.383 75.5308 140.298L53.8968 186.697C47.3978 183.634 41.3567 179.8 35.8872 175.317L54.1485 157.241L42.5146 145.724L24.2684 163.786C19.8007 158.417 15.9748 152.494 12.9141 146.128Z" fill="white"/>
<path d="M249.888 32.3495V163.92H271.161V108.664H329.323V89.7306H271.161V51.8628H332.057V32.3495H249.888ZM903.352 111.562C903.352 143.248 924.428 166.818 956.047 166.818C977.906 166.818 994.303 155.806 1003.09 136.292L984.935 128.371C979.467 140.736 969.713 148.657 956.047 148.657C935.749 148.657 923.065 132.235 923.065 111.562C923.065 90.6966 935.942 74.6606 956.047 74.6606C969.514 74.6606 979.274 82.3891 984.935 94.5603L1002.89 86.446C994.104 67.3191 977.713 56.4998 956.047 56.4998C924.428 56.4998 903.352 79.8773 903.352 111.562ZM1009.51 111.949C1009.51 143.634 1030.6 166.818 1062.02 166.818C1082.9 166.818 1099.88 157.737 1109.25 138.997L1092.46 130.689C1086.41 142.668 1076.07 149.043 1062.8 149.043C1043.86 149.043 1031.18 135.713 1029.03 117.165H1111.2C1111.59 114.267 1111.79 111.756 1111.79 108.857C1111.79 77.1724 1094.03 56.4998 1062.21 56.4998C1030.79 56.4998 1009.51 80.07 1009.51 111.949ZM1093.05 101.323H1029.81C1033.52 85.4799 1045.23 74.2742 1062.21 74.2742C1080.17 74.2742 1090.7 84.9003 1093.05 101.323ZM800.491 163.92V59.5912H820.595C820.595 66.353 820.595 70.024 820.397 76.3995H820.788C827.034 64.6141 838.94 57.0794 853.775 57.0794C879.342 57.0794 892.418 75.047 892.418 97.8449V163.92H872.318V103.062C872.318 86.8324 863.728 75.2402 846.945 75.2402C829.77 75.2402 820.595 88.5713 820.595 104.027V163.92H800.491ZM682.068 112.142C682.068 143.634 702.167 166.625 730.47 166.625C745.3 166.625 758.768 159.283 766.188 147.304H766.574C766.381 154.067 766.381 156.772 766.381 163.92H786.486V59.5912H766.381C766.381 66.7395 766.381 70.6032 766.574 76.5927H766.188C759.159 63.8413 746.668 57.2726 730.47 57.2726C702.757 57.2726 682.068 80.8428 682.068 112.142ZM767.164 111.949C767.164 133.781 754.282 148.464 734.371 148.464C715.049 148.464 702.167 132.815 702.167 112.142C702.167 91.469 715.049 75.4335 734.371 75.4335C754.083 75.4335 767.164 90.5034 767.164 111.949ZM519.55 163.92V59.5912H539.65C539.65 66.7395 539.65 69.6371 539.457 76.3995H539.849C546.287 64.2277 557.217 57.0794 571.269 57.0794C586.689 57.0794 596.449 65.0006 601.133 76.2063H601.52C607.963 64.0345 619.676 57.0794 634.313 57.0794C660.271 57.0794 671.003 75.4335 671.003 97.8449V163.92H650.903V102.096C650.903 86.2528 643.29 75.047 628.653 75.047C613.426 75.047 605.426 86.2528 605.426 102.096V163.92H585.326V102.096C585.326 86.2528 577.321 75.047 563.462 75.047C549.018 75.047 539.65 88.1849 539.65 102.868V163.92H519.55ZM457.033 59.5912V163.92H477.136V107.698C477.136 91.2763 486.503 77.752 504.461 77.752H511.681V59.5912C509.73 59.3979 507.779 59.3979 506.021 59.3979C493.531 59.3979 483.185 65.387 477.136 76.9791H476.94C477.136 70.41 477.136 66.353 477.136 59.5912H457.033ZM392.465 166.818C360.846 166.818 338.988 143.054 338.988 111.562C338.988 80.07 360.846 56.693 392.465 56.693C423.889 56.693 445.749 80.07 445.749 111.562C445.749 142.861 423.889 166.818 392.465 166.818ZM392.465 148.657C412.374 148.657 425.255 131.849 425.255 111.562C425.255 91.0831 412.568 74.6606 392.465 74.6606C372.168 74.6606 359.286 91.0831 359.286 111.562C359.286 131.849 372.168 148.657 392.465 148.657Z" fill="white"/>
</g>
<defs>
<clipPath id="clip0_9701_3269">
<rect width="1112.27" height="200" fill="white"/>
</clipPath>
</defs>
</svg>
