<svg xmlns="http://www.w3.org/2000/svg" fill="none" viewBox="0 0 1113 200">
    <g fill="#fff" clip-path="url(#a)">
        <path d="M112 53 130 5A87 87 0 0 0 109.3.6v25.6H92.8V.5a87 87 0 0 0-20.9 4.6l17.9 48a12 12 0 0 0 22.3 0m76.8 0L142 74.4c-10 4.5-20.3-5.7-15.7-15.6l21.6-46.4a87 87 0 0 1 18 11.3L147.7 42l11.6 11.5 18.3-18A86 86 0 0 1 188.9 53m7.5 75.3L148 110.6a11.7 11.7 0 0 1 0-22l48.4-17.7a85 85 0 0 1 4.6 20.6h-25.8v16.3H201a85 85 0 0 1-4.6 20.5m-48.5 58.4-21.6-46.4c-4.6-10 5.7-20.2 15.7-15.6l47 21.4a86 86 0 0 1-11.6 17.9l-18.2-18.1-11.7 11.5 18.3 18a87 87 0 0 1-17.9 11.3m-58.1-40.6-17.9 48a87 87 0 0 0 20.7 4.5v-25.5H109v25.6A87 87 0 0 0 130 194l-17.8-48a12 12 0 0 0-22.3 0M53.9 12.5l21.6 46.4c4.7 9.9-5.7 20.1-15.7 15.6L12.9 53a86 86 0 0 1 11.5-17.8l18.3 18 11.6-11.4-18.2-18a87 87 0 0 1 17.8-11.3M5.4 70.9 54 88.6a11.7 11.7 0 0 1 0 22L5.4 128.3a85 85 0 0 1-4.6-20.7h25.9V91.3H.9A85 85 0 0 1 5.4 71M13 146l46.9-21.4c10-4.6 20.4 5.7 15.7 15.6L54 186.7a87 87 0 0 1-18-11.4l18.2-18-11.6-11.6-18.2 18a86 86 0 0 1-11.4-17.6M250 32.4v131.5h21.3v-55.2h58.1v-19h-58.1V52H332V32.4zm653.5 79.2c0 31.6 21 55.2 52.6 55.2a49 49 0 0 0 47-30.5l-18-8c-5.5 12.4-15.3 20.4-29 20.4-20.3 0-33-16.5-33-37.1 0-20.9 13-37 33-37 13.5 0 23.3 7.8 29 20l17.9-8.2A49 49 0 0 0 956 56.5c-31.6 0-52.6 23.4-52.6 55m106.1.4c0 31.7 21.1 55 52.5 55 20.9 0 37.9-9.2 47.2-27.9l-16.7-8.3c-6 12-16.4 18.3-29.7 18.3-19 0-31.6-13.3-33.8-31.8h82.2c.4-3 .6-5.4.6-8.3 0-31.7-17.8-52.4-49.6-52.4-31.4 0-52.7 23.6-52.7 55.4m83.6-10.6h-63.3c3.7-15.8 15.4-27 32.4-27 18 0 28.5 10.6 30.8 27M800.6 164V59.6h20c.1 6.8.1 10.4-.1 16.8h.4a36 36 0 0 1 33-19.3c25.5 0 38.6 18 38.6 40.7V164h-20v-60.8c0-16.3-8.7-27.9-25.5-27.9-17.1 0-26.3 13.4-26.3 28.8v60zM682 112.1c0 31.5 20 54.5 48.4 54.5 14.8 0 28.3-7.3 35.7-19.3h.4c-.2 6.8-.2 9.5-.2 16.6h20V59.6h-20c0 7.1 0 11 .2 17h-.4c-7-12.8-19.5-19.3-35.7-19.3-27.7 0-48.4 23.5-48.4 54.8m85-.2c0 21.9-12.8 36.6-32.7 36.6-19.4 0-32.2-15.7-32.2-36.4s12.8-36.7 32.2-36.7c19.7 0 32.8 15.1 32.8 36.5m-247.7 52V59.6h20.1l-.1 16.8h.3a34 34 0 0 1 31.5-19.3c15.4 0 25.1 7.9 29.8 19.1h.4a36 36 0 0 1 32.8-19.1c26 0 36.7 18.3 36.7 40.7V164h-20.1v-61.8c0-15.8-7.6-27-22.2-27-15.3 0-23.3 11.2-23.3 27v61.8h-20v-61.8c0-15.8-8-27-22-27-14.4 0-23.8 13-23.8 27.8v61zM457 59.6v104.3h20.1v-56.2c0-16.4 9.4-30 27.4-30h7.2V59.7q-3-.3-5.7-.2c-12.5 0-22.8 6-28.9 17.6h-.2c.2-6.6.2-10.6.2-17.4zm-64.5 107.2c-31.7 0-53.5-23.7-53.5-55.2s21.8-55 53.5-55c31.4 0 53.2 23.5 53.2 55 0 31.3-21.8 55.2-53.2 55.2m0-18.1c19.9 0 32.8-16.9 32.8-37.1 0-20.5-12.7-37-32.8-37-20.3 0-33.2 16.5-33.2 37 0 20.2 12.9 37 33.2 37"/>
    </g>
    <defs>
        <clipPath id="a">
            <path fill="#fff" d="M0 0h1112.3v200H0z"/>
        </clipPath>
    </defs>
</svg>