<svg xmlns="http://www.w3.org/2000/svg" fill="none" viewBox="0 0 110 28">
    <g clip-path="url(#a)">
        <path fill="#fff" d="M106.3 5.4h-3.8v12q0 2.6 1.3 3.7 1.2 1.2 3.7 1.2h2.4v-3.4H108q-.9 0-1.3-.4a2 2 0 0 1-.4-1.3v-5h3.6V8.8h-3.6zm-5.5 3.4v3.4H99q-1.2 0-2 .9-.7.8-.7 2.2v7h-4V8.8h4v1.6a4 4 0 0 1 3.1-1.6zM66.4 22.3 61.2 8.8h4.3l3 8.6 3-8.6h4.1l-5.2 13.5zm-12.3.3a7 7 0 0 1-7.2-7q0-1.6.6-2.8.5-1.3 1.5-2.3a7 7 0 0 1 5-2 7.2 7.2 0 0 1 6.2 3.5q1 1.5 1 3.5a7 7 0 0 1-2 5.1 7 7 0 0 1-5.1 2m0-3.5q.7 0 1.3-.3t1-.7q.6-.5.8-1.1l.3-1.5q0-.9-.5-1.8t-1.2-1.2Q55 12 54 12t-1.4.3l-1 .7q-.5.6-.8 1.2l-.2 1.3q0 1 .4 1.9t1.2 1.2q.8.5 1.8.5M35.8 5.4h4v13h6.3v3.9H35.8zm46.5 17.2a7 7 0 0 1-5.8-3.4q-.9-1.5-.9-3.6 0-1.6.5-2.8.5-1.3 1.4-2.3A6 6 0 0 1 79.6 9a7 7 0 0 1 4.8-.1q1 .3 1.8 1.1V8.8h3.6v13.5h-3.6V21l-1.8 1.1zm.5-3.6q1 0 1.7-.4.8-.4 1.2-1.2.5-.8.5-1.9a3 3 0 0 0-1.7-3 3 3 0 0 0-1.7-.4q-.8 0-1.4.2-.7.3-1 .8l-.8 1.1q-.3.7-.3 1.4 0 1 .5 1.7.5.9 1.2 1.3.8.4 1.8.4M14 0a14 14 0 1 1 0 28 14 14 0 0 1 0-28m-2.7 21h5.4v-2h-3.3v-6.7h-2zM20 8.7a4 4 0 0 0-3.7 5.4 4 4 0 0 0 3.7 2.4 4 4 0 1 0 0-7.8m-1.5 2.5a2 2 0 1 1 2.9 2.8 2 2 0 0 1-2.9-2.8m-13.9 3h4.7v-2.2H4.6z"/>
    </g>
    <defs>
        <clipPath id="a">
            <path fill="#fff" d="M0 0h110v28H0z"/>
        </clipPath>
    </defs>
</svg>