<svg width="1148" height="280" viewBox="0 0 1148 280" fill="none" xmlns="http://www.w3.org/2000/svg">
<path fill-rule="evenodd" clip-rule="evenodd" d="M271.96 85.1697C286.581 118.433 286.581 162.298 271.96 195.561C264.649 212.815 254.634 227.436 242.059 240.083C229.412 252.731 214.79 262.016 197.464 269.326C163.615 283.29 119.751 283.29 85.8293 269.326C69.234 262.747 53.8815 252.731 41.3071 240.083C28.6596 227.436 18.644 212.815 11.3332 195.561C-3.28817 162.298 -3.28817 118.433 11.3332 85.1697C18.644 67.9164 28.6596 53.295 41.3071 40.6475C54.5395 27.9999 69.234 18.7153 85.8293 11.4046C103.083 4.02082 121.725 0.731006 141.683 0.731006C180.211 0.0730429 216.106 14.6945 242.717 40.6475C256.023 53.295 265.965 67.9164 271.96 85.1697ZM233.359 65.8694C231.385 61.2636 229.412 57.2428 226.049 53.9529C222.759 51.248 218.738 48.6161 214.79 46.6422C206.821 43.2793 195.49 43.2793 186.863 46.6422C182.184 47.9582 178.895 50.59 175.532 53.9529C172.242 57.2428 170.268 61.2636 168.221 65.8694C164.931 75.2271 164.931 87.1435 168.221 95.8433C169.537 100.449 172.242 104.47 175.532 107.76C178.895 111.123 182.842 113.755 186.863 115.728C189.495 117.117 192.858 117.775 195.49 118.433C196.806 118.433 197.464 119.091 198.122 120.407C200.169 126.402 201.485 133.055 201.485 139.708C201.485 141.023 200.169 142.339 198.122 142.339C191.542 141.681 184.889 140.365 178.237 137.734C171.584 135.029 164.931 130.423 159.594 125.086C154.258 119.749 149.652 113.097 146.947 105.786C142.999 95.1853 141.683 82.5378 143.657 70.5482C133.641 70.5482 123.041 71.8642 114.414 75.8851C105.788 79.1749 98.4769 84.5117 91.8241 90.5065C85.1714 96.5012 79.8345 103.812 76.5447 112.439C69.234 129.034 69.234 151.039 76.5447 167.634C80.4925 175.603 85.1714 183.572 91.8241 189.567C98.4769 195.561 105.788 200.898 114.414 204.188C131.009 211.499 153.6 211.499 170.268 204.188C178.895 200.898 186.205 195.561 192.858 189.567C199.511 183.572 204.775 176.261 208.137 167.634C215.448 151.039 215.448 129.034 208.137 112.439C204.117 104.47 199.511 96.5012 192.858 90.5065C188.837 86.4856 184.231 83.1958 179.553 80.4908C178.895 80.4908 178.237 79.1749 178.237 77.8589C178.237 75.8851 178.895 73.8381 179.553 71.8642C180.211 68.5744 182.184 65.8694 184.231 63.8955C185.547 62.5796 187.521 61.2636 188.837 60.6057C190.153 59.8746 191.542 59.8746 192.2 60.6057C198.122 64.5535 204.117 68.5743 209.453 73.8381C218.08 82.5134 224.733 92.5047 229.412 103.812C229.412 104.47 230.07 104.47 230.07 105.128C231.385 102.447 232.701 99.7911 234.017 97.1592C237.38 88.5326 237.38 76.543 233.359 65.8694Z" fill="#46B555"/>
<path fill-rule="evenodd" clip-rule="evenodd" d="M479.365 113.097C482.655 121.723 484.629 131.081 484.629 141.023C484.629 151.039 482.655 160.324 479.365 168.95C475.344 177.577 470.665 184.888 464.013 190.882C457.433 196.877 450.122 202.214 441.422 205.504C432.796 208.867 423.511 210.841 413.496 210.841C403.553 210.841 394.268 208.867 385.642 205.504C376.942 202.214 369.631 196.877 362.979 190.882C356.326 184.888 351.062 177.577 347.699 168.95C344.409 160.324 342.436 151.039 342.436 141.023C342.436 131.081 344.409 121.723 347.699 113.097C351.72 104.47 356.326 97.1592 362.979 91.1644C369.631 85.1696 376.942 79.8328 385.642 76.543C394.268 73.1801 403.553 71.2062 413.496 71.2062C423.511 71.2062 432.796 73.1801 441.422 76.543C450.122 79.8328 457.433 85.1696 464.013 91.1644C470.007 97.1592 475.344 104.47 479.365 113.097ZM460.065 141.023C460.065 133.713 459.407 127.06 456.702 121.065C454.07 115.07 450.78 109.807 446.759 105.786C442.812 101.765 438.133 98.4751 432.138 95.8433C426.143 93.7963 420.148 92.4803 413.496 92.4803C406.916 92.4803 400.921 93.1383 394.926 95.8433C389.59 97.8171 384.253 101.765 380.305 105.786C375.626 109.807 372.336 115.07 370.289 121.065C368.315 127.718 367 133.713 367 141.023C367 147.676 368.315 154.329 370.289 160.324C372.994 166.318 376.284 171.582 380.305 175.603C384.253 179.624 388.932 182.914 394.926 185.546C400.921 188.251 406.916 189.566 413.496 189.566C420.148 189.566 426.143 188.251 432.138 185.546C437.475 183.572 442.812 179.624 446.759 175.603C451.438 171.582 454.07 166.318 456.702 160.324C458.749 154.329 460.065 147.676 460.065 141.023Z" fill="white"/>
<path d="M656.797 128.376C658.844 133.055 660.159 138.392 660.159 144.386V206.893H638.227V152.355C638.227 142.997 636.18 137.076 632.233 133.055C628.236 129.058 622.924 127.06 616.295 127.06C609.642 127.06 604.306 129.692 599.627 133.713C595.021 137.734 592.974 145.044 592.974 154.329V206.893H571.042V153.671C571.042 144.386 569.068 137.076 564.389 133.055C559.783 128.376 554.447 126.402 547.794 126.402C541.166 126.402 535.853 128.4 531.857 132.397C527.836 136.345 525.862 142.997 525.862 151.697V206.893H503.93V144.386C503.93 138.392 505.246 133.055 507.22 128.376C509.924 123.77 512.556 120.407 516.577 117.117C520.525 113.755 524.546 111.123 529.883 109.807C534.488 107.76 540.483 107.102 546.478 107.102C554.447 107.102 561.757 109.149 567.752 111.781C574.405 115.07 579.011 119.091 583.032 125.086C586.321 119.091 591.658 114.413 597.653 111.781C604.306 108.418 610.958 107.102 618.927 107.102C624.922 107.102 630.259 107.76 635.522 109.807C640.859 111.123 644.88 113.097 648.828 116.46C652.824 119.774 655.481 123.746 656.797 128.376Z" fill="white"/>
<path d="M774.498 131.081C776.472 136.345 777.788 141.681 777.788 148.334V206.893H755.856V153.671C755.856 145.044 753.224 138.392 749.203 133.713C745.255 129.034 738.602 127.06 730.634 127.06C722.592 127.06 716.012 129.034 711.991 133.713C707.995 138.392 705.997 145.044 705.997 153.671V206.893H684.064V148.334C684.064 141.681 684.722 136.345 687.427 131.081C690.059 126.402 693.349 121.723 697.37 118.433C701.318 115.07 705.997 112.439 711.991 110.465C717.328 108.418 723.981 107.76 730.634 107.76C737.213 107.76 743.208 108.418 749.203 110.465C755.198 112.439 760.534 115.07 764.482 118.433C768.503 121.723 771.793 125.744 774.498 131.081Z" fill="white"/>
<path d="M817.705 110.465C819.679 111.123 820.995 111.781 821.653 111.781V206.893H799.721V120.407C799.721 116.46 801.037 113.755 803.084 112.439C805.057 110.465 807.689 109.807 811.71 109.807C813.684 109.807 816.316 110.465 817.705 110.465Z" fill="white"/>
<path d="M820.994 69.8904C823.626 72.5222 824.357 76.5431 824.357 79.8329C824.357 83.1959 823.626 87.1437 820.994 89.8486C819.02 91.8225 815.657 93.1384 811.052 93.1384C806.373 93.1384 803.083 92.4805 801.036 89.8486C798.404 87.1437 797.746 83.1959 797.746 79.8329C797.746 76.5431 798.404 72.5222 801.036 69.8904C803.083 67.9165 806.373 66.5275 811.052 66.5275C814.999 66.5275 818.362 67.9165 820.994 69.8904Z" fill="white"/>
<path d="M922.027 181.598L931.312 198.193C929.338 199.509 927.364 200.24 925.39 201.556C922.685 202.872 920.054 204.188 917.422 204.846C914.059 206.162 911.427 206.893 907.406 207.551C903.458 208.209 899.437 208.209 894.758 208.209C887.448 208.209 880.137 206.893 874.215 204.846C868.221 202.214 862.226 198.851 857.547 194.903C852.941 190.225 848.92 184.888 846.288 178.966C843.608 172.289 842.268 164.954 842.268 156.961C842.268 149.017 843.608 141.706 846.288 135.029C848.92 129.034 852.941 123.77 857.547 119.091C862.226 114.413 867.563 111.123 874.215 109.149C880.795 107.102 888.106 105.786 895.416 105.786C901.411 105.786 906.748 105.786 911.427 107.102C915.375 108.418 919.395 109.807 922.027 111.123C924.732 112.439 926.706 114.413 928.022 116.46C929.338 118.409 929.996 120.383 929.996 122.381C929.996 125.086 929.338 127.718 927.364 129.692C926.048 132.397 924.001 133.713 922.685 135.029C920.687 133.03 917.373 131.032 912.743 129.034C908.722 127.06 903.458 125.744 896.805 125.744C892.809 125.744 888.812 126.402 884.816 127.718C880.819 129.034 877.505 131.032 874.873 133.713C872.168 136.345 869.537 139.708 868.221 143.655C866.174 147.676 865.516 152.355 865.516 157.619C865.516 163.614 866.174 168.292 868.221 172.313C869.537 176.261 872.168 179.624 874.873 182.256C877.505 184.936 880.819 186.935 884.816 188.251C888.837 189.567 892.785 190.225 897.463 190.225C903.458 190.225 908.722 189.567 912.743 187.593C916.691 185.546 919.395 184.23 922.027 181.598Z" fill="white"/>
<path fill-rule="evenodd" clip-rule="evenodd" d="M1029.06 128.376C1031.03 132.397 1031.69 136.345 1031.69 141.023C1031.69 145.044 1031.03 148.992 1029.06 153.013C1027.74 156.303 1024.38 159.666 1020.43 162.298C1015.75 165.003 1010.41 166.976 1003.1 168.292C995.792 169.608 987.166 170.266 975.907 170.266C973.202 170.266 970.57 170.266 968.596 170.266C966.549 170.266 963.918 170.266 961.286 170.266C961.944 176.919 965.234 182.256 970.57 186.277C975.907 190.225 983.218 192.198 993.16 192.198C996.523 192.198 999.813 192.198 1002.44 191.54C1005.15 190.882 1007.78 190.225 1009.76 189.567C1012.44 188.884 1014.43 188.226 1015.75 187.593C1017.07 186.277 1018.46 186.277 1019.11 185.546L1027.08 200.898C1026.42 201.556 1024.38 202.214 1022.4 203.53C1020.43 204.846 1017.8 205.504 1014.43 206.893C1011.14 207.551 1007.12 208.867 1003.1 209.525C999.155 210.183 994.476 210.841 989.213 210.841C982.56 210.841 975.249 209.525 969.254 207.551C962.602 204.846 957.265 201.556 952.586 197.535C947.98 192.929 943.959 187.593 941.328 181.598C938.623 175.603 937.307 168.292 937.307 160.324C937.307 152.355 938.623 145.702 941.328 139.05C943.959 132.397 947.98 127.06 952.586 122.381C957.265 117.775 962.602 114.413 969.254 111.781C975.907 109.149 983.218 107.76 990.529 107.76C997.181 107.76 1003.1 108.418 1008.44 110.465C1013.78 111.781 1018.46 114.413 1021.75 117.117C1025.11 119.749 1027.74 123.112 1029.06 128.376ZM1011.8 139.05C1011.8 133.713 1009.76 130.423 1005.81 127.718C1001.79 125.086 997.181 123.77 991.187 123.77C986.508 123.77 981.902 124.428 978.539 126.402C974.518 127.718 971.886 130.423 969.254 133.055C966.55 135.687 964.576 139.05 963.26 142.339C961.944 146.36 961.286 149.65 961.286 153.671C964.576 153.671 967.207 153.671 969.912 153.671C972.544 153.671 975.2 153.671 977.881 153.671C985.192 153.671 990.529 153.013 995.134 152.355C999.155 151.697 1002.45 150.308 1005.15 148.992C1007.12 147.676 1009.1 146.36 1009.76 144.386C1010.41 142.997 1011.14 141.023 1011.8 139.05Z" fill="white"/>
<path d="M1069.63 65.2115C1071.6 65.8695 1072.92 66.5275 1073.58 66.5275V206.893H1051.65V75.2272C1051.65 71.2063 1052.96 69.2324 1055.01 67.2585C1056.98 65.2116 1059.62 64.5536 1063.64 64.5536C1065.61 64.5536 1067.58 64.5536 1069.63 65.2115Z" fill="white"/>
<path d="M1115.47 66.5275V206.893H1093.54V75.2272C1093.54 71.2063 1094.85 69.2324 1096.9 67.2585C1098.87 65.2116 1101.51 64.5536 1105.53 64.5536C1108.16 64.5536 1110.13 64.5536 1112.18 65.2115C1114.15 65.8695 1115.47 66.5275 1115.47 66.5275Z" fill="white"/>
</svg>
