<svg width="1400" height="620" viewBox="0 0 1400 620" fill="none" xmlns="http://www.w3.org/2000/svg">
<g clip-path="url(#clip0_9753_182)">
<path d="M202.785 252.645L239.98 252.619C248.246 252.618 257.01 252.466 265.241 252.683C269.852 260.582 271.125 265.612 274.443 273.626L230.414 273.675C223.932 273.678 215.545 273.912 209.209 273.533C208.899 272.561 208.559 271.598 208.19 270.646C204.472 270.387 199.985 270.481 196.22 270.479L177.831 270.476L120.223 270.479C116.943 270.478 113.595 270.442 110.325 270.558L111.45 266.467C108.085 266.092 102.473 266.244 98.9028 266.245L77.5524 266.247L58.1484 266.239C55.1158 266.238 49.9658 266.092 47.123 266.457C48.0482 264.535 48.9636 262.067 49.9249 259.98C57.699 259.682 66.689 259.896 74.5348 259.896L113.35 259.945C113.723 258.738 114.122 257.048 114.918 256.148C116.238 255.354 157.427 255.792 162.612 255.722C175.51 255.549 190.836 255.922 203.952 255.67C203.546 254.756 203.144 253.597 202.785 252.645Z" fill="white"/>
<path d="M209.674 346.51C212.557 346.267 216.382 346.35 219.33 346.351L234.001 346.35C247.281 346.346 261.132 346.149 274.373 346.454C271.26 353.739 269.395 360.463 265.158 367.494C252.357 367.121 238.534 367.364 225.687 367.361L211.756 367.36C208.939 367.359 205.363 367.246 202.642 367.546L203.92 364.425C174.289 363.99 144.278 364.784 114.764 364.26C114.425 363.503 113.737 361.223 113.444 360.333C110.704 360.265 107.923 360.217 105.183 360.253C86.8159 360.491 68.2701 359.895 49.92 360.333C49.0029 358.2 48.1264 355.917 47.2363 353.757L88.9701 353.764C95.8312 353.764 104.83 354.037 111.495 353.645C111.102 352.655 110.625 350.901 110.301 349.822C118.898 349.362 130.163 349.667 138.93 349.667L183.42 349.67C191.523 349.671 199.99 349.792 208.069 349.627C208.413 348.513 208.701 347.13 209.674 346.51Z" fill="white"/>
<path d="M186.674 221.326L218.479 221.312C225.37 221.308 233.527 221.102 240.34 221.411C244.972 224.081 255.591 237.783 259.004 242.404C253.514 241.964 243.81 242.249 237.994 242.248L198.408 242.296C197.883 241.337 197.4 240.273 196.926 239.28C189.665 239.056 181.97 239.18 174.683 239.179L137.112 239.185L121.727 239.157C122.496 238.009 123.308 236.185 123.927 234.893C110.41 235.234 96.3482 234.699 82.7953 234.912C79.068 234.97 68.6371 234.62 65.4277 235.199C66.912 233.142 69.1375 230.374 70.9913 228.671C76.1124 228.351 84.4675 228.613 89.8493 228.616L127.523 228.59C128.268 227.149 129.156 225.827 130.034 224.464C131.949 224.255 135.362 224.323 137.373 224.323L149.328 224.326L188.526 224.352C187.899 223.249 187.374 222.388 186.674 221.326Z" fill="white"/>
<path d="M198.439 377.835C202.312 377.579 208.101 377.747 212.114 377.748L241.887 377.767C247.039 377.772 253.962 377.964 258.935 377.635C254.697 383.634 246.321 394.111 240.576 398.622C237.603 398.897 231.624 398.714 228.464 398.712L201.688 398.693C197.366 398.691 190.766 398.497 186.615 398.868C187.297 397.881 188.014 396.646 188.651 395.609C186.295 395.753 182.635 395.629 180.17 395.63L163.439 395.639L142.333 395.644C140.509 395.644 130.889 395.903 129.775 395.23C129.088 394.036 128.323 392.875 127.577 391.715C124.152 391.349 115.455 391.576 111.797 391.576L86.0498 391.593C81.2212 391.601 75.7801 391.725 70.9985 391.545C69.5303 390.109 66.7661 386.597 65.627 384.935C69.4783 385.342 79.9118 385.078 84.2372 385.074L123.911 385.08C123.23 383.655 122.679 382.587 121.885 381.222C125.739 380.961 130.375 381.054 134.29 381.056L152.636 381.054C166.985 381.051 182.504 380.736 196.688 381.136C197.24 380.019 197.824 378.919 198.439 377.835Z" fill="white"/>
<path d="M211.288 283.955C232.787 283.634 255.6 283.724 277.125 283.94C278.063 288.056 278.598 292.222 279.136 296.403C279.325 297.866 279.478 299.33 279.89 300.752V304.778C278.587 305.039 274.75 304.981 273.243 304.979L261.872 304.964C246.197 304.963 228.857 304.574 213.352 305.102C213.219 303.939 213 303.001 212.748 301.866C206.643 301.312 196.94 301.584 190.608 301.586L151.988 301.584L121.519 301.584C117.643 301.585 109.226 301.377 105.656 301.803L105.929 297.762C83.8644 297.343 61.3809 298.073 39.4375 297.552C39.8254 295.607 40.0937 293.121 40.3639 291.122C48.0849 290.741 57.8644 291.005 65.6893 291.004L106.469 291.062C106.625 289.797 106.863 288.403 107.053 287.131C113.971 286.797 123.674 287.086 130.781 287.087L182.953 287.095C192.016 287.097 202.785 287.368 211.686 286.977C211.51 286.046 211.403 284.91 211.288 283.955Z" fill="white"/>
<path d="M213.258 315.139C218.169 314.839 224.118 314.985 229.121 314.986L256.018 314.998L270.418 314.967C272.605 314.962 277.927 314.84 279.889 315.283V319.518C279.627 320.435 279.478 321.255 279.367 322.199C278.802 326.954 278.102 331.535 277.127 336.22C273.431 335.936 268.516 336.068 264.702 336.069L243.928 336.07L223.836 336.065C220.017 336.065 215.111 335.934 211.376 336.262L211.493 333.232C205.731 332.794 199.906 332.922 194.124 332.92L169.399 332.917C148.956 332.918 127.316 332.553 107.005 333.015C106.817 331.736 106.678 330.284 106.524 328.987C91.3706 329.153 76.0035 328.798 60.831 328.957C54.0926 329.027 47.1099 328.803 40.4008 329.063C40.1581 327.051 39.9223 324.451 39.3984 322.543C46.7065 322.164 55.8792 322.393 63.3391 322.393L105.97 322.413C105.794 321.174 105.763 319.64 105.703 318.369C111.696 318.537 118.328 318.409 124.372 318.409L158.858 318.406L192.647 318.401C199.264 318.4 206.299 318.509 212.887 318.313L213.258 315.139Z" fill="white"/>
<path d="M150.222 190H167.187C168.757 190.488 172.66 190.836 174.443 191.047C177.54 191.397 180.625 191.857 183.69 192.424C198.888 195.208 214.999 202.312 227.561 211.203C224.422 210.704 216.925 210.898 213.509 210.9L191.897 210.932C187.87 210.945 183.307 211.076 179.32 210.918C178.435 209.998 177.578 209.052 176.75 208.081C174.386 207.7 168.144 207.88 165.541 207.859C157.698 207.795 149.828 207.98 141.975 207.774C143.072 206.661 144.532 204.832 145.617 203.592C142.381 203.736 138.832 203.561 135.569 203.631C125.13 203.855 113.923 203.267 103.551 203.69C114.257 197.899 125.995 194.167 137.914 191.815C140.211 191.362 148.809 190.59 150.222 190Z" fill="white"/>
<path d="M179.293 409.112C190.421 408.73 202.166 409.269 213.347 409.083C217.582 409.012 223.178 409.318 227.278 408.981C215.484 417.938 195.822 425.373 181.348 427.964C179.16 428.356 169.765 429.427 168.688 430H149.762C149.703 429.978 149.644 429.958 149.586 429.936C135.078 428.124 120.76 424.824 107.576 418.282C106.888 417.94 104.926 417.118 104.562 416.633L104.674 416.331C108.665 416.513 111.938 416.36 115.911 416.349L135.548 416.336C138.538 416.336 142.718 416.218 145.598 416.409C144.491 415.022 143.422 413.616 142.142 412.387C145.596 412.082 149.783 412.15 153.276 412.15L169.107 412.159C171.216 412.161 174.43 412.264 176.473 412.133C177.334 411.198 178.401 409.985 179.293 409.112Z" fill="white"/>
</g>
<g clip-path="url(#clip1_9753_182)">
<path d="M1305.87 344.803V201.817C1305.87 196.76 1308.62 194 1313.67 194H1353.1C1358.14 194 1360.89 196.76 1360.89 201.817V344.803C1360.89 349.86 1358.14 352.62 1353.1 352.62H1313.67C1308.62 352.62 1305.87 349.86 1305.87 344.803Z" fill="white"/>
<path d="M1140.34 317.217V272.39C1140.34 247.795 1155.01 233.08 1179.55 233.08H1251.53C1278.36 233.08 1293.03 247.79 1293.03 274.686V294.226C1293.03 299.514 1289.13 303.42 1283.86 303.42H1206.14C1199.26 303.42 1195.36 307.331 1195.36 314.224V316.526C1195.36 323.424 1199.26 327.33 1206.14 327.33H1227.23C1234.11 327.33 1238 323.424 1238 318.135V316.758C1238 311.701 1240.76 308.941 1245.8 308.941H1285.23C1290.27 308.941 1293.03 311.701 1293.03 316.758V317.217C1293.03 338.825 1276.98 354.918 1255.43 354.918H1177.94C1155.93 354.918 1140.34 339.284 1140.34 317.217ZM1199.95 279.056H1233.42C1236.4 279.056 1238 277.447 1238 274.459V271.24C1238 264.573 1234.11 260.663 1227.46 260.663H1205.91C1199.26 260.663 1195.36 264.569 1195.36 271.24V274.459C1195.36 277.447 1196.97 279.056 1199.95 279.056Z" fill="white"/>
<path d="M1072.49 344.803V201.817C1072.49 196.76 1075.24 194 1080.29 194H1119.72C1124.76 194 1127.51 196.76 1127.51 201.817V344.803C1127.51 349.86 1124.76 352.62 1119.72 352.62H1080.29C1075.24 352.62 1072.49 349.86 1072.49 344.803Z" fill="white"/>
<path d="M1004.62 344.803V201.817C1004.62 196.76 1007.37 194 1012.41 194H1051.85C1056.89 194 1059.64 196.76 1059.64 201.817V344.803C1059.64 349.86 1056.89 352.62 1051.85 352.62H1012.41C1007.37 352.62 1004.62 349.86 1004.62 344.803Z" fill="white"/>
<path d="M841.846 319.059C841.846 298.828 857.664 283.199 880.135 283.199H927.593C932.867 283.199 936.762 279.293 936.762 274.005V271.704C936.762 264.578 932.867 260.668 925.756 260.668H912.918C905.812 260.668 901.911 263.428 901.911 269.403V270.321C901.911 273.309 900.306 274.918 897.327 274.918H856.517C851.474 274.918 848.721 273.309 848.721 268.02C848.721 248.481 864.081 233.08 885.862 233.08H954.639C976.42 233.08 991.78 248.481 991.78 270.321V344.805C991.78 349.861 989.027 352.622 983.984 352.622H952.807C947.764 352.622 945.011 349.861 945.011 345.264H944.322C939.963 349.861 929.651 354.918 913.144 354.918H879.672C857.664 354.918 841.846 339.057 841.846 319.059ZM936.762 319.977V313.538C936.762 309.632 934.699 307.563 930.804 307.563H905.816C900.542 307.563 896.647 311.474 896.647 316.758C896.647 322.041 900.542 325.952 905.816 325.952H930.804C934.704 325.952 936.762 323.883 936.762 319.977Z" fill="white"/>
<path d="M708.428 344.805V243.197C708.428 238.141 711.181 235.381 716.223 235.381H750.154C755.196 235.381 757.949 238.141 757.949 243.197V244.807C767.119 235.84 773.309 233.084 783.399 233.084H811.829C829.483 233.084 841.632 245.266 841.632 262.969V267.107C841.632 272.163 838.879 274.923 833.836 274.923H791.195C788.215 274.923 786.61 273.313 786.61 270.326V270.094C786.61 265.497 784.089 262.969 779.046 262.969H772.398C765.976 262.969 763.455 265.497 763.455 274.691V344.805C763.455 349.861 760.702 352.621 755.659 352.621H716.228C711.186 352.621 708.428 349.861 708.428 344.805Z" fill="white"/>
<path d="M545.635 319.059C545.635 298.828 561.453 283.199 583.923 283.199H631.381C636.655 283.199 640.551 279.293 640.551 274.005V271.704C640.551 264.578 636.655 260.668 629.544 260.668H616.706C609.6 260.668 605.7 263.428 605.7 269.403V270.321C605.7 273.309 604.094 274.918 601.115 274.918H560.305C555.262 274.918 552.51 273.309 552.51 268.02C552.51 248.481 567.869 233.08 589.651 233.08H658.427C680.208 233.08 695.568 248.481 695.568 270.321V344.805C695.568 349.861 692.815 352.622 687.772 352.622H656.595C651.552 352.622 648.799 349.861 648.799 345.264H648.11C643.752 349.861 633.44 354.918 616.933 354.918H583.46C561.453 354.918 545.635 339.057 545.635 319.059ZM640.546 319.977V313.538C640.546 309.632 638.482 307.563 634.587 307.563H609.6C604.326 307.563 600.43 311.474 600.43 316.758C600.43 322.041 604.331 325.952 609.6 325.952H634.587C638.487 325.952 640.546 323.883 640.546 319.977Z" fill="white"/>
<path d="M390.889 386.184V243.197C390.889 238.141 393.642 235.381 398.684 235.381H437.199C442.242 235.381 444.995 238.141 444.995 243.197V245.498H446.142C453.022 237.454 457.375 233.084 479.383 233.084H495.201C521.567 233.084 537.616 249.177 537.616 271.017V316.995C537.616 338.835 521.567 354.923 499.791 354.923H471.361C460.812 354.923 451.185 351.017 446.6 345.955H445.911V386.184C445.911 391.241 443.158 394.001 438.115 394.001H398.684C393.642 394.001 390.889 391.241 390.889 386.184ZM482.362 315.38V272.622C482.362 264.805 478.235 260.668 470.44 260.668H457.828C450.033 260.668 445.906 264.805 445.906 272.622V315.38C445.906 323.197 450.033 327.334 457.828 327.334H470.44C478.235 327.334 482.362 323.197 482.362 315.38Z" fill="white"/>
</g>
<defs>
<clipPath id="clip0_9753_182">
<rect width="240.889" height="240" fill="white" transform="translate(39 190)"/>
</clipPath>
<clipPath id="clip1_9753_182">
<rect width="970" height="200" fill="white" transform="translate(390.889 194)"/>
</clipPath>
</defs>
</svg>
