<svg width="927" height="200" viewBox="0 0 927 200" fill="none" xmlns="http://www.w3.org/2000/svg">
<g clip-path="url(#clip0_9701_3065)">
<mask id="mask0_9701_3065" style="mask-type:luminance" maskUnits="userSpaceOnUse" x="0" y="0" width="200" height="200">
<path d="M0 0H200V200H0V0Z" fill="white"/>
</mask>
<g mask="url(#mask0_9701_3065)">
<path d="M199.55 86.89C196.329 81.0779 192.351 75.7189 187.72 70.9533L187.653 70.8867L186.4 69.62C183.502 66.7757 180.373 64.1778 177.043 61.8533C176.943 61.7867 176.843 61.72 176.76 61.6533C176.507 61.4867 176.273 61.3167 176.023 61.1467C175.94 61.08 175.84 61.0267 175.757 60.96V60C175.69 56 175.29 52 174.603 48.1333L174.52 47.66L174.27 46.3433V46.2767C172.886 39.4507 170.564 32.8492 167.37 26.66L166.97 25.8833L166.15 25.58C165.417 25.2933 164.66 25.0233 163.927 24.7867C161.224 23.8467 158.468 23.0675 155.673 22.4533C152.845 21.827 149.982 21.3706 147.1 21.0867C141.898 20.5591 136.655 20.5926 131.46 21.1867C131.413 21.118 131.357 21.0563 131.293 21.0033C128.234 17.3874 124.839 14.0693 121.153 11.0933L121.12 11.06C115.666 6.66781 109.625 3.05853 103.173 0.336667L102.39 0L101.59 0.286667C100.97 0.506667 100.15 0.793333 99.3633 1.11333C93.963 3.22079 88.8271 5.95149 84.06 9.25L83.2933 9.79C83.0267 9.97667 82.7733 10.1633 82.54 10.35C78.82 13.0641 75.3576 16.1147 72.1967 19.4633C68.09 18.756 63.9305 18.4003 59.7633 18.4C59.1633 18.4 58.53 18.4 57.8967 18.4333C50.8888 18.5947 43.9399 19.7553 37.26 21.88L36.46 22.1467L36.0233 22.8733C35.64 23.5167 35.2567 24.2067 34.8367 24.95C32.0031 30.1395 29.7826 35.6409 28.22 41.3433C28.0533 41.97 27.9033 42.5767 27.7533 43.1833C26.6591 47.6031 25.9652 52.1124 25.68 56.6567C22.0511 58.813 18.6091 61.2694 15.39 64C14.9033 64.4033 14.4367 64.81 13.95 65.2333C9.3332 69.3575 5.24236 74.035 1.77 79.16L1.72 79.2267C1.25333 79.9033 0.836667 80.5433 0.453333 81.1667L0 81.8967L0.133333 82.7567C0.266667 83.6033 0.416667 84.38 0.55 85.14C1.68667 90.9967 3.52667 96.7367 6 102.173L6.03333 102.24C6.3 102.813 6.56667 103.373 6.83333 103.927L7.21667 104.723C9.08265 108.432 11.2511 111.981 13.7 115.333C12.2614 119.42 11.1719 123.622 10.4433 127.893V127.927L10.1433 129.767C9.25572 135.838 9.1102 141.994 9.71 148.1C9.79 148.897 9.87667 149.707 9.97667 150.467L10.0933 151.327L10.7433 151.9C11.3633 152.44 11.9633 152.947 12.5633 153.433L12.6467 153.503C17.3035 157.293 22.4044 160.503 27.8367 163.06L28.0367 163.16C28.2533 163.26 28.4533 163.36 28.69 163.463L29.5567 163.853C33.5405 165.614 37.6721 167.02 41.9033 168.053C43.4197 172.197 45.2992 176.198 47.52 180.01L47.7533 180.397L48.5033 181.663C52.0748 187.47 56.4202 192.763 61.42 197.397L62.0533 198.003H65.2967C70.9409 197.9 76.554 197.141 82.0233 195.743L83.1233 195.457C83.7233 195.287 84.31 195.133 84.9133 194.95C89.0567 193.717 93.1333 192.113 97.0267 190.17C97.11 190.223 97.1933 190.27 97.2767 190.303L97.4933 190.423C101.203 192.513 105.082 194.286 109.09 195.723C109.39 195.827 109.673 195.927 109.977 196.047L110.877 196.35C116.51 198.207 122.357 199.373 128.287 199.827L129.473 199.913C129.857 199.93 130.26 199.963 130.66 199.98L131.527 200.013L132.197 199.457C137.149 195.364 141.557 190.655 145.313 185.443L145.963 184.517V184.483C146.33 183.977 146.683 183.47 147.017 182.947C148.336 180.938 149.562 178.87 150.693 176.75L151.11 175.94C151.777 174.64 152.43 173.29 153.05 171.89L153.2 171.567C153.25 171.467 153.283 171.367 153.333 171.267C153.383 171.267 153.417 171.267 153.467 171.247C153.517 171.247 153.55 171.247 153.6 171.23C153.717 171.213 153.85 171.18 153.967 171.163C154.267 171.11 154.553 171.043 154.837 170.997C158.67 170.205 162.436 169.115 166.1 167.737L166.967 167.397L167.853 167.043C173.371 164.795 178.6 161.894 183.427 158.4L184.393 157.69L186.013 156.423L186.167 155.597C186.248 155.205 186.321 154.812 186.383 154.417L186.583 153.233C187.484 147.358 187.702 141.399 187.233 135.473C187.183 134.8 187.117 134.107 187.067 133.583C186.833 131.353 186.5 129.093 186.05 126.85C185.694 125.075 185.281 123.312 184.813 121.563L184.713 121.227L184.613 120.887C184.56 120.687 184.493 120.483 184.447 120.28L184.947 119.673L185.163 119.403L185.38 119.133C187.6 116.314 189.616 113.34 191.413 110.233L191.847 109.477C192.147 108.937 192.447 108.377 192.747 107.82C195.586 102.463 197.774 96.7844 199.263 90.9067L199.55 89.74C199.633 89.42 199.7 89.1 199.767 88.78L200 87.7133L199.583 86.9567L199.55 86.89ZM169.29 64.4033L169.84 64.69L169.89 64.7433V64.8933L169.84 65.25L169.64 67.0367V67.2233C169.294 71.4081 168.579 75.5542 167.503 79.6133L167.217 80.66C166.558 83.0294 165.76 85.3579 164.827 87.6333C160.533 83.7757 155.821 80.4124 150.777 77.6067H150.743C150.486 77.4455 150.224 77.2932 149.957 77.15L149.473 76.8967L149.357 76.83L149.257 76.78L148.07 76.17L148.187 74.9033C148.253 74.1967 148.303 73.6233 148.337 73.08C148.77 67.46 148.603 61.84 147.853 56.3533C149.807 56.7233 151.747 57.1967 153.633 57.7367L153.983 57.8367C154.853 58.09 155.573 58.3267 156.273 58.5467C160.167 59.83 163.993 61.5167 167.653 63.5467L168.973 64.22L169.29 64.3867V64.4033ZM149.657 107.977L145.597 112.147L148.337 119.153C150.213 124.04 151.546 129.119 152.313 134.297L152.363 134.65C152.397 134.903 152.43 135.173 152.48 135.46C147.31 137.28 141.943 138.482 136.49 139.04L136.073 139.073C135.79 139.107 135.473 139.14 135.14 139.157L128.687 139.613L126.92 145.287L126.4 146.853L126.2 147.43C124.589 152.062 122.512 156.518 120 160.73L119.883 160.937C119.683 161.29 119.45 161.66 119.183 162.067L118.297 161.713C113.408 159.764 108.756 157.265 104.43 154.267C104.197 154.113 103.993 153.963 103.777 153.81L103.19 153.407L98.23 149.76L93.25 153.05C92.8833 153.303 92.4633 153.557 91.93 153.897C87.5837 156.549 82.9621 158.722 78.1467 160.377H78.0967C77.6433 160.547 77.1767 160.717 76.7233 160.85C76.6233 160.683 76.54 160.513 76.44 160.343L76.2233 159.923C73.7478 155.279 71.7916 150.376 70.39 145.303L70.31 145.017L70.0567 144.07L68.5367 137.84L64.0933 137.283C63.36 137.2 62.6233 137.097 61.8867 136.997C61.6033 136.963 61.32 136.913 61.0367 136.88C58.5013 136.481 55.9906 135.94 53.5167 135.257C51.1561 134.614 48.8307 133.849 46.55 132.963L46.2 132.83C45.8 132.677 45.3967 132.507 44.98 132.337C45.0467 131.967 45.13 131.56 45.23 131.087L45.4467 130.11C46.48 125.383 48.0367 120.74 50.04 116.283C50.14 116.047 50.3267 115.673 50.4733 115.353L50.5067 115.287C50.91 114.427 51.2267 113.563 51.5133 112.807L53 108.807L50.0767 105.817L49.3233 105.023C47.2061 102.66 45.2358 100.168 43.4233 97.5633C42.0525 95.5712 40.7874 93.5084 39.6333 91.3833L39.35 90.8433L38.8967 89.98C38.8967 89.9467 38.8633 89.9133 38.8467 89.88L39.0133 89.7467L40.0833 88.8833C43.8051 85.9453 47.8196 83.3985 52.0633 81.2833L53.0833 80.7967C53.55 80.5633 53.9667 80.3733 54.3833 80.19L59.55 77.8767V71.31C59.5181 70.9776 59.5014 70.6439 59.5 70.31V70.1267C59.4 65.1133 59.8167 60.0833 60.7533 55.2033L61.0033 53.9533C61.0367 53.7533 61.0867 53.55 61.1367 53.3467C61.6533 53.3467 62.2033 53.3633 62.8733 53.3967L63.8267 53.43C68.4533 53.6833 73.1167 54.41 77.6767 55.5933C78.2633 55.7433 78.7467 55.88 79.18 55.9967L84.9967 57.7367L88.9067 52.4033C88.9067 52.4033 89.04 52.2333 89.1067 52.13L89.69 51.4233C92.7876 47.5678 96.2762 44.0434 100.1 40.9067L100.967 40.2133C101.12 40.08 101.287 39.96 101.437 39.84L101.553 39.94C101.887 40.23 102.22 40.5333 102.607 40.8867L102.757 41.02C106.451 44.4179 109.773 48.1992 112.667 52.3L112.983 52.74L113.017 52.7733C113.2 53.0267 113.383 53.2967 113.567 53.5833L116.793 58.5133L122.507 57.3133C122.757 57.2633 123.007 57.2133 123.24 57.1467L124.243 56.9433C129.495 55.9013 134.849 55.4651 140.2 55.6433H140.333C140.517 55.6433 140.7 55.6433 140.887 55.66C140.97 56.1167 141.037 56.64 141.137 57.2633C141.82 62.2633 141.97 67.3933 141.57 72.5067V72.7767L141.553 72.83C141.537 73.2 141.487 73.64 141.437 74.1967L140.853 80.1733L146.05 82.8067L146.283 82.94L147.55 83.6333C151.826 86.0112 155.842 88.8287 159.533 92.04L160.45 92.8667C160.67 93.0533 160.87 93.24 161.07 93.4233C160.87 93.78 160.637 94.15 160.37 94.6067C156.54 100.903 151.463 106.187 150.893 106.777C150.41 107.283 150.007 107.673 149.76 107.927L149.707 107.977H149.657ZM52.6667 70.31V70.3633C52.6667 70.7867 52.6667 71.26 52.7 71.7967V73.4367L51.5967 73.9267C51.0967 74.1467 50.5767 74.4 50.01 74.67L49.0233 75.14C44.6085 77.3418 40.4168 79.9651 36.5067 82.9733C36.016 81.464 35.5758 79.9387 35.1867 78.4L35.12 78.13C33.9305 73.2583 33.2811 68.2705 33.1833 63.2567L33.0833 60.74L35.3033 59.71H35.3367C39.3883 57.7545 43.6263 56.2111 47.9867 55.1033C48.7733 54.9 49.5733 54.7133 50.41 54.5467C51.61 54.2933 52.8167 54.0567 54.02 53.87C52.9853 59.2763 52.525 64.7769 52.6467 70.28L52.6633 70.3133L52.6667 70.31ZM144.73 27.7567C145.313 27.8067 145.847 27.84 146.363 27.91H146.417C149.04 28.1767 151.663 28.5833 154.217 29.16C156.723 29.7 159.25 30.4267 161.72 31.27H161.77C161.887 31.32 161.99 31.37 162.103 31.4033C162.155 31.5294 162.211 31.654 162.27 31.7767C164.663 36.7733 166.433 42.0733 167.553 47.5267L167.587 47.7267L167.887 49.3L168.137 50.8167C168.42 52.64 168.62 54.5167 168.757 56.3733C165.417 54.6639 161.954 53.2076 158.397 52.0167C157.534 51.726 156.665 51.4559 155.79 51.2067L155.523 51.12H155.473C152.793 50.342 150.07 49.7221 147.317 49.2633C146.656 46.936 145.876 44.6441 144.98 42.3967V42.3433C144.647 41.5667 144.313 40.7233 143.893 39.7767C142.025 35.5313 139.777 31.4636 137.177 27.6233C139.7 27.5233 142.223 27.57 144.73 27.7567ZM129.44 28.45L129.473 28.4833H129.523L130.777 30.3733L130.877 30.5067C133.536 34.2822 135.809 38.3159 137.66 42.5467V42.5967C137.993 43.3067 138.26 43.9467 138.493 44.5533L138.63 44.8767C139.13 46.1767 139.617 47.4767 140.033 48.7933C133.872 48.6214 127.713 49.1877 121.687 50.48C121.503 50.53 121.303 50.5633 121.103 50.6133L119.883 50.87L119.197 49.8233C118.874 49.3319 118.54 48.8474 118.197 48.37V48.3367C115.077 43.9337 111.51 39.8654 107.553 36.1967C109.02 35.3867 110.527 34.61 112.03 33.92L113.13 33.43C113.783 33.1433 114.503 32.84 115.423 32.4667L115.74 32.35C119.397 30.9167 123.207 29.7833 127.083 29.0067L129.473 28.4667L129.44 28.45ZM86.4833 15.9L86.5167 15.8667C86.7167 15.7133 86.9167 15.5633 87.1333 15.4267L87.8867 14.9033C92.2176 11.9082 96.8823 9.42707 101.787 7.51H101.837C101.957 7.44333 102.057 7.41 102.17 7.35667C102.29 7.40667 102.423 7.47667 102.537 7.52333C107.612 9.85561 112.383 12.7997 116.743 16.29L116.843 16.3733C117.31 16.76 117.777 17.1333 118.177 17.4867C120.098 19.1191 121.928 20.855 123.66 22.6867C119.99 23.5294 116.392 24.6595 112.9 26.0667L112.833 26.1C111.863 26.4867 111.077 26.8267 110.36 27.1467L109.19 27.67L109.007 27.7533C106.767 28.8 104.527 29.9833 102.39 31.2667C100.426 29.9402 98.4016 28.7056 96.3233 27.5667L96.1567 27.4667C95.4233 27.08 94.6367 26.6567 93.7 26.1833L93.6333 26.15C89.333 24.0334 84.8404 22.3323 80.2167 21.07C82.2007 19.2193 84.2933 17.4884 86.4833 15.8867V15.9ZM73.95 28.88L75.4733 26.89L77.7433 27.5467L77.86 27.58C82.284 28.7395 86.5784 30.3467 90.6767 32.3767L91.0267 32.5433C91.4467 32.7633 91.8467 32.9667 92.2133 33.1533L92.9133 33.54C93.9867 34.1133 95.0367 34.7233 96.0733 35.3633L95.8067 35.5833C91.523 39.0812 87.6243 43.0257 84.1767 47.35L83.76 47.8567C83.6267 48.0233 83.51 48.1767 83.3933 48.33L82.29 49.8167L81.0533 49.4433C75.5286 47.8711 69.8456 46.9208 64.11 46.61H63.76C64.7554 44.0298 65.9098 41.5139 67.2167 39.0767L67.3033 38.9267C69.2172 35.3907 71.4367 32.029 73.9367 28.88H73.9533H73.95ZM34.3367 44.8167C34.47 44.31 34.6033 43.72 34.77 43.1467C36.188 37.9604 38.2073 32.9575 40.7867 28.24L40.9867 27.8867C41.12 27.8533 41.2533 27.82 41.37 27.7667C46.795 26.2309 52.3932 25.3908 58.03 25.2667H58.1467C58.68 25.2533 59.2467 25.2333 59.7467 25.2333C62.4233 25.2333 65.0967 25.4033 67.77 25.7233C65.3463 28.907 63.1784 32.2775 61.2867 35.8033V35.8367C60.8367 36.6467 60.42 37.4733 60.0333 38.27C58.6967 40.97 57.5267 43.77 56.5567 46.59V46.6233C56.3224 46.6439 56.0889 46.6728 55.8567 46.71C53.5841 46.9769 51.3259 47.354 49.09 47.84C43.4834 49.045 38.0342 50.8916 32.85 53.3433C33.1833 50.4567 33.7 47.5867 34.4033 44.8L34.3367 44.8167ZM13.3 101.613L12.9333 100.853C12.75 100.48 12.5667 100.11 12.4 99.72L12.2133 99.3167C9.94213 94.3435 8.27039 89.118 7.23333 83.75C7.21177 83.6199 7.18396 83.4908 7.15 83.3633L7.97 82.1633C12.927 75.0668 19.1937 68.9822 26.4333 64.2367C26.6085 69.4732 27.3188 74.6781 28.5533 79.77V79.8033C29.22 82.4867 30.0267 85.1367 30.96 87.72C30.9933 87.82 31.0433 87.9367 31.0767 88.04C31.0933 88.09 31.1267 88.1567 31.1433 88.2267C31.0726 88.295 31.0058 88.3673 30.9433 88.4433C30.8767 88.53 30.7933 88.61 30.71 88.6967C29.0141 90.5035 27.413 92.3972 25.9133 94.37L25.0967 95.47C22.0842 99.5747 19.487 103.968 17.3433 108.587C15.8575 106.345 14.5073 104.016 13.3 101.613ZM32.2667 157.543L31.4467 157.17C31.26 157.087 31.0933 157.02 30.9133 156.917L30.6933 156.817C25.7358 154.47 21.0799 151.533 16.8267 148.07L16.5267 147.817L16.4733 147.397C15.9248 141.847 16.0546 136.251 16.86 130.733V130.683C16.9433 130.093 17.0433 129.5 17.1267 128.993V128.86C17.61 126.193 18.2467 123.527 19.03 120.907C22.0393 124.344 25.3565 127.499 28.94 130.333L30.04 131.177C32.4355 132.988 34.9354 134.658 37.5267 136.177L38.1467 136.527V136.747C37.98 139.463 37.9467 142.217 38.08 144.95C38.1133 145.83 38.18 146.757 38.2467 147.703C38.5967 151.99 39.3133 156.28 40.3833 160.483C37.6154 159.668 34.903 158.675 32.2633 157.51V157.543H32.2667ZM43.86 113.463C41.6652 118.343 39.9742 123.434 38.8133 128.657L38.7633 128.927C37.5299 128.149 36.3258 127.327 35.1533 126.46L34.17 125.737L33.1167 124.927C29.7778 122.285 26.6902 119.34 23.8933 116.13L22.2233 114.273L23.24 112.113L23.29 112.013C25.0916 108.013 27.2739 104.196 29.8067 100.613C30.0267 100.313 30.2733 99.9567 30.5067 99.62L31.31 98.5567C32.1633 97.4433 33.05 96.3633 33.9667 95.3167C35.1367 97.4267 36.44 99.5367 37.8433 101.56C39.8273 104.43 41.9987 107.166 44.3433 109.75L44.93 110.373L45.1133 110.56C44.8885 111.195 44.6371 111.82 44.36 112.433C44.1933 112.787 43.9933 113.21 43.8767 113.48L43.86 113.463ZM47.8867 162.287L47.3533 160.193L47.27 159.853C46.1474 155.726 45.4032 151.505 45.0467 147.243V147.21C44.98 146.333 44.93 145.47 44.88 144.677C44.8133 143.023 44.7967 141.353 44.8467 139.697C47.1167 140.56 49.44 141.317 51.78 141.96C54.4867 142.703 57.2767 143.293 60.05 143.733C60.35 143.783 60.65 143.817 60.97 143.867C61.6867 143.967 62.39 144.07 63.09 144.153L63.4433 145.607C63.4433 145.607 63.4433 145.673 63.46 145.69L63.4933 145.823C63.61 146.283 63.71 146.703 63.8433 147.143C65.3307 152.561 67.3982 157.802 70.01 162.777C63.4837 163.702 56.8564 163.658 50.3433 162.643L47.8867 162.32V162.287ZM82.94 188.333C82.4233 188.487 81.8867 188.64 81.3867 188.773L80.32 189.06C77.81 189.703 75.2533 190.193 72.7333 190.513C70.2267 190.85 67.6533 191.053 65.1133 191.103H64.7133C64.6133 191.02 64.5267 190.917 64.4133 190.817C60.216 186.665 56.5705 181.989 53.5667 176.907L53.35 176.533C52.0249 174.251 50.8308 171.895 49.7733 169.477C54.37 170.153 59.0467 170.407 63.64 170.22C67.2071 170.073 70.7587 169.666 74.2667 169.003C75.9273 171.309 77.7249 173.513 79.65 175.603C82.9873 179.254 86.675 182.567 90.66 185.497C88.1367 186.597 85.5467 187.54 82.9067 188.317L82.94 188.333ZM100.067 181.143C99.4 181.563 98.7467 182.003 98.1133 182.41L96.2233 181.023L96.09 180.923C91.9206 178.027 88.0919 174.669 84.6767 170.913C83.4267 169.547 82.2233 168.11 81.07 166.623C86.6584 164.646 91.9967 162.022 96.9767 158.807L98.03 158.1L99.0967 158.893L99.38 159.093H99.4C99.7667 159.383 100.133 159.637 100.533 159.923C105.242 163.189 110.304 165.913 115.623 168.043C114.703 169.09 113.75 170.103 112.783 171.08L111.663 172.18C111.363 172.467 111.063 172.753 110.743 173.04C107.486 176.044 103.943 178.723 100.167 181.04L100.033 181.127L100.067 181.143ZM145.047 172.737L144.647 173.497C143.643 175.37 142.523 177.26 141.303 179.117C140.97 179.607 140.637 180.097 140.337 180.55L139.75 181.397C136.762 185.547 133.315 189.347 129.473 192.723L129.19 192.977L128.74 192.943C123.382 192.525 118.092 191.471 112.983 189.803L112.097 189.5C109.541 188.623 107.041 187.591 104.61 186.41C108.44 183.985 112.042 181.215 115.37 178.137C115.703 177.817 116.04 177.513 116.373 177.193L117.377 176.23C119.225 174.386 120.976 172.448 122.623 170.423C125.28 171.08 128.02 171.603 130.76 171.977L132.097 172.143C136.44 172.628 140.818 172.736 145.18 172.463L145.03 172.77L145.047 172.737ZM153.517 146.3L153.417 147.43C152.9 152.657 151.801 157.81 150.14 162.793L149.49 164.953L149.44 165.14L149.39 165.207L148.457 165.273L147.117 165.36H146.933C142.677 165.782 138.39 165.782 134.133 165.36H133.867C133.517 165.307 133.217 165.273 132.95 165.24L131.647 165.087C129.744 164.835 127.853 164.498 125.98 164.077C128.804 159.331 131.117 154.3 132.88 149.067V149.017C133.08 148.46 133.267 147.903 133.45 147.33L133.817 146.13L135.137 146.03H135.437C135.923 145.977 136.39 145.943 136.81 145.893H136.86C142.603 145.332 148.264 144.12 153.733 142.28C153.7 143.63 153.633 144.967 153.533 146.28L153.517 146.3ZM154.687 116.637L153.567 113.783L154.453 112.873C154.703 112.62 155.153 112.18 155.707 111.607C156.723 110.56 162.007 105.007 166.133 98.22L166.233 98.0667C167.233 99.3167 168.203 100.617 169.107 101.917L169.69 102.777C170.177 103.487 170.61 104.16 171.027 104.837L171.527 105.647C173.582 109.082 175.344 112.685 176.793 116.417L177.443 117.953L177.577 118.273L177.71 118.597L177.76 118.713L177.71 118.763L177.543 118.917L177.293 119.15L177.043 119.407L176.11 120.3L175.94 120.453C172.858 123.601 169.484 126.45 165.863 128.96C165.197 129.417 164.51 129.89 163.793 130.327C162.243 131.322 160.648 132.246 159.013 133.097C158.167 127.452 156.711 121.917 154.67 116.587L154.687 116.637ZM179.85 151.77L179.733 152.547L179.383 152.797C175.001 155.962 170.255 158.592 165.247 160.63H165.197C164.947 160.763 164.73 160.85 164.51 160.937L163.66 161.257C161.537 162.067 159.347 162.757 157.127 163.35C158.673 158.376 159.703 153.255 160.2 148.07L160.3 146.89C160.483 144.66 160.567 142.383 160.533 140.103C167.339 136.701 173.588 132.284 179.067 127.003C179.147 127.373 179.213 127.747 179.3 128.117C179.794 130.616 180.145 133.141 180.35 135.68V135.983C180.803 141.233 180.617 146.537 179.833 151.75L179.85 151.77ZM192.63 89.1533C191.27 94.4839 189.285 99.6351 186.717 104.5C186.45 104.99 186.233 105.41 186.03 105.767L185.48 106.727C184.48 108.45 183.41 110.12 182.257 111.76C180.714 108.108 178.893 104.58 176.81 101.207L176.723 101.073C176.307 100.397 175.857 99.7067 175.37 98.9633L175.323 98.8767C173.766 96.5767 172.092 94.3572 170.31 92.2267C171.31 89.93 172.213 87.55 172.983 85.1533C173.3 84.19 173.55 83.33 173.783 82.52L174.083 81.42C175.087 77.62 175.823 73.7067 176.24 69.7733C178.147 71.2733 179.967 72.88 181.707 74.5667L182.873 75.75L183.607 76.51C187.01 80.116 190.008 84.0841 192.547 88.3433C192.613 88.46 192.697 88.5767 192.767 88.6967L192.667 89.1367L192.63 89.1533Z" fill="white"/>
<path fill-rule="evenodd" clip-rule="evenodd" d="M106.867 106.95C104.761 109.077 102.456 110.997 99.9833 112.683C95.0222 109.296 90.7573 104.988 87.4199 99.9935C90.758 94.9981 95.0241 90.6901 99.9866 87.3035C104.948 90.6905 109.213 94.9984 112.55 99.9935C110.882 102.489 108.979 104.818 106.867 106.95Z" fill="white"/>
</g>
</g>
<g clip-path="url(#clip1_9701_3065)">
<mask id="mask1_9701_3065" style="mask-type:luminance" maskUnits="userSpaceOnUse" x="253" y="46" width="673" height="108">
<path d="M253.333 46.6666H925.91V153.333H253.333V46.6666Z" fill="white"/>
</mask>
<g mask="url(#mask1_9701_3065)">
<path d="M442.43 50.08L442.057 65.63L441.973 68.4133L440.6 66.0033C437.247 60.0566 432.617 55.4433 426.827 52.2133C421.16 49 414.753 47.3666 407.783 47.3666C398.997 47.3666 390.933 49.7333 383.837 54.3666C376.713 59.0333 370.937 65.41 366.653 73.3233C362.52 81.2233 360.417 90.37 360.417 100.487C360.417 110.603 362.383 119.597 366.28 127.51C370.16 135.27 375.607 141.507 382.45 146.037C389.407 150.417 397.403 152.647 406.19 152.647C421.81 152.647 433.38 146.383 440.613 134.007L441.973 131.68L442.057 134.38L442.43 149.847H464.897V50.0766H442.43V50.08ZM434.74 122.987C429.32 128.947 422.197 131.953 413.563 131.953C404.93 131.953 397.75 128.947 392.197 123C386.72 116.987 384.06 109.49 384.06 100.093C384.06 90.6966 386.803 82.9666 392.193 77.1866C397.737 71.24 404.927 68.22 413.56 68.22C422.197 68.22 429.32 71.24 434.74 77.1866C440.13 82.98 442.86 90.6866 442.86 100.093C442.86 109.503 440.127 117.07 434.74 122.987ZM542.873 50.42L540.84 72.4266C537.018 71.0587 532.992 70.3509 528.933 70.3333C520.853 70.3333 514.533 73.3433 510.14 79.2333C505.79 84.9266 503.6 93.1466 503.6 103.667V149.827H480V50.1166H502.617L502.797 69.53L502.84 73.7866L504.293 69.78C506.76 63.0466 510.42 57.78 515.227 54.1633C519.993 50.4333 525.607 48.5233 531.927 48.5233C534.007 48.5233 536.113 48.73 538.177 49.1033C540.103 49.45 541.67 49.8933 542.89 50.42H542.873ZM652.31 50.1566L613.187 149.833H588.147L549.013 50.1566H575.52L600.8 125.573L601.16 126.653L601.52 125.573L627.407 50.1566H652.31ZM733.017 50.0666L732.573 65.63L732.517 68.4133L731.143 66.0033C727.777 60.0566 723.15 55.4433 717.37 52.2133C711.7 49 705.3 47.3666 698.33 47.3666C689.53 47.3666 681.477 49.7333 674.38 54.3666C667.26 59.0333 661.467 65.41 657.197 73.3233C653.053 81.2233 650.947 90.37 650.947 100.487C650.947 110.603 652.93 119.61 656.81 127.51C660.69 135.27 666.15 141.507 672.997 146.037C679.953 150.417 687.933 152.647 696.733 152.647C712.34 152.647 723.923 146.383 731.13 134.007L732.503 131.68L732.557 134.38L732.96 149.847H755.41L755.453 50.0966H733.003L733.017 50.07V50.0666ZM725.24 122.973C719.837 128.933 712.713 131.94 704.067 131.94C695.417 131.94 688.253 128.933 682.697 122.987C677.223 116.973 674.577 109.477 674.577 100.08C674.577 90.6833 677.307 82.95 682.697 77.1733C688.24 71.2266 695.433 68.2066 704.067 68.2066C712.7 68.2066 719.837 71.2266 725.24 77.1733C730.633 82.9666 733.363 90.6733 733.363 100.08C733.363 109.49 730.633 117.057 725.24 122.973ZM925.91 89.5266V149.827H902.407V94.11C902.407 76.8433 895.657 68.0866 882.34 68.0866C875.243 68.0866 869.617 70.5933 865.627 75.5266C861.817 80.2933 859.89 87.1533 859.89 95.9133V149.833H836.567V93.92C836.567 76.7766 829.887 68.0866 816.707 68.0866C809.597 68.0866 803.97 70.5966 799.993 75.53C796.043 80.2833 794.063 87.1433 794.063 95.9166V149.833H770.74V50.0866H793.287L793.467 64.6933L793.507 67.9366L794.92 65.0266C797.537 59.5862 801.728 55.0573 806.95 52.0266C812.257 48.9233 818.467 47.3566 825.45 47.3566C840.417 47.3566 850.743 53.9533 856.16 66.9666L856.853 68.6166L857.573 66.9933C860.29 60.9266 864.6 56.0866 870.407 52.61C876.213 49.1 882.837 47.3566 890.1 47.3566C901.617 47.3566 910.513 51.0166 916.57 58.2233C922.763 65.33 925.91 75.8766 925.91 89.5266ZM353.21 120.117C353.21 132.033 347.68 140.983 336.777 146.697C326.307 152.183 313.503 153.333 304.59 153.333C287.323 153.333 274.2 150.033 265.593 143.52C257.617 137.48 253.5 128.72 253.347 117.5V117.153L253.333 116.457H277.833L277.863 117.123V117.44C278.39 129.233 288.117 135.733 305.287 135.733C312.327 135.733 328.68 134.417 328.68 122.207C328.68 112.353 315.337 110.497 299.897 108.323C279.18 105.423 255.703 102.127 255.703 78.36C255.7 58.2266 272.013 46.6666 300.433 46.6666C330.84 46.6666 347.927 57.8766 349.88 79.0933L349.907 79.47L349.977 80.23H325.433L325.38 79.5966L325.35 79.29C324.683 72.0266 318.05 64.2666 301.403 64.2666C287.213 64.2666 279.41 68.73 279.41 76.8333C279.41 85.8566 292.31 87.4366 307.267 89.28C317.48 90.5266 329.05 91.9566 337.88 96.1266C348.19 101.003 353.21 108.86 353.21 120.117Z" fill="white"/>
</g>
</g>
<defs>
<clipPath id="clip0_9701_3065">
<rect width="200" height="200" fill="white"/>
</clipPath>
<clipPath id="clip1_9701_3065">
<rect width="673.333" height="106.667" fill="white" transform="translate(253.333 46.6666)"/>
</clipPath>
</defs>
</svg>
