<svg xmlns="http://www.w3.org/2000/svg" fill="none" viewBox="0 0 927 200">
    <g clip-path="url(#a)">
        <mask id="b" width="200" height="200" x="0" y="0" maskUnits="userSpaceOnUse" style="mask-type:luminance">
            <path fill="#fff" d="M0 0h200v200H0z"/>
        </mask>
        <g fill="#fff" mask="url(#b)">
            <path d="M199.6 86.9a75 75 0 0 0-11.9-16l-1.3-1.3a73 73 0 0 0-9.6-8l-.8-.5-.2-.1v-1q-.2-6-1.2-11.9v-.4l-.3-1.4a76 76 0 0 0-7-19.6l-.3-.8-.8-.3-2.3-.8a73 73 0 0 0-32.4-3.6l-.2-.2A75.2 75.2 0 0 0 103.2.3l-.8-.3-.8.3-2.2.8A75 75 0 0 0 84 9.3l-.8.5-.8.5a75 75 0 0 0-10.3 9.2q-6.2-1-12.4-1.1h-1.9q-10.6.3-20.6 3.5l-.8.2-.5.8-1.2 2q-4.2 7.8-6.6 16.4l-.4 1.9q-1.7 6.7-2.1 13.5-5.4 3.2-10.3 7.3l-1.5 1.2a75 75 0 0 0-12.1 14l-1.3 2-.5.7.1.9.5 2.3q1.6 8.9 5.4 17v.1l.8 1.7.4.8q2.8 5.6 6.5 10.6-2.1 6.2-3.3 12.6l-.3 1.9a76 76 0 0 0-.1 20.7v.8l.7.6 1.9 1.5v.1a74 74 0 0 0 15.2 9.6h.2l.7.4.9.4q6 2.6 12.3 4.2 2.3 6.1 5.6 12l.3.3.7 1.3a75 75 0 0 0 13 15.7l.6.6h3.2a73 73 0 0 0 16.7-2.3l1.1-.2 1.8-.6a75 75 0 0 0 12.4-4.6l.2.1A76 76 0 0 0 110 196l.9.3q8.5 2.9 17.4 3.5l1.2.1h1.2l.8.1.7-.5q7.5-6.2 13.1-14l.7-1 1-1.6q2-3 3.7-6.2l.4-.8 2-4 .1-.3.1-.3h.3l.4-.1.8-.2q5.8-1.2 11.3-3.3l.9-.3.9-.4a75 75 0 0 0 15.5-8.6l1-.7 1.6-1.3.2-.8.2-1.2.2-1.2a77 77 0 0 0-1.8-31.6v-.4l-.2-.3-.2-.6.5-.6.3-.3.2-.3q3.3-4.2 6-8.9l.4-.7 1-1.7a76 76 0 0 0 6.5-16.9l.3-1.2.2-1 .2-1zm-30.3-22.5.5.3v.5l-.2 1.8v.2q-.4 6.4-2.1 12.4l-.3 1q-.9 3.7-2.4 7-6.5-5.7-14-10l-.8-.4-.5-.3h-.1l-.1-.1-1.2-.6v-1.3q.3-1 .2-1.8.7-8.5-.4-16.7 3 .5 5.7 1.3l.4.1 2.3.7q5.8 2 11.4 5l1.3.7zM149.7 108l-4.1 4.1 2.7 7q2.9 7.5 4 15.2v.3l.2.9q-7.8 2.7-16 3.5h-.4l-1 .2-6.4.4-1.8 5.7-.5 1.6-.2.5q-2.4 7-6.2 13.3l-.1.2-.7 1.2-.9-.4q-7.3-3-13.9-7.4l-.6-.5-.6-.4-5-3.6-5 3.3-1.3.8q-6.5 4-13.8 6.5l-1.4.4-.3-.5-.2-.4a72 72 0 0 1-5.8-14.6v-.3l-.3-1-1.6-6.2-4.4-.5-2.2-.3-.9-.1a68 68 0 0 1-14.5-4h-.3l-1.2-.6.2-1.2.2-1Q47 123 50 116.3l.5-1 1-2.5 1.5-4-3-3-.7-.8a78 78 0 0 1-9.7-13.6l-.2-.6-.5-.8v-.1l.1-.2 1-.8a69 69 0 0 1 12-7.6l1-.5 1.4-.6 5.1-2.3V70q-.2-7.5 1.3-14.9L61 54l.1-.7 1.8.1h1q6.9.4 13.8 2.2l1.5.4 5.8 1.7 4-5.3.1-.3.6-.7Q94.3 45.6 100 41l.9-.7.4-.4.2.1 1 1 .2.1q5.6 5.1 9.9 11.3l.3.4.6.9 3.2 5 5.7-1.3q.4 0 .7-.2l1-.2a70 70 0 0 1 16-1.3h.7l.2 1.7q1 7.4.5 15.2v.3l-.2 1.4-.5 6 5.2 2.6.2.1 1.3.7q6.3 3.6 12 8.4l.8.9.7.5-.7 1.2c-3.9 6.3-9 11.6-9.5 12.2zm-97-37.7v3.1l-1.1.5-1.6.8-1 .4A77 77 0 0 0 36.5 83q-.8-2.2-1.3-4.6v-.3a68 68 0 0 1-2-14.8l-.1-2.6 2.2-1A67 67 0 0 1 54 54q-1.5 8.1-1.4 16.4m92-42.5 1.7.1a66 66 0 0 1 15.3 3.4l.4.1.2.4q3.5 7.6 5.3 15.7v.2l.3 1.6.2 1.5.7 5.6a75 75 0 0 0-13-5.2h-.3q-4-1.3-8.2-2-1-3.5-2.3-6.8l-1.1-2.6a77 77 0 0 0-6.7-12.2q3.7 0 7.5.2m-15.3.6h.1l1.3 2v.1q4 5.7 6.9 12v.1l.8 2 .1.3 1.4 3.9q-9.2-.3-18.3 1.7l-.6.1-1.2.3-.7-1-1-1.5a78 78 0 0 0-10.6-12.2l4.4-2.3 1.1-.5 2.3-1h.3q5.5-2.2 11.4-3.4zM86.4 16h.1l.6-.5.8-.5q6.5-4.5 13.9-7.4l.4-.1.3.1q7.7 3.6 14.2 8.8h.1l1.4 1.2q2.8 2.5 5.5 5.2Q118 24 112.9 26l-2.5 1-1.2.6h-.2q-3.4 1.6-6.6 3.6-3-2-6-3.7l-.2-.1-2.5-1.3A75 75 0 0 0 80.1 21q3-2.8 6.3-5.2M74 28.9l1.6-2 2.2.6h.2q6.6 1.8 12.8 4.9l.3.1 1.2.7.7.3 3.2 1.9-.3.2a78 78 0 0 0-11.6 11.8l-.4.5-.4.4-1.1 1.5-1.2-.4a77 77 0 0 0-17-2.8h-.3q1.5-3.8 3.4-7.5l.1-.2a69 69 0 0 1 6.6-10m-39.6 16 .5-1.8a69 69 0 0 1 6-14.9l.2-.3.4-.1q8.1-2.4 16.6-2.5h1.7q4 0 8 .4a76 76 0 0 0-6.4 10.1L60 38.3a71 71 0 0 0-3.4 8.3l-.7.1a71 71 0 0 0-23 6.6q.4-4.2 1.5-8.5m-21 56.7-.4-.7-.5-1.2-.2-.4a69 69 0 0 1-5-16l.8-1.1a68 68 0 0 1 18.4-18q.3 8 2.2 15.6.9 4 2.4 8v.2l.1.2q0 .1-.2.2l-.2.3-4.8 5.7-.8 1q-4.5 6.3-7.8 13.2a67 67 0 0 1-4-7m19 56-.9-.4-.5-.3h-.2q-7.5-3.7-13.9-8.8l-.3-.3v-.4q-.8-8.4.4-16.7l.2-1.7v-.1q.7-4 2-8a75 75 0 0 0 9.8 9.4l1.1.9a77 77 0 0 0 7.5 5l.6.3v.2q-.2 4.2 0 8.3l.1 2.7q.6 6.5 2.2 12.8a67 67 0 0 1-8.1-3m11.6-44.1q-3.4 7.3-5 15.2l-.1.2-3.6-2.4-1-.8-1-.8a69 69 0 0 1-9.3-8.8l-1.7-1.8 1-2.2q2.8-6 6.6-11.5l.7-1 .8-1 2.7-3.3a74 74 0 0 0 10.3 14.5l.6.6.2.2-.7 1.8zm4 48.8-.5-2.1-.1-.3a70 70 0 0 1-2.3-12.7l-.1-2.5v-5a77 77 0 0 0 15.2 4l.9.2q1 0 2 .3l.4 1.4v.2l.4 1.3a78 78 0 0 0 6.2 15.7q-9.8 1.4-19.7-.2zm35 26-1.5.5-1 .3a62 62 0 0 1-15.3 2h-.4l-.3-.3A69 69 0 0 1 53.6 177l-.2-.4a70 70 0 0 1-3.6-7 75 75 0 0 0 24.5-.5 71 71 0 0 0 16.4 16.5q-3.9 1.6-7.8 2.8m17.2-7.2-2 1.3-1.9-1.4h-.1a67 67 0 0 1-15-14.4q8.4-3 15.9-7.8l1-.7 1.1.8.3.2 1.1.8q7.1 5 15.1 8.1-1.3 1.6-2.8 3l-1.1 1.2-1 .8q-4.9 4.5-10.5 8zm45-8.4-.5.8q-1.4 2.9-3.3 5.6l-1 1.5-.6.8q-4.5 6.3-10.2 11.3l-.3.3h-.5a68 68 0 0 1-15.7-3.2l-.9-.3q-3.8-1.4-7.5-3 5.7-3.7 10.8-8.4l1-1 1-.9q2.7-2.7 5.2-5.8a78 78 0 0 0 8.2 1.6l1.3.1q6.5.7 13 .4zm8.4-26.4v1.1a71 71 0 0 1-3.4 15.4l-.6 2.2v.1l-.1.1h-1l-1.3.2h-.2q-6.3.6-12.8 0h-.2l-1-.2-1.3-.1-5.6-1q4.2-7.2 6.9-15l.5-1.8.4-1.2h1.6l1.4-.2q8.7-.9 17-3.6zm1.2-29.7-1.1-2.8.9-1 1.2-1.2c1-1 6.3-6.6 10.4-13.4l.1-.1 3 3.8.5.9 1.3 2 .5.8q3 5.2 5.3 10.8l.6 1.6.2.3.1.3v.1l-.2.2-.2.3-.3.2-.9.9-.2.2q-4.6 4.7-10 8.5l-2.1 1.3q-2.4 1.6-4.8 2.8a79 79 0 0 0-4.3-16.5m25.2 35.2-.2.7-.3.3a68 68 0 0 1-14.2 7.8l-.7.3-.8.4q-3.3 1.2-6.6 2 2.4-7.5 3.1-15.2l.1-1.2q.3-3.3.2-6.8a75 75 0 0 0 18.6-13.1l.2 1.1q.7 3.7 1 7.6v.3q.7 7.8-.5 15.8m12.7-62.6a70 70 0 0 1-5.9 15.3l-.7 1.3-.5 1-3.2 5a78 78 0 0 0-5.5-10.6v-.1l-1.4-2.1v-.1a82 82 0 0 0-5-6.7 76 76 0 0 0 3.4-9.7l.3-1q1.5-5.9 2.1-11.7 3 2.2 5.5 4.8l1.2 1.2.7.7q5.1 5.4 9 11.8l.2.4z"/>
            <path fill-rule="evenodd" d="M106.9 107q-3.1 3-7 5.7A47 47 0 0 1 87.5 100 47 47 0 0 1 100 87.3a47 47 0 0 1 12.5 12.7 47 47 0 0 1-5.6 7" clip-rule="evenodd"/>
        </g>
    </g>
    <g clip-path="url(#c)">
        <mask id="d" width="673" height="108" x="253" y="46" maskUnits="userSpaceOnUse" style="mask-type:luminance">
            <path fill="#fff" d="M253.3 46.7H926v106.6H253.3z"/>
        </mask>
        <g mask="url(#d)">
            <path fill="#fff" d="m442.4 50-.3 15.6-.1 2.8-1.4-2.4q-5.1-9-13.8-13.8-8.4-4.8-19-4.8a43 43 0 0 0-24 7 52 52 0 0 0-17.1 19 58 58 0 0 0-6.3 27q0 15.3 5.9 27.1a47 47 0 0 0 16.1 18.5q10.5 6.6 23.8 6.6 23.5 0 34.4-18.6l1.4-2.3v2.7l.4 15.4H465V50.1zm-7.7 73q-8.1 9-21.1 9a28 28 0 0 1-21.4-9q-8.2-8.9-8.1-23t8-22.8a28 28 0 0 1 21.5-9q13 0 21.1 9A32 32 0 0 1 443 100q0 14-8.2 22.9M543 50.4l-2 22q-6-2-12-2-12.1 0-18.8 8.8-6.5 8.7-6.5 24.5v46.1H480V50.1h22.6l.2 19.4v4.3l1.5-4q3.7-10.2 11-15.6a26 26 0 0 1 16.6-5.7 35 35 0 0 1 11 2m109.4-.2-39.1 99.6h-25L549 50.2h26.5l25.3 75.4.4 1 .3-1 26-75.4zM733 50l-.4 15.5v2.8L731 66q-5-9-13.7-13.8a43 43 0 0 0-43 2.2q-10.8 7-17.2 19-6.2 11.8-6.3 27 0 15.3 6 27.1A47 47 0 0 0 673 146q10.6 6.6 23.7 6.6 23.5 0 34.4-18.6l1.4-2.3v2.7l.5 15.4h22.4V50.1zm-7.8 72.9q-8.1 9-21.1 9a28 28 0 0 1-21.4-9q-8.2-8.9-8.1-23t8.1-22.8a28 28 0 0 1 21.4-9q13 0 21.1 9a32 32 0 0 1 8.2 22.9q0 14-8.2 22.9M926 89.5v60.3h-23.5V94.1q0-26-20-26-10.8 0-16.8 7.4A32 32 0 0 0 860 96v54h-23.3v-56q0-25.7-19.9-25.8-10.7 0-16.7 7.4-6 7.2-6 20.4v54h-23.3V50h22.6l.2 14.6v3.2L795 65c2.6-5.4 6.8-10 12-13a36 36 0 0 1 18.6-4.6q22.5 0 30.7 19.6l.7 1.6.7-1.6q4-9.1 12.8-14.4a38 38 0 0 1 19.7-5.2q17.3 0 26.5 10.8 9.3 10.8 9.3 31.3m-572.7 30.6q0 18-16.4 26.6a72 72 0 0 1-32.2 6.6q-26 0-39-9.8-12-9.1-12.3-26v-1h24.5v.9c.6 11.8 10.3 18.3 27.5 18.3 7 0 23.4-1.3 23.4-13.5 0-9.8-13.4-11.7-28.8-13.9-20.7-2.9-44.2-6.2-44.2-30 0-20 16.3-31.6 44.7-31.6 30.4 0 47.5 11.2 49.5 32.4v1.1h-24.5v-.9c-.7-7.3-7.3-15-24-15-14.2 0-22 4.4-22 12.5 0 9 13 10.6 27.9 12.5 10.2 1.2 21.8 2.7 30.6 6.8a25 25 0 0 1 15.3 24"/>
        </g>
    </g>
    <defs>
        <clipPath id="a">
            <path fill="#fff" d="M0 0h200v200H0z"/>
        </clipPath>
        <clipPath id="c">
            <path fill="#fff" d="M253.3 46.7h673.3v106.7H253.3z"/>
        </clipPath>
    </defs>
</svg>