<svg xmlns="http://www.w3.org/2000/svg" fill="none" viewBox="0 0 24 24" preserveAspectRatio="xMidYMid meet"><path stroke="#fff" stroke-linecap="round" stroke-linejoin="round" stroke-width="1.6" d="m12.983 21.186 1.051-5.558a2 2 0 0 1 1.594-1.594l5.558-1.051a1 1 0 0 0 0-1.966l-5.558-1.051a2 2 0 0 1-1.594-1.594l-1.051-5.558a1 1 0 0 0-1.966 0L9.966 8.372a2 2 0 0 1-1.594 1.594l-5.558 1.051"/><path stroke="#fff" stroke-linecap="round" stroke-linejoin="round" stroke-width="1.6" d="M1.917 17.417s1.375-3.209 4.583-3.209 4.583 3.209 4.583 3.209M19.375 5.75a1.375 1.375 0 1 0 0-2.75 1.375 1.375 0 0 0 0 2.75"/><path stroke="#fff" stroke-linecap="round" stroke-linejoin="round" stroke-width="1.7" d="m5.086 17.586 2.828 2.828m0-2.828-2.828 2.828"/></svg>