<svg xmlns="http://www.w3.org/2000/svg" fill="none" viewBox="0 0 528 320">
    <g clip-path="url(#a)">
        <rect width="526" height="84" x="1" y="45" fill="url(#b)" fill-opacity=".06" opacity=".4" rx="4"/>
        <rect width="205" height="20" x="322" y="62" fill="url(#c)" opacity=".4" rx="4"/>
        <rect width="201" height="12" x="326" y="66" fill="url(#d)" rx="2"/>
        <path stroke="#ffcd56" stroke-linecap="round" stroke-linejoin="round" stroke-width="1.17" d="M331.83 91.17h2.34m-1.17 7 1.75-1.75m-1.75 6.41a4.67 4.67 0 1 0 0-9.33 4.67 4.67 0 0 0 0 9.33"/>
        <path fill="#ffcd56" d="M345.33 98.78q0-.48.15-1 .13-.5.45-1.13.31-.63.87-1.45l2.3-3.38h1.34l-2.68 3.92q.18-.06.37-.1t.38-.04q.93 0 1.66.42.73.44 1.14 1.17.43.75.43 1.69 0 .95-.42 1.68-.42.74-1.14 1.16a3 3 0 0 1-1.65.42q-.93 0-1.66-.43a3 3 0 0 1-1.13-1.2 3.5 3.5 0 0 1-.4-1.73m1.18.08q0 .65.25 1.14.27.5.72.78.46.29 1.05.28t1.06-.27q.45-.3.71-.78.27-.49.26-1.13 0-.64-.26-1.14a1.9 1.9 0 0 0-1.77-1.05q-.6 0-1.05.28t-.72.76q-.25.49-.25 1.13m7.82-.08q0-.48.14-1 .14-.5.45-1.13.32-.63.88-1.45l2.28-3.38h1.36l-2.69 3.92.37-.1q.2-.04.39-.04.93 0 1.65.42.73.44 1.15 1.17.42.75.42 1.69 0 .95-.42 1.68-.4.74-1.14 1.16a3 3 0 0 1-1.64.42q-.94 0-1.66-.43a3 3 0 0 1-1.14-1.2 3.5 3.5 0 0 1-.4-1.73m1.17.08q0 .65.26 1.14.25.5.72.78.45.29 1.05.28t1.05-.27q.46-.3.72-.78t.26-1.13-.26-1.14a1.9 1.9 0 0 0-1.77-1.05q-.6 0-1.05.28t-.72.76-.26 1.13m10.98 3.28a3.5 3.5 0 0 1-1.57-.35 3 3 0 0 1-1.13-.95 2.6 2.6 0 0 1-.46-1.39h1.2q.06.7.62 1.15t1.34.45a2.1 2.1 0 0 0 1.89-1.1q.28-.52.28-1.17 0-.67-.3-1.19a2.2 2.2 0 0 0-1.95-1.14 3 3 0 0 0-1.77.52l-1.15-.14.62-5.01h5.29v1.1h-4.26l-.36 3h.06q.31-.25.79-.42.47-.16.98-.16a3.1 3.1 0 0 1 2.82 1.66q.42.77.42 1.76 0 .98-.43 1.74a3.2 3.2 0 0 1-2.93 1.64m6.43-.06a1 1 0 0 1-.63-.26 1 1 0 0 1-.26-.63q0-.37.26-.64a1 1 0 0 1 .63-.26q.38 0 .63.26.27.27.27.64 0 .23-.13.44a1 1 0 0 1-.32.33 1 1 0 0 1-.45.12m2.91-2.63h1.26q.05.52.35.88.3.34.78.54.49.18 1.07.17.63 0 1.15-.2.5-.22.8-.65.3-.42.3-1.05 0-.55-.26-1.03a2 2 0 0 0-.83-.77q-.57-.3-1.51-.3h-.82v-.99l2.54-3.06v-.08h-4.33v-1.1h6.03v.9l-2.73 3.3v.08a3.5 3.5 0 0 1 2.22.92 2.9 2.9 0 0 1 .46 3.68q-.44.67-1.23 1.06a4 4 0 0 1-1.8.39q-.91 0-1.67-.32t-1.24-.92-.54-1.45m9.28-.67q0-.48.14-1 .13-.5.45-1.13.31-.63.88-1.45l2.28-3.38h1.36l-2.69 3.92q.18-.06.37-.1.2-.04.39-.04.92 0 1.65.42.73.44 1.15 1.17.42.75.42 1.69 0 .95-.42 1.68-.4.74-1.14 1.16a3 3 0 0 1-1.64.42q-.94 0-1.66-.43a3 3 0 0 1-1.14-1.2 3.5 3.5 0 0 1-.4-1.73m1.17.08q0 .65.26 1.14.25.5.71.78t1.06.28 1.05-.27q.45-.3.72-.78t.26-1.13q0-.64-.26-1.14a1.9 1.9 0 0 0-1.77-1.05q-.6 0-1.06.28-.45.28-.71.76-.26.49-.26 1.13M397.7 102v-7.64h1.13v1.2h.1q.24-.62.77-.95a2.3 2.3 0 0 1 1.28-.35q.75 0 1.26.35.5.33.79.95h.08q.3-.6.88-.94.59-.36 1.4-.36 1.03 0 1.68.65.65.63.65 1.98V102h-1.17v-5.11q0-.85-.46-1.2-.46-.37-1.1-.37-.8 0-1.24.49-.44.47-.44 1.22V102h-1.2v-5.23q0-.65-.42-1.05t-1.09-.4q-.45 0-.85.24t-.64.68a2 2 0 0 0-.24.99V102zm17.5-5.93-1.05.3a2 2 0 0 0-.3-.51q-.18-.25-.5-.42-.34-.16-.85-.16a2 2 0 0 0-1.17.32q-.45.31-.46.81 0 .44.32.7.31.24 1 .42l1.13.27q1.02.25 1.52.76t.5 1.31q0 .66-.37 1.17-.38.52-1.05.82-.66.3-1.56.3-1.17 0-1.93-.5a2.3 2.3 0 0 1-.97-1.49l1.11-.28q.15.61.6.93.46.3 1.17.3.82 0 1.3-.34.5-.36.5-.85 0-.4-.29-.66a2 2 0 0 0-.85-.41l-1.27-.3a3 3 0 0 1-1.55-.77q-.48-.53-.48-1.32 0-.65.36-1.14.37-.5 1-.78.63-.3 1.44-.29 1.14 0 1.78.5t.93 1.31"/>
        <rect width="204" height="20" x="322" y="142" fill="url(#e)" opacity=".4" rx="4"/>
        <rect width="200" height="12" x="326" y="146" fill="url(#f)" rx="2"/>
        <path stroke="#95acfb" stroke-linecap="round" stroke-linejoin="round" stroke-width="1.17" d="M331.83 171.17h2.34m-1.17 7 1.75-1.75m-1.75 6.41a4.67 4.67 0 1 0 0-9.33 4.67 4.67 0 0 0 0 9.33"/>
        <path fill="#95acfb" d="M345.35 182v-.9l3.36-3.67q.6-.65.98-1.13t.56-.9.2-.9a1.7 1.7 0 0 0-.96-1.53q-.45-.22-1-.22-.59 0-1.02.25-.43.24-.67.67a2 2 0 0 0-.24 1.01h-1.17q0-.9.42-1.57.4-.68 1.12-1.05a3.4 3.4 0 0 1 1.6-.38q.9 0 1.59.38t1.08 1.02q.4.63.4 1.42 0 .56-.2 1.1a5 5 0 0 1-.7 1.19q-.5.64-1.37 1.6l-2.29 2.44v.08h4.74V182zm12.14.14a3.5 3.5 0 0 1-1.58-.35 3 3 0 0 1-1.12-.95 2.6 2.6 0 0 1-.46-1.38h1.19q.07.68.63 1.14.56.44 1.34.44a2.1 2.1 0 0 0 1.88-1.1q.3-.51.29-1.16 0-.67-.3-1.19a2.2 2.2 0 0 0-1.95-1.14q-.47 0-.96.15-.5.15-.81.37l-1.15-.14.61-5.01h5.3v1.1h-4.26l-.36 3h.06q.3-.25.78-.42.48-.15.99-.16a3.1 3.1 0 0 1 2.82 1.66q.42.77.42 1.76 0 .97-.44 1.74a3.2 3.2 0 0 1-2.92 1.64m6.4-.14 4.56-9v-.09h-5.25v-1.1h6.53v1.16l-4.54 9.03zm9.02.08a1 1 0 0 1-.63-.26 1 1 0 0 1-.26-.63q0-.37.26-.64a1 1 0 0 1 .63-.26q.38 0 .63.26.27.27.27.63 0 .25-.13.45a1 1 0 0 1-.32.33 1 1 0 0 1-.45.12m7.53-10.26V182h-1.24v-8.4h-.08q-.06.14-.35.33-.3.17-.75.3-.45.14-1.04.13v-1.03q.6 0 1.02-.21.44-.22.72-.5.3-.3.44-.53l.18-.27zm9 0V182h-1.24v-8.4h-.08q-.07.14-.36.33-.3.17-.75.3-.45.14-1.04.13v-1.03q.6 0 1.02-.21.44-.22.73-.5a3 3 0 0 0 .62-.8zM397.7 182v-7.64h1.13v1.2h.1q.24-.62.77-.95a2.3 2.3 0 0 1 1.28-.35q.75 0 1.26.35.5.33.79.95h.08q.3-.6.88-.94.59-.36 1.4-.36 1.03 0 1.68.65.65.63.65 1.98V182h-1.17v-5.11q0-.85-.46-1.2-.46-.37-1.1-.37-.8 0-1.24.49-.44.48-.44 1.22V182h-1.2v-5.23q0-.65-.42-1.05a1.5 1.5 0 0 0-1.09-.4q-.45 0-.85.24t-.64.68a2 2 0 0 0-.24.99V182zm17.5-5.93-1.05.3a2 2 0 0 0-.3-.51q-.18-.25-.5-.42-.34-.16-.85-.16a2 2 0 0 0-1.17.32q-.45.31-.46.81 0 .44.32.7.31.24 1 .42l1.13.27q1.02.25 1.52.76t.5 1.31q0 .66-.37 1.17-.38.52-1.05.82-.66.3-1.56.3-1.17 0-1.93-.5a2.3 2.3 0 0 1-.97-1.49l1.11-.28q.15.62.6.93.46.3 1.17.3.82 0 1.3-.34.5-.36.5-.85 0-.4-.29-.66a2 2 0 0 0-.85-.41l-1.27-.3a3 3 0 0 1-1.55-.77 2 2 0 0 1-.48-1.32q0-.65.36-1.14.37-.5 1-.78.63-.3 1.44-.29 1.14 0 1.78.5t.93 1.31"/>
        <rect width="140" height="20" x="322" y="222" fill="#7190f9" opacity=".4" rx="4"/>
        <g clip-path="url(#g)">
            <rect width="848" height="12" x="326" y="226" fill="#7190f9" rx="2"/>
        </g>
        <path stroke="#95acfb" stroke-linecap="round" stroke-linejoin="round" stroke-width="1.17" d="M331.83 251.17h2.34m-1.17 7 1.75-1.75m-1.75 6.41a4.67 4.67 0 1 0 0-9.33 4.67 4.67 0 0 0 0 9.33"/>
        <path fill="#95acfb" d="M349.67 251.82V262h-1.24v-8.4h-.07q-.08.14-.36.33-.3.17-.75.3-.45.14-1.04.13v-1.03q.6 0 1.02-.21.44-.22.72-.5a3 3 0 0 0 .62-.8zm4.68 10.18v-.9l3.36-3.67q.6-.65.97-1.13.39-.48.57-.9.2-.43.19-.9a1.7 1.7 0 0 0-.96-1.53q-.44-.22-1-.22t-1.02.25q-.42.24-.67.67a2 2 0 0 0-.23 1.01h-1.17q0-.9.4-1.57.42-.68 1.13-1.05a3.4 3.4 0 0 1 1.6-.38q.9 0 1.6.38.68.38 1.08 1.02.4.63.4 1.42 0 .56-.21 1.1-.2.53-.7 1.19-.49.64-1.37 1.6l-2.28 2.44v.08h4.73V262zm9.57.08a1 1 0 0 1-.63-.26 1 1 0 0 1-.27-.63q0-.37.27-.64a1 1 0 0 1 .63-.26q.36 0 .63.26.26.27.26.63 0 .26-.12.45a1 1 0 0 1-.32.33 1 1 0 0 1-.45.12m7.92-9.2.64.5-3.74 7.59-.6-.58zm-1.53 9.26q-1.12 0-1.92-.61t-1.2-1.79a9 9 0 0 1-.42-2.83q0-1.65.42-2.82t1.2-1.79a3 3 0 0 1 1.92-.62q1.12 0 1.9.62.8.61 1.22 1.79.42 1.17.42 2.82a9 9 0 0 1-.42 2.83 4 4 0 0 1-1.2 1.79q-.8.6-1.92.6m0-1.1q1.11 0 1.73-1.07t.61-3.06q0-1.32-.28-2.25a3 3 0 0 0-.8-1.42 1.8 1.8 0 0 0-1.26-.49q-1.1 0-1.73 1.1a6 6 0 0 0-.62 3.06q0 1.32.28 2.25t.8 1.4q.52.49 1.27.49m5.51-1.59h1.26q.05.52.35.88.3.35.78.54.49.18 1.07.18.63 0 1.15-.22.5-.21.8-.63t.3-1.06q0-.55-.26-1.03a2 2 0 0 0-.83-.77q-.57-.3-1.51-.3h-.82v-.99l2.54-3.06v-.08h-4.33v-1.1h6.03v.9l-2.73 3.3v.08q.66.03 1.22.27a3.2 3.2 0 0 1 1.67 1.6q.23.54.23 1.18 0 .87-.44 1.55-.44.67-1.23 1.06a4 4 0 0 1-1.8.39q-.91 0-1.67-.32t-1.24-.92-.54-1.44M388.7 262v-7.64h1.14v1.2h.1q.24-.62.77-.95.53-.35 1.28-.35t1.25.35q.5.33.8.95h.07q.3-.6.88-.94.6-.36 1.41-.36 1.02 0 1.68.65.65.63.65 1.98V262h-1.18v-5.11q0-.85-.46-1.2-.46-.37-1.09-.37-.8 0-1.25.49-.44.48-.44 1.22V262h-1.2v-5.23q0-.64-.41-1.05-.42-.4-1.1-.4-.45 0-.85.24t-.63.68q-.24.42-.24.99V262zm17.51-5.93-1.05.3a2 2 0 0 0-.3-.51q-.19-.25-.51-.42-.33-.16-.84-.16a2 2 0 0 0-1.17.32q-.45.32-.46.81 0 .44.31.7.33.24 1 .42l1.13.27q1.04.25 1.53.76.5.51.5 1.31 0 .66-.38 1.18t-1.04.81-1.56.3q-1.17 0-1.94-.5a2.3 2.3 0 0 1-.97-1.49l1.12-.28q.15.62.6.93.45.3 1.17.3.82 0 1.3-.34.5-.36.49-.85 0-.4-.28-.66a2 2 0 0 0-.86-.41l-1.27-.3a3 3 0 0 1-1.54-.77 2 2 0 0 1-.49-1.32q0-.65.37-1.14.36-.5 1-.78.63-.3 1.44-.29 1.13 0 1.78.5t.92 1.31"/>
        <rect width="95" height="29" x="1.5" y="1.5" stroke="#242834" stroke-dasharray="4 4" rx="1.5"/>
        <g stroke="#c0c1c3" stroke-linecap="round" stroke-linejoin="round" stroke-width="1.17" clip-path="url(#h)">
            <path d="m16 13.67 3.5-1.75-3.5-1.75V16m-2.33 0-3.21 1.83a.58.58 0 0 0 0 1.01l4.96 2.84a1.2 1.2 0 0 0 1.16 0l4.96-2.84a.58.58 0 0 0 0-1.01L18.34 16m-5.55.5 6.42 3.67m0-3.67-6.42 3.67"/>
        </g>
        <path fill="#c0c1c3" d="M27.58 12.21v-.94h6.55v.94h-2.75V20h-1.06v-7.79zm7.3 7.79v-6.55h.97v1h.07q.18-.5.65-.8t1.05-.3l.53.02v1.02a3 3 0 0 0-.61-.07q-.48 0-.85.2-.38.2-.6.55-.2.35-.2.79V20zm6.33.15q-.62 0-1.13-.23t-.8-.69-.3-1.09q0-.56.22-.91.22-.36.6-.55.36-.21.81-.3.45-.1.9-.16.6-.09.98-.12.38-.04.54-.14.18-.1.18-.34v-.03q0-.64-.35-.98-.34-.35-1.04-.35-.72 0-1.12.31-.42.32-.58.67l-.95-.34a2.3 2.3 0 0 1 1.61-1.4 4 4 0 0 1 1.73-.05q.42.07.8.3t.65.7q.25.46.25 1.24V20h-1v-.89h-.06q-.1.22-.34.46t-.63.41-.97.17m.15-.9a2 2 0 0 0 1.01-.23 1.6 1.6 0 0 0 .84-1.39v-.92q-.07.08-.29.14a5 5 0 0 1-1.03.18l-.42.06q-.38.04-.74.16-.33.12-.54.34a1 1 0 0 0-.2.6q0 .53.38.8.4.26 1 .26m7.29.89q-.93 0-1.59-.44a3 3 0 0 1-1.02-1.2 4 4 0 0 1-.36-1.74q0-1 .37-1.76t1.03-1.2 1.55-.43q.69 0 1.24.26.55.25.91.71t.44 1.07h-1q-.12-.45-.52-.79a1.5 1.5 0 0 0-1.05-.35q-.6 0-1.04.3a2 2 0 0 0-.68.87q-.24.55-.24 1.29 0 .75.23 1.32.25.56.69.87.45.3 1.04.31.4 0 .7-.13a1.5 1.5 0 0 0 .86-1h1a2.3 2.3 0 0 1-1.3 1.77q-.54.27-1.26.27m6.72 0q-.94 0-1.63-.42a3 3 0 0 1-1.05-1.18q-.36-.76-.37-1.76 0-1 .37-1.77.37-.78 1.03-1.2.66-.45 1.55-.44.51 0 1.01.17a2.5 2.5 0 0 1 1.56 1.56q.24.63.24 1.54v.43h-5.04v-.87h4.02q0-.55-.22-.99a1.7 1.7 0 0 0-1.57-.94q-.6 0-1.04.3-.43.3-.67.77-.23.47-.23 1.01v.58q0 .75.25 1.26.27.51.72.78.47.26 1.07.26.4 0 .72-.1.32-.12.56-.35.23-.22.36-.57l.97.27q-.15.5-.51.87-.37.37-.9.58-.52.2-1.2.2m12.14-5.22-.9.26q-.1-.23-.26-.44-.16-.22-.44-.36a2 2 0 0 0-.72-.14q-.6 0-1 .28-.4.26-.4.69 0 .37.27.6.28.21.85.35l.98.24q.88.22 1.3.66.44.43.43 1.12 0 .55-.32 1-.31.45-.9.7-.57.26-1.33.26-1 0-1.66-.44a2 2 0 0 1-.83-1.27l.95-.24q.15.54.52.8.39.26 1 .26.7 0 1.12-.3t.41-.72a.8.8 0 0 0-.23-.57q-.23-.24-.74-.35l-1.09-.26a2.6 2.6 0 0 1-1.32-.66 1.6 1.6 0 0 1-.42-1.13q0-.56.31-.98.33-.42.86-.67a3 3 0 0 1 1.24-.24q.96 0 1.52.43.56.42.8 1.12m4.42-1.47v.86h-3.4v-.86zm-2.4-1.56h1v6.24q0 .43.12.63.14.21.32.29.2.06.43.06l.27-.01.17-.04.2.9a2 2 0 0 1-.75.13q-.42 0-.83-.19-.41-.18-.67-.56a1.6 1.6 0 0 1-.27-.94zm5.77 8.26q-.62 0-1.13-.23t-.8-.69-.3-1.09q0-.56.22-.91.22-.36.6-.55.36-.21.81-.3.45-.1.91-.16.6-.09.97-.12.38-.04.54-.14.18-.1.18-.34v-.03q0-.64-.35-.98-.33-.35-1.03-.35-.72 0-1.13.31-.41.32-.58.67l-.95-.34a2.3 2.3 0 0 1 1.62-1.4 4 4 0 0 1 1.73-.05q.4.07.8.3.38.22.64.7.25.46.25 1.24V20h-1v-.89h-.05q-.1.22-.34.46t-.64.41-.97.17m.16-.9a2 2 0 0 0 1-.23 1.6 1.6 0 0 0 .84-1.39v-.92q-.07.08-.28.14a5 5 0 0 1-1.04.18l-.42.06q-.39.04-.73.16t-.55.34a1 1 0 0 0-.2.6q0 .53.38.8.4.26 1 .26m4.62.75v-6.55h.97v1h.07q.18-.5.65-.8t1.05-.3l.53.02v1.02a3 3 0 0 0-.61-.07q-.48 0-.85.2-.38.2-.6.55-.2.35-.2.79V20zm7.66-6.55v.86h-3.4v-.86zm-2.4-1.56h1v6.24q0 .43.13.63.12.21.32.29.2.06.42.06l.28-.01.17-.04.2.9a2 2 0 0 1-.75.13q-.42 0-.83-.19-.4-.18-.68-.56a1.6 1.6 0 0 1-.26-.94z"/>
        <path stroke="#1d212d" d="M16 30v39c0 1.1.9 2 2 2h26"/>
        <path stroke="#1d212d" d="M16 30v120c0 1.1.9 2 2 2h26"/>
        <path stroke="url(#i)" d="M16 30v276"/>
        <path stroke="#1d212d" d="M45 201v29c0 1.1.9 2 2 2h26"/>
        <path stroke="url(#j)" d="M45 197v105"/>
        <rect width="51" height="27" x="44.5" y="57.5" fill="#161922" rx="1.5"/>
        <rect width="51" height="27" x="44.5" y="57.5" stroke="#1d212d" rx="1.5"/>
        <path stroke="#c0c1c3" stroke-linecap="round" stroke-linejoin="round" stroke-width="1.17" d="m57.25 74.5 3.5-3.5-3.5-3.5"/>
        <path fill="#c0c1c3" d="M74.25 76.2c-1.84 0-3.14-1.14-3.25-2.83h1.17c.1 1.03.99 1.74 2.14 1.74 1.27 0 2.12-.9 2.12-2.23 0-1.36-.85-2.27-2.12-2.27-.88 0-1.61.4-2 1.1h-1.14l.5-5.57h5.4v1.08h-4.45l-.28 3.22h.11q.75-.9 2.06-.9c1.83 0 3.1 1.37 3.1 3.3 0 2-1.36 3.36-3.36 3.36m9.02.03c-2.15 0-3.33-1.84-3.33-5.16s1.18-5.15 3.33-5.15c2.14 0 3.33 1.83 3.33 5.15s-1.2 5.16-3.33 5.16m-2.13-5.16q0 .59.04 1.09l3.98-3.32q-.48-1.85-1.9-1.86c-1.39 0-2.12 1.41-2.12 4.1m2.13 4.09c1.4 0 2.12-1.42 2.12-4.09q.01-.6-.04-1.1l-3.97 3.35q.49 1.83 1.89 1.84"/>
        <path fill="#fff" d="M109.6 76h-1.19v-4.48h-4.17V76h-1.2v-9.86h1.2v4.27h4.17v-4.27h1.2zm6.26 0h-1.2v-8.76h-2.98v-1.1h7.16v1.1h-2.98zm8.94 0h-1.2v-8.76h-2.99v-1.1h7.17v1.1h-2.98zm5.36-9.86h3.28c1.91 0 3.16 1.25 3.16 3.16 0 1.9-1.26 3.16-3.19 3.16h-2.04V76h-1.21zm1.2 1.07v4.18h1.78c1.43 0 2.24-.75 2.24-2.09 0-1.35-.8-2.1-2.24-2.1zm21.98 5.77V72h-2.27v-1.03h3.49v2.1c0 1.85-1.4 3.13-3.38 3.13-2.32 0-3.66-1.56-3.66-4.26v-1.76c0-2.7 1.34-4.26 3.66-4.26 2.05 0 3.33 1.25 3.38 3.3h-1.22c-.05-1.29-.93-2.16-2.18-2.16-1.6 0-2.42 1.08-2.42 3.12v1.76c0 2.04.83 3.11 2.42 3.11 1.35 0 2.18-.79 2.18-2.08m9.66 1.91V76h-5.82v-9.86H163v1.1h-4.61v3.2h4.36v1.06h-4.36v3.4zm6.47 1.11h-1.2v-8.76h-2.99v-1.1h7.17v1.1h-2.98zm15.43.94h-1.14l4.8-11.74h1.15zm10.3-.82c-1.71 0-2.83-1.23-2.83-3.14V71.6c0-1.9 1.12-3.14 2.84-3.14 1.07 0 1.86.46 2.18 1.27h.13v-4.06h1.18V76h-1.14v-1.13h-.13c-.39.82-1.17 1.25-2.22 1.25m.35-1.06c1.21 0 2-.87 2-2.25v-1.06c0-1.37-.79-2.24-2-2.24-1.23 0-2.01.87-2.01 2.24v1.06c0 1.37.78 2.25 2 2.25m9.18-8.3a.94.94 0 0 1-.96-.95c0-.54.42-.95.96-.95.55 0 .97.4.97.95s-.42.95-.97.95m3.12 9.24h-6.15v-.96h2.54v-5.5h-2.52v-.96h3.67v6.46h2.46zm2.99-5.41c0-1.29 1.1-2.15 2.73-2.15 1.54 0 2.59.77 2.72 2h-1.12c-.13-.64-.76-1.04-1.62-1.04-.95 0-1.56.44-1.56 1.12 0 .56.39.89 1.32 1.1l1.04.23c1.44.33 2.1.96 2.1 2.03 0 1.37-1.14 2.26-2.9 2.26-1.68 0-2.8-.79-2.92-2.06h1.18c.17.68.83 1.08 1.78 1.08 1.01 0 1.66-.46 1.66-1.17 0-.59-.37-.9-1.3-1.11l-1.1-.26q-2.02-.45-2.01-2.03m12.1-2.13c1.71 0 2.84 1.24 2.84 3.14V73c0 1.9-1.13 3.13-2.84 3.13-1.07 0-1.86-.45-2.18-1.27h-.13v3.65h-1.19v-9.92h1.15v1.14h.13c.39-.82 1.16-1.26 2.22-1.26m-.34 1.07c-1.22 0-2 .87-2 2.24v1.06c0 1.38.78 2.25 2 2.25 1.23 0 2-.88 2-2.25v-1.06c0-1.37-.77-2.24-2-2.24m8.06 6.6c-1.42 0-2.36-.89-2.36-2.24 0-1.3.94-2.09 2.63-2.18l2.04-.1v-.67c0-.93-.57-1.44-1.6-1.44-.86 0-1.46.36-1.65 1h-1.14c.13-1.2 1.28-2 2.8-2 1.74 0 2.74.88 2.74 2.43V76h-1.1v-1.12h-.12c-.36.8-1.16 1.24-2.25 1.24m.33-1.02c1.12 0 1.98-.74 1.98-1.73v-.88l-1.91.09c-1.04.05-1.59.5-1.59 1.26 0 .78.58 1.26 1.52 1.26m8.09-8.52h1.14v2.01h3.01v1h-3v4.18c0 .8.58 1.24 1.62 1.24.42 0 1.16-.02 1.36-.04v.99c-.18.03-1.08.06-1.44.06-1.84 0-2.7-.7-2.7-2.24v-4.2h-1.97v-.99h1.98zm13.29 4.3h-1.15c-.15-.86-.87-1.41-1.83-1.41-1.29 0-2 .88-2 2.47v.67c0 1.6.71 2.47 2 2.47.96 0 1.68-.54 1.83-1.39h1.15c-.19 1.51-1.32 2.44-2.96 2.44-2.01 0-3.19-1.24-3.19-3.37v-.97c0-2.12 1.18-3.36 3.2-3.36 1.63 0 2.75.93 2.95 2.45m2.8 5.11V65.67h1.12v4.23h.1c.38-.93 1.24-1.45 2.37-1.45 1.62 0 2.5.97 2.5 2.74V76h-1.17v-4.51q.01-1.98-1.7-1.97c-1.23 0-2.06.85-2.06 2.12V76z"/>
        <mask id="k" fill="#fff">
            <path d="M44 87h223v30H44z"/>
        </mask>
        <path fill="#1d212d" d="M46 117V87h-4v30z" mask="url(#k)"/>
        <g stroke="#c0c1c3" stroke-linecap="round" stroke-linejoin="round" stroke-width="1.17" clip-path="url(#l)">
            <path d="M63.67 96.17h-9.34c-.64 0-1.16.52-1.16 1.16v2.34c0 .64.52 1.16 1.16 1.16h9.34c.64 0 1.16-.52 1.16-1.16v-2.34c0-.64-.52-1.16-1.16-1.16m0 7h-9.34c-.64 0-1.16.52-1.16 1.16v2.34c0 .64.52 1.16 1.16 1.16h9.34c.64 0 1.16-.52 1.16-1.16v-2.34c0-.64-.52-1.16-1.16-1.16m-8.17 2.33"/>
        </g>
        <path fill="#c0c1c3" d="M76.47 99.36v1h-4.11v-1zM73.6 107v-8.69q0-.66.3-1.1.31-.43.81-.65.49-.22 1.04-.22a3 3 0 0 1 1.11.2l-.34 1.01-.24-.07a2 2 0 0 0-.41-.05q-.59 0-.84.3-.26.3-.26.86V107zm4.46 0v-7.64h1.13v1.16h.08q.22-.57.76-.92t1.23-.36l.62.02v1.2a4 4 0 0 0-.72-.08q-.55 0-1 .23-.42.23-.68.64-.25.4-.25.92V107zm8 .16q-1.03 0-1.8-.5a3.3 3.3 0 0 1-1.22-1.37 5 5 0 0 1-.43-2.07q0-1.2.43-2.08.45-.9 1.21-1.38.78-.5 1.82-.5t1.8.5q.79.48 1.22 1.38.44.9.44 2.08t-.44 2.07a3.3 3.3 0 0 1-1.21 1.38 3.3 3.3 0 0 1-1.81.49m0-1.05q.8 0 1.3-.4.51-.42.75-1.07.24-.64.24-1.42 0-.75-.24-1.42a2.4 2.4 0 0 0-.75-1.07 2 2 0 0 0-1.3-.41 2 2 0 0 0-1.28.4 2.4 2.4 0 0 0-.76 1.08 4 4 0 0 0-.24 1.42q0 .77.24 1.42.26.67.75 1.06.5.4 1.3.4m6.36-3.7v4.6h-1.17v-7.64h1.13v1.2h.1q.27-.59.82-.94.54-.36 1.4-.36.79 0 1.37.32t.9.96q.32.63.32 1.6V107h-1.17v-4.77q0-.9-.47-1.4-.46-.51-1.28-.51-.55 0-1 .24t-.7.71-.25 1.14m10.27-3.05v1h-3.96v-1zm-2.8-1.83h1.17v7.28q0 .5.14.75.15.24.38.33.23.08.5.08l.31-.02.2-.04.24 1.05a2 2 0 0 1-.88.14q-.5 0-.97-.21a2 2 0 0 1-.79-.66q-.3-.44-.3-1.1zm7.61 9.63q-1.1 0-1.9-.49a3.3 3.3 0 0 1-1.23-1.37 5 5 0 0 1-.43-2.06q0-1.17.43-2.07.44-.9 1.2-1.4.78-.5 1.81-.5.6 0 1.18.2a3 3 0 0 1 1.82 1.81 5 5 0 0 1 .29 1.8v.5h-5.9v-1.02h4.7q0-.64-.26-1.15a1.9 1.9 0 0 0-1.83-1.1q-.7 0-1.2.36-.51.33-.79.9-.27.54-.27 1.17v.68q0 .87.3 1.47t.84.9q.53.31 1.24.31.47 0 .84-.12.38-.15.65-.4.27-.27.42-.67l1.14.32q-.18.57-.6 1.01-.43.44-1.05.68t-1.4.24m6.05-4.75V107h-1.17v-7.64h1.13v1.2h.1q.27-.59.82-.94.54-.36 1.41-.36.78 0 1.36.32t.9.96.33 1.6V107h-1.18v-4.77q0-.9-.46-1.4-.47-.51-1.29-.51-.55 0-1 .24t-.7.71-.25 1.14m9.83 4.75a3 3 0 0 1-2.83-1.85q-.4-.9-.4-2.1t.4-2.1 1.15-1.36q.75-.5 1.7-.49.76 0 1.18.25.45.25.67.56.23.3.36.5h.1v-3.75h1.17V107h-1.13v-1.17h-.14q-.12.2-.37.52-.23.32-.68.57t-1.18.24m.16-1.05q.7 0 1.2-.37.48-.38.74-1.03.25-.66.25-1.53 0-.86-.25-1.5a2 2 0 0 0-1.94-1.37q-.74 0-1.24.4-.5.37-.74 1.02a4 4 0 0 0-.24 1.45q0 .82.24 1.48.26.66.75 1.06.5.39 1.23.39"/>
        <path stroke="#c0c1c3" stroke-linecap="round" stroke-linejoin="round" stroke-width="1.17" d="M159.25 99.38v-.88a1.17 1.17 0 0 0-1.17-1.17h-8.16a1.17 1.17 0 0 0-1.17 1.17v8.17a1.17 1.17 0 0 0 1.17 1.16h2.04m4.37-11.66v2.33m-4.66-2.33v2.33m-2.92 2.33h2.92m5.53 4.37-.87-.72v-1.31"/>
        <path stroke="#c0c1c3" stroke-linecap="round" stroke-linejoin="round" stroke-width="1.17" d="M159.83 104.33a3.5 3.5 0 1 1-7 0 3.5 3.5 0 0 1 7 0"/>
        <path fill="#c0c1c3" d="M168.35 107v-.9l3.36-3.67q.6-.65.98-1.13t.56-.9.2-.9a1.7 1.7 0 0 0-.96-1.53q-.45-.22-1-.22-.59 0-1.02.25-.43.24-.67.67a2 2 0 0 0-.24 1.01h-1.17q0-.9.42-1.57.4-.67 1.12-1.05a3.4 3.4 0 0 1 1.6-.38q.9 0 1.59.38t1.08 1.02.4 1.42q0 .56-.2 1.1a5 5 0 0 1-.7 1.19q-.5.64-1.37 1.6l-2.29 2.44v.08h4.74V107zm8.72 0v-7.64h1.13v1.2h.1q.24-.62.77-.95a2.3 2.3 0 0 1 1.28-.35q.75 0 1.26.35.5.33.79.95h.08q.3-.6.88-.94.59-.36 1.4-.36 1.04 0 1.68.65.65.63.65 1.98V107h-1.17v-5.11q0-.85-.46-1.2-.47-.37-1.1-.37-.8 0-1.24.49-.44.47-.44 1.22V107h-1.2v-5.23q0-.64-.42-1.05-.42-.4-1.09-.4-.46 0-.85.24-.4.24-.64.68a2 2 0 0 0-.24.99V107zm17.5-5.93-1.05.3a2 2 0 0 0-.3-.51q-.18-.25-.5-.42-.33-.15-.85-.16a2 2 0 0 0-1.17.32q-.46.31-.46.81 0 .44.32.7.31.24 1 .42l1.13.27q1.02.25 1.52.77.5.5.5 1.3 0 .66-.37 1.17-.37.52-1.05.82-.67.3-1.56.3-1.17 0-1.93-.5a2.3 2.3 0 0 1-.97-1.49l1.11-.28q.15.61.6.93.46.3 1.17.3.82 0 1.3-.34.5-.36.5-.85 0-.4-.29-.66a2 2 0 0 0-.85-.41l-1.28-.3a3 3 0 0 1-1.54-.77 2 2 0 0 1-.48-1.32q0-.64.36-1.14.37-.5 1-.78.63-.3 1.44-.29 1.14 0 1.78.5t.92 1.31m8.6 6.09a3 3 0 0 1-2.84-1.85q-.4-.9-.41-2.1t.41-2.1 1.15-1.36q.75-.5 1.7-.49.75 0 1.18.25.44.25.67.56l.36.5h.1v-1.2h1.17V107h-1.13v-1.17h-.14l-.37.52q-.24.32-.68.57t-1.18.24m.15-1.05q.7 0 1.2-.37.48-.38.73-1.03.26-.66.26-1.53 0-.86-.25-1.5a2 2 0 0 0-1.94-1.37q-.75 0-1.24.4-.5.37-.74 1.02a4 4 0 0 0-.25 1.45q0 .82.25 1.48.26.66.75 1.06.5.39 1.23.39m8.98-6.75v1h-4.11v-1zm-2.88 7.64v-8.69q0-.66.3-1.1.32-.43.8-.65.5-.22 1.05-.22a3 3 0 0 1 1.11.2l-.34 1.01-.25-.07a2 2 0 0 0-.4-.05q-.58 0-.84.3t-.26.86V107zm7.78-7.64v1h-3.96v-1zm-2.8-1.83h1.17v7.28q0 .5.14.75.15.24.38.33.23.08.5.08l.31-.02.2-.04.24 1.05a2 2 0 0 1-.88.14q-.5 0-.97-.21a2 2 0 0 1-.79-.66q-.3-.44-.3-1.1zm7.61 9.63q-1.1 0-1.9-.49a3.3 3.3 0 0 1-1.23-1.37 5 5 0 0 1-.43-2.06q0-1.17.43-2.07.44-.9 1.2-1.4.78-.5 1.81-.5.6 0 1.18.2a3 3 0 0 1 1.82 1.81 5 5 0 0 1 .29 1.8v.5h-5.89v-1.02h4.7q0-.64-.27-1.15a1.9 1.9 0 0 0-1.82-1.1q-.7 0-1.22.36-.51.33-.78.9-.27.54-.27 1.17v.68q0 .87.3 1.47t.84.9 1.24.31q.47 0 .84-.12.38-.15.65-.4.27-.27.42-.67l1.14.32q-.18.57-.6 1.01-.43.44-1.05.68t-1.4.24m4.88-.16v-7.64h1.13v1.16h.08q.21-.57.75-.92a2.2 2.2 0 0 1 1.8-.28q.24.08.42.2l-.4 1a2 2 0 0 0-.68-.14q-.55 0-1 .23a1.7 1.7 0 0 0-.94 1.56V107zm14.58-5.93-1.05.3a2 2 0 0 0-.3-.51q-.19-.25-.51-.42-.33-.15-.84-.16a2 2 0 0 0-1.17.32q-.47.31-.47.81 0 .44.32.7.33.24 1 .42l1.13.27q1.03.25 1.53.77.5.5.5 1.3 0 .66-.38 1.17-.38.52-1.04.82-.68.3-1.56.3-1.17 0-1.94-.5a2.3 2.3 0 0 1-.97-1.49l1.12-.28q.15.61.6.93.45.3 1.17.3.81 0 1.3-.34.48-.36.49-.85 0-.4-.28-.66a2 2 0 0 0-.86-.41l-1.27-.3a3 3 0 0 1-1.54-.77 2 2 0 0 1-.49-1.32q0-.64.36-1.14.37-.5 1-.78.63-.3 1.45-.29 1.12 0 1.78.5t.92 1.31m5.16-1.7v.99h-3.96v-1zm-2.8-1.84H245v7.28q0 .5.14.75.15.24.38.33.23.08.49.08l.32-.02.2-.04.24 1.05a2 2 0 0 1-.88.14q-.5 0-.97-.21a2 2 0 0 1-.79-.66q-.3-.44-.3-1.1zm7.3 9.63a3 3 0 0 1-2.84-1.85q-.4-.9-.4-2.1t.4-2.1 1.15-1.36a3 3 0 0 1 1.7-.49q.75 0 1.18.25.45.25.67.56l.36.5h.1v-1.2h1.17V107h-1.13v-1.17h-.14q-.12.2-.37.52-.24.32-.68.57t-1.18.24m.15-1.05q.7 0 1.2-.37.48-.38.74-1.03.25-.66.25-1.53 0-.86-.25-1.5a1.95 1.95 0 0 0-1.94-1.37q-.74 0-1.24.4-.5.37-.74 1.02-.24.64-.25 1.45 0 .82.25 1.48.26.66.75 1.06.5.39 1.23.39m5.59.89v-7.64H258v1.16h.08q.2-.57.75-.92a2.2 2.2 0 0 1 1.8-.28q.24.08.41.2l-.4 1a2 2 0 0 0-.68-.14q-.55 0-.99.23a1.7 1.7 0 0 0-.94 1.56V107zm9.1-7.64v1H262v-1zm-2.8-1.83h1.17v7.28q0 .5.14.75.15.24.38.33.23.08.5.08l.3-.02.2-.04.25 1.05a2 2 0 0 1-.88.14q-.5 0-.97-.21a2 2 0 0 1-.79-.66q-.3-.44-.3-1.1z"/>
        <rect width="42" height="27" x="44.5" y="137.5" fill="#161922" rx="1.5"/>
        <rect width="42" height="27" x="44.5" y="137.5" stroke="#1d212d" rx="1.5"/>
        <path stroke="#c0c1c3" stroke-linecap="round" stroke-linejoin="round" stroke-width="1.17" d="m55.5 149.25 3.5 3.5 3.5-3.5"/>
        <path fill="#c0c1c3" d="M74.36 156.22c-2.05 0-3.48-1.18-3.48-2.86 0-1.22.8-2.22 2.01-2.51v-.11a2.2 2.2 0 0 1-1.61-2.2c0-1.54 1.28-2.62 3.08-2.62s3.08 1.08 3.08 2.62c0 1.08-.61 1.92-1.62 2.2v.1a2.5 2.5 0 0 1 2.01 2.52c0 1.68-1.42 2.86-3.47 2.86m0-5.9c1.14 0 1.9-.66 1.9-1.67s-.76-1.68-1.9-1.68-1.9.67-1.9 1.68.76 1.68 1.9 1.68m0 4.85c1.34 0 2.26-.78 2.26-1.9 0-1.13-.92-1.91-2.26-1.91s-2.26.78-2.26 1.9c0 1.13.92 1.91 2.26 1.91"/>
        <path fill="#fff" d="M100.6 156h-1.19v-4.48h-4.17V156h-1.2v-9.86h1.2v4.27h4.17v-4.27h1.2zm6.26 0h-1.2v-8.76h-2.98v-1.1h7.16v1.1h-2.98zm8.94 0h-1.2v-8.76h-2.99v-1.1h7.17v1.1h-2.98zm5.36-9.86h3.28c1.91 0 3.16 1.25 3.16 3.16 0 1.9-1.26 3.16-3.19 3.16h-2.04V156h-1.21zm1.2 1.07v4.18h1.78c1.43 0 2.24-.75 2.24-2.09 0-1.35-.8-2.1-2.24-2.1zm21.98 5.77V152h-2.27v-1.03h3.49v2.1c0 1.85-1.4 3.13-3.38 3.13-2.32 0-3.66-1.56-3.66-4.26v-1.76c0-2.7 1.34-4.26 3.66-4.26 2.05 0 3.33 1.25 3.38 3.3h-1.22c-.05-1.29-.93-2.16-2.18-2.16-1.6 0-2.42 1.08-2.42 3.12v1.76c0 2.04.83 3.11 2.42 3.11 1.35 0 2.18-.79 2.18-2.08m9.66 1.91V156h-5.82v-9.86H154v1.1h-4.61v3.2h4.36v1.06h-4.36v3.4zm6.47 1.11h-1.2v-8.76h-2.99v-1.1h7.17v1.1h-2.98zm17.27-5.2c-.68 0-1.24-.58-1.24-1.27s.56-1.27 1.24-1.27 1.23.58 1.23 1.27-.56 1.26-1.23 1.26m0 5.24c-.68 0-1.24-.57-1.24-1.26s.56-1.26 1.24-1.26 1.23.57 1.23 1.26-.56 1.26-1.23 1.26m7.1.9h-1.14l4.8-11.74h1.14zm13.85-6.05h-1.14c-.15-.86-.87-1.41-1.83-1.41-1.3 0-2 .88-2 2.47v.67c0 1.6.7 2.47 2 2.47.96 0 1.68-.54 1.83-1.39h1.14c-.18 1.51-1.3 2.44-2.95 2.44-2.02 0-3.2-1.24-3.2-3.37v-.97c0-2.12 1.19-3.36 3.2-3.36 1.64 0 2.76.93 2.95 2.45m8.88-2.3V156h-1.11v-1.3h-.1c-.4.92-1.24 1.44-2.37 1.44-1.61 0-2.49-.97-2.49-2.74v-4.82h1.17v4.52c0 1.34.54 1.97 1.7 1.97 1.22 0 2.04-.85 2.04-2.12v-4.37zm3.2 2c0-1.29 1.1-2.15 2.73-2.15 1.54 0 2.6.77 2.73 2h-1.12c-.14-.64-.76-1.04-1.63-1.04-.94 0-1.55.44-1.55 1.12 0 .56.38.89 1.31 1.1l1.05.23c1.44.33 2.1.96 2.1 2.03 0 1.37-1.15 2.26-2.9 2.26-1.69 0-2.8-.79-2.93-2.06h1.18c.17.68.83 1.08 1.79 1.08 1 0 1.65-.46 1.65-1.17 0-.59-.36-.9-1.3-1.11l-1.1-.26q-2-.45-2-2.03m10.37-4h1.15v2.01h3v1h-2.98v4.18q.02 1.22 1.6 1.24c.43 0 1.17-.02 1.37-.04v.99c-.19.03-1.09.06-1.44.06-1.84 0-2.7-.7-2.7-2.24v-4.2h-1.97v-.99h1.97zm10.2 9.55c-1.96 0-3.21-1.28-3.21-3.28v-1.13c0-2 1.25-3.28 3.21-3.28s3.21 1.28 3.21 3.28v1.13c0 2-1.25 3.28-3.2 3.28m0-6.66c-1.27 0-2.06.9-2.06 2.36v.9c0 1.47.79 2.36 2.06 2.36s2.07-.9 2.07-2.35v-.91c0-1.46-.8-2.36-2.07-2.36m12.51 1.06V156h-1.04v-5.12q0-1.36-.96-1.37c-.64 0-1.04.56-1.04 1.49v5h-1.04v-5.13q0-1.36-.96-1.36c-.65 0-1.06.56-1.06 1.49v5h-1.05v-7.42h1.04v1.05h.12c.19-.75.72-1.18 1.42-1.18s1.19.43 1.34 1.16h.13c.19-.71.78-1.16 1.53-1.16q1.56.01 1.57 2.09m7.36 3.55h1.13c-.22 1.22-1.4 2.05-2.96 2.05-2.04 0-3.22-1.23-3.22-3.34v-1.11c0-1.96 1.25-3.24 3.14-3.24 1.93 0 3.06 1.28 3.06 3.42v.73h-5.05v.3c0 1.36.8 2.23 2.07 2.23.94 0 1.63-.4 1.83-1.04m-1.92-4.65c-1.23 0-1.98.85-1.98 2.27h3.9c0-1.41-.72-2.27-1.92-2.27m8.56 3.24v2.39h2.3v.93h-4.93v-.93h1.5v-5.56h-1.65v-.93h2.77v1.9h.15c.27-1.38 1.2-2.09 2.62-2.09.43 0 .83.06 1.08.17v1.3c-.35-.12-.82-.2-1.23-.2-1.64 0-2.6 1.13-2.6 3.02"/>
        <mask id="m" fill="#fff">
            <path d="M44 167h223v30H44z"/>
        </mask>
        <path fill="#1d212d" d="M46 197v-30h-4v30z" mask="url(#m)"/>
        <g stroke="#c0c1c3" stroke-linecap="round" stroke-linejoin="round" stroke-width="1.17" clip-path="url(#n)">
            <path d="M63.67 176.17h-9.34c-.64 0-1.16.52-1.16 1.16v2.34c0 .64.52 1.16 1.16 1.16h9.34c.64 0 1.16-.52 1.16-1.16v-2.34c0-.64-.52-1.16-1.16-1.16m0 7h-9.34c-.64 0-1.16.52-1.16 1.16v2.34c0 .64.52 1.16 1.16 1.16h9.34c.64 0 1.16-.52 1.16-1.16v-2.34c0-.64-.52-1.16-1.16-1.16m-8.17 2.33"/>
        </g>
        <path fill="#c0c1c3" d="M76.47 179.36v1h-4.11v-1zM73.6 187v-8.69q0-.66.3-1.1.31-.43.81-.65.49-.22 1.04-.22a3 3 0 0 1 1.11.2l-.34 1.01-.24-.07q-.15-.04-.41-.04-.59 0-.84.29-.26.3-.26.86V187zm4.46 0v-7.64h1.13v1.16h.08q.22-.57.76-.92t1.23-.36l.62.02v1.2a4 4 0 0 0-.72-.08q-.55 0-1 .23-.42.23-.68.64-.25.4-.25.92V187zm8 .16q-1.03 0-1.8-.5a3.3 3.3 0 0 1-1.22-1.37 5 5 0 0 1-.43-2.07q0-1.2.43-2.08.45-.9 1.21-1.38.78-.5 1.82-.5t1.8.5q.79.49 1.22 1.38.44.9.44 2.08t-.44 2.07a3.3 3.3 0 0 1-1.21 1.38 3.3 3.3 0 0 1-1.81.49m0-1.06q.8 0 1.3-.4.51-.4.75-1.06.24-.64.24-1.42 0-.75-.24-1.43a2.4 2.4 0 0 0-.75-1.06 2 2 0 0 0-1.3-.41 2 2 0 0 0-1.28.4 2.4 2.4 0 0 0-.76 1.07 4 4 0 0 0-.24 1.43q0 .77.24 1.42.26.67.75 1.06.5.4 1.3.4m6.36-3.7v4.6h-1.17v-7.64h1.13v1.2h.1q.27-.59.82-.94.54-.36 1.4-.36.79 0 1.37.32.58.31.9.96.32.63.32 1.6V187h-1.17v-4.77q0-.9-.47-1.4-.46-.51-1.28-.51-.55 0-1 .24t-.7.71-.25 1.14m10.27-3.04v1h-3.96v-1zm-2.8-1.83h1.17v7.28q0 .5.14.75.15.24.38.33.23.08.5.08l.31-.02.2-.04.24 1.05a2 2 0 0 1-.88.14q-.5 0-.97-.21a2 2 0 0 1-.79-.66q-.3-.44-.3-1.1zm7.61 9.63q-1.1 0-1.9-.49a3.3 3.3 0 0 1-1.23-1.37 5 5 0 0 1-.43-2.06q0-1.17.43-2.07.44-.9 1.2-1.4.78-.5 1.81-.5.6 0 1.18.2a3 3 0 0 1 1.82 1.81 5 5 0 0 1 .29 1.8v.5h-5.9v-1.02h4.7q0-.64-.26-1.15a1.9 1.9 0 0 0-1.83-1.1q-.7 0-1.2.36-.51.34-.79.9-.27.54-.27 1.17v.68q0 .87.3 1.47t.84.9q.53.31 1.24.31.47 0 .84-.12.38-.15.65-.4.27-.27.42-.67l1.14.32q-.18.58-.6 1.01-.43.45-1.05.68t-1.4.24m6.05-4.75V187h-1.17v-7.64h1.13v1.2h.1q.27-.59.82-.94.54-.36 1.41-.36.78 0 1.36.32.59.31.9.96.33.63.33 1.6V187h-1.18v-4.77q0-.9-.46-1.4-.47-.51-1.29-.51-.55 0-1 .24t-.7.71-.25 1.14m9.83 4.75a3 3 0 0 1-2.83-1.85q-.4-.9-.4-2.1t.4-2.1 1.15-1.36q.75-.48 1.7-.49.76 0 1.18.25.45.25.67.56.23.3.36.5h.1v-3.75h1.17V187h-1.13v-1.17h-.14q-.12.2-.37.52-.23.32-.68.56t-1.18.25m.16-1.06q.7 0 1.2-.36.48-.38.74-1.03.25-.66.25-1.53 0-.85-.25-1.5a2 2 0 0 0-1.94-1.37q-.74 0-1.24.4-.5.37-.74 1.02a4 4 0 0 0-.24 1.45q0 .81.24 1.48.26.67.75 1.06.5.39 1.23.38"/>
        <path stroke="#c0c1c3" stroke-linecap="round" stroke-linejoin="round" stroke-width="1.17" d="M159.25 179.38v-.88a1.17 1.17 0 0 0-1.17-1.17h-8.16a1.17 1.17 0 0 0-1.17 1.17v8.17a1.17 1.17 0 0 0 1.17 1.16h2.04m4.37-11.66v2.33m-4.66-2.33v2.33m-2.92 2.33h2.92m5.53 4.37-.87-.72v-1.31"/>
        <path stroke="#c0c1c3" stroke-linecap="round" stroke-linejoin="round" stroke-width="1.17" d="M159.83 184.33a3.5 3.5 0 1 1-7 0 3.5 3.5 0 0 1 7 0"/>
        <path fill="#c0c1c3" d="M168.35 187v-.9l3.36-3.67q.6-.65.98-1.13t.56-.9.2-.9a1.7 1.7 0 0 0-.96-1.53q-.45-.22-1-.22-.59 0-1.02.25-.43.24-.67.67a2 2 0 0 0-.24 1.01h-1.17q0-.9.42-1.57.4-.68 1.12-1.05a3.4 3.4 0 0 1 1.6-.38q.9 0 1.59.38t1.08 1.02q.4.63.4 1.42 0 .56-.2 1.1a5 5 0 0 1-.7 1.19q-.5.64-1.37 1.6l-2.29 2.44v.08h4.74V187zm8.72 0v-7.64h1.13v1.2h.1q.24-.62.77-.95.54-.35 1.28-.35.75 0 1.26.35.5.33.79.95h.08q.3-.6.88-.94.59-.36 1.4-.36 1.04 0 1.68.65.65.63.65 1.98V187h-1.17v-5.11q0-.85-.46-1.2-.47-.37-1.1-.37-.8 0-1.24.49-.44.48-.44 1.22V187h-1.2v-5.23q0-.65-.42-1.05t-1.09-.4q-.46 0-.85.24-.4.24-.64.68a2 2 0 0 0-.24.99V187zm17.5-5.93-1.05.3a2 2 0 0 0-.3-.51q-.18-.25-.5-.42-.33-.16-.85-.16a2 2 0 0 0-1.17.32q-.46.31-.46.81 0 .44.32.7.31.24 1 .42l1.13.27q1.02.25 1.52.76t.5 1.31q0 .66-.37 1.17-.37.52-1.05.82-.67.3-1.56.3-1.17 0-1.93-.5a2.3 2.3 0 0 1-.97-1.49l1.11-.28q.15.62.6.93.46.3 1.17.3.82 0 1.3-.34.5-.36.5-.85 0-.4-.29-.66a2 2 0 0 0-.85-.41l-1.28-.3a3 3 0 0 1-1.54-.77 2 2 0 0 1-.48-1.32q0-.65.36-1.14.37-.5 1-.78.63-.3 1.44-.29 1.14 0 1.78.5t.92 1.31m8.6 6.09a3 3 0 0 1-2.84-1.85q-.4-.9-.41-2.1t.41-2.1 1.15-1.36q.75-.48 1.7-.49.75 0 1.18.25.44.25.67.56l.36.5h.1v-1.2h1.17V187h-1.13v-1.17h-.14l-.37.52q-.24.32-.68.56t-1.18.25m.15-1.06q.7 0 1.2-.36.48-.38.73-1.03.26-.66.26-1.53 0-.85-.25-1.5a2 2 0 0 0-1.94-1.37q-.75 0-1.24.4-.5.37-.74 1.02a4 4 0 0 0-.25 1.45q0 .81.25 1.48.26.67.75 1.06.5.39 1.23.38m8.98-6.74v1h-4.11v-1zm-2.88 7.64v-8.69q0-.66.3-1.1.32-.43.8-.65.5-.22 1.05-.22a3 3 0 0 1 1.11.2l-.34 1.01-.25-.07q-.15-.04-.4-.04-.58 0-.84.29-.26.3-.26.86V187zm7.78-7.64v1h-3.96v-1zm-2.8-1.83h1.17v7.28q0 .5.14.75.15.24.38.33.23.08.5.08l.31-.02.2-.04.24 1.05a2 2 0 0 1-.88.14q-.5 0-.97-.21a2 2 0 0 1-.79-.66q-.3-.44-.3-1.1zm7.61 9.63q-1.1 0-1.9-.49a3.3 3.3 0 0 1-1.23-1.37 5 5 0 0 1-.43-2.06q0-1.17.43-2.07.44-.9 1.2-1.4.78-.5 1.81-.5.6 0 1.18.2a3 3 0 0 1 1.82 1.81 5 5 0 0 1 .29 1.8v.5h-5.89v-1.02h4.7q0-.64-.27-1.15a1.9 1.9 0 0 0-1.82-1.1q-.7 0-1.22.36-.51.34-.78.9-.27.54-.27 1.17v.68q0 .87.3 1.47t.84.9 1.24.31q.47 0 .84-.12.38-.15.65-.4.27-.27.42-.67l1.14.32q-.18.58-.6 1.01-.43.45-1.05.68t-1.4.24m4.88-.16v-7.64h1.13v1.16h.08q.21-.57.75-.92a2.2 2.2 0 0 1 1.8-.28q.24.08.42.2l-.4 1a2 2 0 0 0-.68-.14q-.55 0-1 .23a1.7 1.7 0 0 0-.94 1.56V187zm14.58-5.93-1.05.3a2 2 0 0 0-.3-.51q-.19-.25-.51-.42-.33-.16-.84-.16a2 2 0 0 0-1.17.32q-.47.31-.47.81 0 .44.32.7.33.24 1 .42l1.13.27q1.03.25 1.53.76t.5 1.31q0 .66-.38 1.17-.38.52-1.04.82-.68.3-1.56.3-1.17 0-1.94-.5a2.3 2.3 0 0 1-.97-1.49l1.12-.28q.15.62.6.93.45.3 1.17.3.81 0 1.3-.34.48-.36.49-.85 0-.4-.28-.66a2 2 0 0 0-.86-.41l-1.27-.3a3 3 0 0 1-1.54-.77 2 2 0 0 1-.49-1.32q0-.65.36-1.14.37-.5 1-.78.63-.3 1.45-.29 1.12 0 1.78.5t.92 1.31m5.16-1.7v.99h-3.96v-1zm-2.8-1.84H245v7.28q0 .5.14.75.15.24.38.33.23.08.49.08l.32-.02.2-.04.24 1.05a2 2 0 0 1-.88.14q-.5 0-.97-.21a2 2 0 0 1-.79-.66q-.3-.44-.3-1.1zm7.3 9.63a3 3 0 0 1-2.84-1.85q-.4-.9-.4-2.1t.4-2.1 1.15-1.36a3 3 0 0 1 1.7-.49q.75 0 1.18.25.45.25.67.56l.36.5h.1v-1.2h1.17V187h-1.13v-1.17h-.14q-.12.2-.37.52-.24.32-.68.56t-1.18.25m.15-1.06q.7 0 1.2-.36.48-.38.74-1.03.25-.66.25-1.53 0-.85-.25-1.5a1.95 1.95 0 0 0-1.94-1.37q-.74 0-1.24.4-.5.37-.74 1.02t-.25 1.45q0 .81.25 1.48.26.67.75 1.06.5.39 1.23.38m5.59.9v-7.64H258v1.16h.08q.2-.57.75-.92a2.2 2.2 0 0 1 1.8-.28q.24.08.41.2l-.4 1a2 2 0 0 0-.68-.14q-.55 0-.99.23a1.7 1.7 0 0 0-.94 1.56V187zm9.1-7.64v1H262v-1zm-2.8-1.83h1.17v7.28q0 .5.14.75.15.24.38.33.23.08.5.08l.3-.02.2-.04.25 1.05a2 2 0 0 1-.88.14q-.5 0-.97-.21a2 2 0 0 1-.79-.66q-.3-.44-.3-1.1z"/>
        <rect width="42" height="27" x="73.5" y="217.5" fill="#161922" rx="1.5"/>
        <rect width="42" height="27" x="73.5" y="217.5" stroke="#1d212d" rx="1.5"/>
        <path stroke="#c0c1c3" stroke-linecap="round" stroke-linejoin="round" stroke-width="1.17" d="m84.5 229.25 3.5 3.5 3.5-3.5"/>
        <path fill="#c0c1c3" d="M100.18 228.91c0-1.73 1.29-2.98 3.09-2.98s3.05 1.12 3.05 2.77c0 1.03-.46 1.84-2.04 3.56l-2.32 2.53v.12h4.52V236h-6.24v-.83l3.33-3.72c1.25-1.4 1.56-1.92 1.56-2.7 0-1.06-.75-1.76-1.9-1.76-1.13 0-1.89.76-1.89 1.92v.04h-1.16z"/>
        <path fill="#fff" d="M129.6 236h-1.19v-4.48h-4.17V236h-1.2v-9.86h1.2v4.27h4.17v-4.27h1.2zm6.26 0h-1.2v-8.76h-2.98v-1.1h7.16v1.1h-2.98zm8.94 0h-1.2v-8.76h-2.99v-1.1h7.17v1.1h-2.98zm5.36-9.86h3.28c1.91 0 3.16 1.25 3.16 3.16 0 1.9-1.26 3.16-3.19 3.16h-2.04V236h-1.21zm1.2 1.07v4.18h1.78c1.43 0 2.24-.75 2.24-2.09 0-1.35-.8-2.1-2.24-2.1zm21.98 5.77V232h-2.27v-1.03h3.49v2.1c0 1.85-1.4 3.13-3.38 3.13-2.32 0-3.66-1.56-3.66-4.26v-1.76c0-2.7 1.34-4.26 3.66-4.26 2.05 0 3.33 1.25 3.38 3.3h-1.22c-.05-1.29-.93-2.16-2.18-2.16-1.6 0-2.42 1.08-2.42 3.12v1.76c0 2.04.83 3.11 2.42 3.11 1.35 0 2.18-.79 2.18-2.08m9.66 1.91V236h-5.82v-9.86H183v1.1h-4.61v3.2h4.36v1.06h-4.36v3.4zm6.47 1.11h-1.2v-8.76h-2.99v-1.1h7.17v1.1h-2.98z"/>
        <mask id="o" fill="#fff">
            <path d="M73 247h223v30H73z"/>
        </mask>
        <path fill="#1d212d" d="M75 277v-30h-4v30z" mask="url(#o)"/>
        <g stroke="#c0c1c3" stroke-linecap="round" stroke-linejoin="round" stroke-width="1.17" clip-path="url(#p)">
            <path d="M92.67 256.17h-9.34c-.64 0-1.16.52-1.16 1.16v2.34c0 .64.52 1.16 1.16 1.16h9.34c.64 0 1.16-.52 1.16-1.16v-2.34c0-.64-.52-1.16-1.16-1.16m0 7h-9.34c-.64 0-1.16.52-1.16 1.16v2.34c0 .64.52 1.16 1.16 1.16h9.34c.64 0 1.16-.52 1.16-1.16v-2.34c0-.64-.52-1.16-1.16-1.16m-8.17 2.33"/>
        </g>
        <path fill="#c0c1c3" d="M105.47 259.36v1h-4.11v-1zM102.6 267v-8.69q0-.66.3-1.1.32-.43.81-.65t1.04-.22a3 3 0 0 1 1.11.2l-.34 1.01-.24-.07q-.15-.05-.41-.05-.59 0-.84.3-.26.3-.26.86V267zm4.46 0v-7.64h1.13v1.16h.08q.22-.57.76-.92t1.23-.36l.62.02v1.2a4 4 0 0 0-.72-.08q-.55 0-1 .23-.42.23-.68.64-.25.4-.25.92V267zm8 .16q-1.03 0-1.8-.5a3.3 3.3 0 0 1-1.22-1.37 5 5 0 0 1-.43-2.07q0-1.2.43-2.08.45-.9 1.21-1.38.78-.5 1.82-.5t1.8.5q.79.49 1.22 1.38.45.9.44 2.08 0 1.19-.44 2.07t-1.21 1.38a3.3 3.3 0 0 1-1.81.49m0-1.06q.8 0 1.3-.4.51-.4.75-1.06.25-.64.25-1.42 0-.75-.25-1.43a2.4 2.4 0 0 0-.75-1.06 2 2 0 0 0-1.3-.41 2 2 0 0 0-1.28.4q-.52.41-.76 1.07a4 4 0 0 0-.24 1.43q0 .77.24 1.42.26.67.75 1.06.5.4 1.3.4m6.36-3.7v4.6h-1.17v-7.64h1.13v1.2h.1q.27-.59.82-.94.54-.36 1.4-.36.79 0 1.37.32.58.31.9.96.32.63.32 1.6V267h-1.17v-4.77q0-.9-.47-1.4-.45-.51-1.28-.51-.55 0-1 .24t-.7.71-.25 1.14m10.27-3.04v1h-3.96v-1zm-2.8-1.83h1.17v7.28q0 .5.14.75.15.24.38.33.23.08.5.08l.31-.02.2-.04.24 1.05a2 2 0 0 1-.88.14q-.5 0-.97-.21a2 2 0 0 1-.79-.66q-.3-.44-.3-1.1zm7.61 9.63q-1.1 0-1.9-.49a3.3 3.3 0 0 1-1.23-1.37 5 5 0 0 1-.43-2.06q0-1.17.43-2.07.44-.9 1.2-1.4.78-.5 1.81-.5.6 0 1.18.2a3 3 0 0 1 1.82 1.81 5 5 0 0 1 .29 1.8v.5h-5.9v-1.01h4.7q0-.66-.26-1.16a1.9 1.9 0 0 0-1.82-1.1q-.7 0-1.22.36-.51.33-.78.9-.27.54-.27 1.17v.68q0 .87.3 1.47t.84.9q.53.31 1.24.31.47 0 .84-.12.38-.15.65-.4.27-.27.42-.67l1.14.32q-.18.57-.6 1.01-.43.44-1.05.68t-1.4.24m6.05-4.75V267h-1.17v-7.64h1.13v1.2h.1q.27-.59.82-.94.54-.36 1.41-.36.78 0 1.36.32.58.31.9.96.33.63.33 1.6V267h-1.18v-4.77q0-.9-.47-1.4-.45-.51-1.28-.51-.55 0-1 .24t-.7.71-.25 1.14m9.83 4.75a3 3 0 0 1-2.83-1.86q-.4-.88-.4-2.1 0-1.2.4-2.09.42-.88 1.15-1.36.75-.49 1.7-.49.75 0 1.18.25.45.25.67.56l.36.5h.1v-3.75h1.17V267h-1.13v-1.17h-.14q-.12.2-.37.52-.23.32-.68.56t-1.18.25m.16-1.06q.7 0 1.2-.36.48-.38.74-1.03.25-.66.25-1.53 0-.86-.25-1.5a2 2 0 0 0-1.94-1.37q-.74 0-1.24.4-.49.37-.74 1.02a4 4 0 0 0-.25 1.45q0 .82.25 1.48.25.67.75 1.06.5.38 1.23.38"/>
        <path stroke="#c0c1c3" stroke-linecap="round" stroke-linejoin="round" stroke-width="1.17" d="M188.25 259.38v-.88a1.17 1.17 0 0 0-1.17-1.17h-8.16a1.17 1.17 0 0 0-1.17 1.17v8.17a1.17 1.17 0 0 0 1.17 1.16h2.04m4.37-11.66v2.33m-4.66-2.33v2.33m-2.92 2.33h2.92m5.53 4.37-.87-.72v-1.31"/>
        <path stroke="#c0c1c3" stroke-linecap="round" stroke-linejoin="round" stroke-width="1.17" d="M188.83 264.33a3.5 3.5 0 1 1-7 0 3.5 3.5 0 0 1 7 0"/>
        <path fill="#c0c1c3" d="M197.35 267v-.9l3.36-3.67q.6-.65.98-1.13t.56-.9.2-.9a1.7 1.7 0 0 0-.96-1.53q-.45-.22-1-.22-.59 0-1.02.25-.43.24-.67.67a2 2 0 0 0-.24 1.01h-1.17q0-.9.42-1.57.4-.67 1.12-1.05a3.4 3.4 0 0 1 1.6-.38q.9 0 1.59.38t1.08 1.02.4 1.42q0 .56-.2 1.1a5 5 0 0 1-.7 1.19q-.5.64-1.37 1.6l-2.29 2.44v.08h4.74V267zm8.72 0v-7.64h1.13v1.2h.1q.24-.62.77-.95.54-.35 1.28-.35.75 0 1.26.35.5.33.79.95h.08q.3-.6.88-.94.59-.36 1.4-.36 1.04 0 1.68.65.65.63.65 1.98V267h-1.17v-5.11q0-.85-.46-1.2-.47-.37-1.1-.37-.8 0-1.24.49-.44.48-.44 1.22V267h-1.2v-5.23q0-.64-.42-1.05-.42-.4-1.09-.4-.46 0-.85.24-.4.24-.64.68a2 2 0 0 0-.24.99V267zm17.5-5.93-1.05.3a2 2 0 0 0-.3-.51q-.18-.25-.5-.42-.33-.15-.85-.16a2 2 0 0 0-1.17.32q-.46.32-.46.81 0 .44.32.7.31.24 1 .42l1.13.27q1.02.25 1.52.76t.5 1.31q0 .66-.37 1.18t-1.05.81-1.56.3q-1.17 0-1.93-.5a2.3 2.3 0 0 1-.97-1.49l1.11-.28q.15.62.6.93.46.3 1.17.3.82 0 1.3-.34.5-.36.5-.85 0-.4-.29-.66a2 2 0 0 0-.85-.41l-1.28-.3a3 3 0 0 1-1.54-.77 2 2 0 0 1-.48-1.32q0-.64.36-1.14.37-.5 1-.78.63-.3 1.44-.29 1.14 0 1.78.5t.92 1.31m8.6 6.09a3 3 0 0 1-2.84-1.86q-.4-.88-.41-2.1 0-1.2.41-2.09.42-.88 1.15-1.36.75-.49 1.7-.49.75 0 1.18.25.44.25.67.56l.36.5h.1v-1.2h1.17V267h-1.13v-1.17h-.14l-.37.52q-.24.32-.68.56t-1.18.25m.15-1.06q.7 0 1.2-.36.48-.38.73-1.03.26-.66.26-1.53 0-.86-.25-1.5a2 2 0 0 0-1.94-1.37q-.75 0-1.24.4-.5.37-.74 1.02a4 4 0 0 0-.25 1.45q0 .82.25 1.48.26.67.75 1.06.5.38 1.23.38m8.98-6.74v1h-4.11v-1zm-2.88 7.64v-8.69q0-.66.3-1.1.32-.43.8-.65.5-.22 1.05-.22a3 3 0 0 1 1.11.2l-.34 1.01-.25-.07q-.15-.05-.4-.05-.58 0-.84.3t-.26.86V267zm7.78-7.64v1h-3.96v-1zm-2.8-1.83h1.17v7.28q0 .5.14.75.15.24.38.33.23.08.5.08l.31-.02.2-.04.24 1.05a2 2 0 0 1-.88.14q-.5 0-.97-.21a2 2 0 0 1-.79-.66q-.3-.44-.3-1.1zm7.61 9.63q-1.1 0-1.9-.49a3.3 3.3 0 0 1-1.23-1.37 5 5 0 0 1-.43-2.06q0-1.17.43-2.07.44-.9 1.2-1.4.78-.5 1.81-.5.6 0 1.18.2a3 3 0 0 1 1.82 1.81 5 5 0 0 1 .29 1.8v.5h-5.89v-1.01h4.7q0-.66-.27-1.16a1.9 1.9 0 0 0-1.82-1.1q-.7 0-1.22.36-.51.33-.78.9-.27.54-.27 1.17v.68q0 .87.3 1.47t.84.9q.53.31 1.24.31.47 0 .84-.12.38-.15.65-.4.27-.27.42-.67l1.14.32q-.18.57-.6 1.01-.43.44-1.05.68t-1.4.24m4.88-.16v-7.64h1.13v1.16h.08q.21-.57.75-.92a2.2 2.2 0 0 1 1.8-.28q.24.08.42.2l-.4 1a2 2 0 0 0-.68-.14q-.55 0-1 .23a1.7 1.7 0 0 0-.94 1.56V267zm14.58-5.93-1.05.3a2 2 0 0 0-.3-.51q-.19-.25-.51-.42-.33-.15-.84-.16a2 2 0 0 0-1.17.32q-.47.32-.47.81 0 .44.32.7.33.24 1 .42l1.13.27q1.03.25 1.53.76t.5 1.31q0 .66-.38 1.18t-1.04.81q-.68.3-1.56.3-1.17 0-1.94-.5a2.3 2.3 0 0 1-.97-1.49l1.12-.28q.15.62.6.93.45.3 1.17.3.81 0 1.3-.34.49-.36.49-.85 0-.4-.28-.66a2 2 0 0 0-.86-.41l-1.27-.3a3 3 0 0 1-1.54-.77 2 2 0 0 1-.49-1.32q0-.64.37-1.14.36-.5 1-.78.63-.3 1.44-.29 1.13 0 1.78.5t.92 1.31m5.16-1.7v.99h-3.96v-1zm-2.8-1.84H274v7.28q0 .5.14.75.15.24.38.33.23.08.49.08l.32-.02.2-.04.24 1.05a2 2 0 0 1-.88.14q-.5 0-.97-.21a2 2 0 0 1-.79-.66q-.3-.44-.3-1.1zm7.3 9.63a3 3 0 0 1-2.84-1.86q-.4-.88-.4-2.1 0-1.2.4-2.09.42-.88 1.15-1.36a3 3 0 0 1 1.7-.49q.75 0 1.18.25.44.25.67.56l.36.5h.1v-1.2h1.17V267h-1.13v-1.17h-.14q-.12.2-.37.52-.24.32-.68.56t-1.18.25m.15-1.06q.7 0 1.2-.36.48-.38.74-1.03.25-.66.25-1.53 0-.86-.25-1.5a1.95 1.95 0 0 0-1.94-1.37q-.74 0-1.24.4-.5.37-.74 1.02-.25.64-.25 1.45 0 .82.25 1.48.26.67.75 1.06.5.38 1.23.38m5.59.9v-7.64H287v1.16h.08q.2-.57.75-.92a2.2 2.2 0 0 1 1.8-.28q.24.08.41.2l-.4 1a2 2 0 0 0-.68-.14q-.55 0-.99.23a1.7 1.7 0 0 0-.94 1.56V267zm9.1-7.64v1H291v-1zm-2.8-1.83h1.17v7.28q0 .5.14.75.15.24.38.33.23.08.5.08l.3-.02.2-.04.25 1.05a2 2 0 0 1-.88.14q-.5 0-.97-.21a2 2 0 0 1-.79-.66q-.3-.44-.3-1.1z"/>
    </g>
    <defs>
        <linearGradient id="b" x1="1" x2="527" y1="87" y2="87" gradientUnits="userSpaceOnUse">
            <stop offset=".27" stop-color="#abbdff"/>
            <stop offset="1" stop-color="#abbdff" stop-opacity="0"/>
        </linearGradient>
        <linearGradient id="c" x1="322" x2="527" y1="72" y2="72" gradientUnits="userSpaceOnUse">
            <stop stop-color="#ffd464"/>
            <stop offset="1" stop-color="#ffd464" stop-opacity="0"/>
        </linearGradient>
        <linearGradient id="d" x1="326" x2="527" y1="72" y2="72" gradientUnits="userSpaceOnUse">
            <stop stop-color="#ffd464"/>
            <stop offset="1" stop-color="#ffd464" stop-opacity="0"/>
        </linearGradient>
        <linearGradient id="e" x1="322" x2="526" y1="152" y2="152" gradientUnits="userSpaceOnUse">
            <stop stop-color="#7190f9"/>
            <stop offset="1" stop-color="#7190f9" stop-opacity="0"/>
        </linearGradient>
        <linearGradient id="f" x1="326" x2="526" y1="152" y2="152" gradientUnits="userSpaceOnUse">
            <stop stop-color="#7190f9"/>
            <stop offset="1" stop-color="#7190f9" stop-opacity="0"/>
        </linearGradient>
        <linearGradient id="i" x1="16.5" x2="16" y1="30" y2="306" gradientUnits="userSpaceOnUse">
            <stop offset=".46" stop-color="#1d212d"/>
            <stop offset=".7" stop-color="#1d212d" stop-opacity="0"/>
        </linearGradient>
        <linearGradient id="j" x1="45.5" x2="45.5" y1="197" y2="302" gradientUnits="userSpaceOnUse">
            <stop offset=".53" stop-color="#1d212d"/>
            <stop offset="1" stop-color="#1d212d" stop-opacity="0"/>
        </linearGradient>
        <clipPath id="a">
            <path fill="#fff" d="M0 0h528v320H0z"/>
        </clipPath>
        <clipPath id="g">
            <rect width="132" height="12" x="326" y="226" fill="#fff" rx="2"/>
        </clipPath>
        <clipPath id="h">
            <path fill="#fff" d="M9 9h14v14H9z"/>
        </clipPath>
        <clipPath id="l">
            <path fill="#fff" d="M52 95h14v14H52z"/>
        </clipPath>
        <clipPath id="n">
            <path fill="#fff" d="M52 175h14v14H52z"/>
        </clipPath>
        <clipPath id="p">
            <path fill="#fff" d="M81 255h14v14H81z"/>
        </clipPath>
    </defs>
</svg>