<svg xmlns="http://www.w3.org/2000/svg" fill="none" viewBox="0 0 528 320">
    <path fill="#0b0c0e" d="M19 37.5h106c1.4 0 2.5 1.1 2.5 2.5v83.5h-111V40c0-1.4 1.1-2.5 2.5-2.5"/>
    <path stroke="#1d212d" d="M19 37.5h106c1.4 0 2.5 1.1 2.5 2.5v83.5h-111V40c0-1.4 1.1-2.5 2.5-2.5Z"/>
    <path fill="#c0c1c3" fill-opacity=".7" d="M36.4 64h-4v-.8h1.5v-6h-1.5v-1h4v1H35v6h1.5zm2.4 0v-5.8h.9v1q.5-1 1.9-1.1 2 0 2 2.1V64h-1v-3.5q0-1.5-1.3-1.6-1.6.1-1.6 1.7V64zm9.5-5.9q2 .1 2.2 2.5v1q-.1 2.4-2.2 2.5-1.3 0-1.7-1h-.1V66h-1v-7.8h1v.9q.6-1 1.8-1m-.3.8q-1.5 0-1.5 1.8v.8q0 1.7 1.5 1.8 1.5 0 1.6-1.8v-.8q0-1.6-1.6-1.8m9-.7V64h-.8v-1q-.5 1-2 1.1-1.9 0-1.9-2.1v-3.8h1v3.5q0 1.5 1.3 1.6 1.5-.1 1.6-1.7v-3.4zm3.5-1.6h.9v1.6h2.4v.8h-2.4v3.3q0 1 1.3 1l1-.1v.8h-1q-2.2 0-2.2-1.7V59H59v-.8h1.5zm15 7.4h-1v-6.9h-2.3v-.8H78v.8h-2.4zm6.3.1q-2.4-.1-2.5-2.6v-.8q.1-2.5 2.5-2.6 2.4.1 2.5 2.6v.8q-.1 2.5-2.5 2.6m0-5.2q-1.5 0-1.6 1.8v.8q0 1.7 1.6 1.8 1.5 0 1.6-1.8v-.8q0-1.7-1.6-1.8m5.8 1.9 2.6-2.6h1L89 60.5l2.4 3.5h-1l-2-2.9-.8.8V64h-1v-8h1zm9.3 1.7h1q-.5 1.5-2.4 1.6Q93 64 93 61.5v-.9q.2-2.4 2.4-2.5 2.4 0 2.4 2.7v.5h-4v.3q.1 1.6 1.7 1.7 1.2 0 1.4-.8m-1.5-3.6q-1.5 0-1.5 1.7h3q0-1.6-1.5-1.7m4.4 5.1v-5.8h.8v1h.1q.5-1 1.9-1.1 1.9 0 2 2.1V64h-1v-3.5q0-1.5-1.3-1.6-1.5.1-1.6 1.7V64zm7-4.2q.2-1.6 2.1-1.7t2.2 1.6h-.9q-.2-.9-1.3-.9t-1.2 1q0 .5 1 .8l.9.2q1.6.3 1.6 1.5-.1 1.7-2.3 1.8-2 0-2.3-1.6h1q.2.8 1.4.8 1.3 0 1.3-.9 0-.6-1-.8l-1-.2q-1.5-.4-1.5-1.6"/>
    <path fill="#fff" d="M56 102H44v-2.4h4.6V88h-.2L44 91v-2.8l4.7-3.1h2.8v14.5H56zm3.9 0 7.4-14.3v-.2h-8.8V85h11.7v2.4L63 102zm25.4-5.6c0 3.4-2.6 6-6 6-3.7 0-6.3-2.5-6.3-6.1q0-2.9 2.4-6.2l3.6-5h3.3l-4.4 6-.7 1h.2q1-1 2.7-1c3 0 5.2 2.2 5.2 5.3m-6.1 3.5c2 0 3.4-1.4 3.4-3.3 0-2-1.5-3.4-3.4-3.4-2 0-3.4 1.4-3.4 3.4 0 1.9 1.5 3.3 3.4 3.3m21-3.5c0 3.4-2.6 6-6.2 6S88 99.8 88 96.2q0-2.9 2.3-6.2l3.7-5H97l-4.4 6-.7 1h.2q1-1 2.8-1c3 0 5.2 2.2 5.2 5.3M94 100c2 0 3.4-1.4 3.4-3.3 0-2-1.5-3.4-3.4-3.4s-3.4 1.4-3.4 3.4c0 1.9 1.5 3.3 3.4 3.3"/>
    <g clip-path="url(#a)">
        <path fill="#121317" d="M16 123h112v9a3 3 0 0 1-3 3H19a3 3 0 0 1-3-3z"/>
        <path stroke="#242834" d="m-30.1 153.6 50.9-51M-23.2 153.6l50.9-51M-16.3 153.6l50.9-51M-9.4 153.6l50.9-51M-2.5 153.6l50.9-51M4.4 153.6l50.9-51M11.3 153.6l50.9-51M18.2 153.6l50.9-51M25.1 153.6l51-51M32.1 153.6l50.9-51M39 153.6l50.9-51M45.9 153.6l50.9-51M52.8 153.6l50.9-51M59.7 153.6l50.9-51M66.6 153.6l50.9-51M73.5 153.6l50.9-51M80.4 153.6l50.9-51M87.4 153.6l50.9-51M94.3 153.6l50.9-51M101.2 153.6l50.9-51M108.1 153.6l50.9-51M115 153.6l50.9-51M121.9 153.6l50.9-51"/>
    </g>
    <path stroke="#242834" d="M127.5 123.5v8.5q-.2 2.3-2.5 2.5H19a2.5 2.5 0 0 1-2.5-2.5v-8.5z"/>
    <foreignObject width="120" height="95" x="140" y="33">
        <div xmlns="http://www.w3.org/1999/xhtml" style="backdrop-filter:blur(2px);clip-path:url(#b);height:100%;width:100%"/>
    </foreignObject>
    <g data-figma-bg-blur-radius="4">
        <mask id="c" fill="#fff">
            <path d="M144 40a3 3 0 0 1 3-3h106a3 3 0 0 1 3 3v84H144z"/>
        </mask>
        <path fill="#e5484d" fill-opacity=".1" d="M144 40a3 3 0 0 1 3-3h106a3 3 0 0 1 3 3v84H144z"/>
        <path fill="#e5484d" fill-opacity=".1" d="M143 40a4 4 0 0 1 4-4h106a4 4 0 0 1 4 4h-2a2 2 0 0 0-2-2H147a2 2 0 0 0-2 2zm113 84H144zm-113 0V40a4 4 0 0 1 4-4v2a2 2 0 0 0-2 2v84zm110-88a4 4 0 0 1 4 4v84h-2V40a2 2 0 0 0-2-2z" mask="url(#c)"/>
        <path fill="#e5484d" d="M171.8 62.6v.9h-4.6v-7.7h4.6v.8h-3.6v2.5h3.4v.9h-3.4v2.6zm4.1-1.7v1.9h1.8v.7H174v-.7h1.1v-4.4h-1.2v-.7h2.1v1.5h.1q.5-1.7 2.1-1.7.5 0 .8.2v1l-1-.2q-1.9.2-2 2.4m6.8 0v1.9h1.8v.7h-3.8v-.7h1.1v-4.4h-1.3v-.7h2.2v1.5h.1q.4-1.7 2-1.7.6 0 1 .2v1l-1-.2q-2 .2-2 2.4m7 2.7q-2.4-.1-2.5-2.6v-.8q.1-2.5 2.5-2.6 2.5.1 2.5 2.6v.8q-.1 2.5-2.5 2.6m0-5.2q-1.5 0-1.6 1.8v.8q0 1.7 1.6 1.8 1.6 0 1.6-1.8v-.8q0-1.7-1.6-1.8m6.6 2.5v1.9h1.8v.7h-3.9v-.7h1.2v-4.4H194v-.7h2.2v1.5q.4-1.7 2.1-1.7.6 0 .9.2v1l-1-.2q-2 .2-2 2.4m13.5 0v1.9h1.8v.7h-3.8v-.7h1.1v-4.4h-1.3v-.7h2.2v1.5h.1q.4-1.7 2-1.7.6 0 1 .2v1l-1-.2q-2 .2-2 2.4m6.4 2.7q-1.6-.1-1.8-1.7 0-1.6 2-1.8h1.6v-.6q0-1-1.2-1t-1.3.7h-.9q.3-1.6 2.2-1.6 2.1 0 2.1 2v4h-.8v-1h-.1q-.5 1-1.8 1m.3-.8q1.4-.1 1.5-1.4v-.6h-1.5q-1.2 0-1.2 1t1.2 1m6.1-6.7h1v1.6h2.3v.8h-2.4v3.3q0 1 1.3 1l1-.1v.8h-1q-2.2 0-2.2-1.7v-3.3h-1.5v-.8h1.5zM232 62h1q-.5 1.5-2.4 1.6-2.5-.1-2.5-2.6V60q.2-2.4 2.4-2.5 2.4 0 2.4 2.7v.5h-4v.3q.1 1.6 1.7 1.7 1.2 0 1.4-.8m-1.5-3.6q-1.5 0-1.5 1.7h3q0-1.6-1.5-1.7"/>
        <path fill="#ea6d71" d="M167.9 94.4v-2.2h1.9c1.7 0 3-1 3-2.6q-.1-2.4-3-2.5-2.9.1-3 2.6h-2.6c.1-3 2.3-5 5.7-5 3.3 0 5.5 1.9 5.5 4.5q0 3.2-3 3.9v.2q3.7.6 3.7 4c0 3-2.5 5-6.1 5s-6-2-6.2-5h2.7q.3 2.5 3.4 2.6 3.2 0 3.4-2.7-.2-2.7-3.5-2.8zm23.1 2c0 3.4-2.6 6-6.1 6-3.7 0-6.2-2.5-6.2-6.1q0-2.9 2.4-6.2c.3-.6 3.3-4.6 3.6-5h3.2l-4.4 6-.7 1h.3q.9-1 2.7-1c3 0 5.2 2.2 5.2 5.3m-6.2 3.5c2 0 3.4-1.4 3.4-3.3 0-2-1.4-3.4-3.4-3.4-1.9 0-3.3 1.4-3.3 3.4 0 1.9 1.4 3.3 3.3 3.3m14.8 2.3a2.4 2.4 0 0 1-2.4-2.5c0-1.3 1-2.4 2.4-2.4s2.4 1 2.4 2.4-1.1 2.5-2.4 2.5m14.9.2c-3.8 0-6.4-2-6.4-5 0-2 1.4-3.7 3.5-4.2V93a4 4 0 0 1-2.8-3.7c0-2.7 2.3-4.6 5.7-4.6 3.3 0 5.7 2 5.7 4.6q0 2.8-3 3.7v.2c2.2.4 3.6 2.2 3.6 4.3 0 2.9-2.5 4.9-6.3 4.9m0-10.3q2.7-.1 2.9-2.6-.2-2.4-3-2.6-2.7.1-2.9 2.6.2 2.5 3 2.6m0 8c2 0 3.4-1.2 3.4-2.9s-1.4-3-3.4-3c-2.1 0-3.5 1.3-3.5 3s1.4 3 3.5 3m10.8-6.8q-3.2-.2-3.4-3.9v-.9c0-2.2 1.3-3.7 3.4-3.7q3.1.2 3.3 3.7v1q-.2 3.6-3.3 3.8m11.4-8.2v1.8L221.8 102v-1.8zm-11.4 6.4q1.5 0 1.5-2.1v-.7q0-2.1-1.5-2.1t-1.5 2v.8q0 2 1.5 2m8 10.8q-3.3-.1-3.4-3.8v-.9q.1-3.6 3.3-3.8c2 0 3.4 1.5 3.4 3.8v.9q-.1 3.7-3.4 3.8m0-1.8q1.5 0 1.5-2v-.8q0-2-1.6-2-1.5 0-1.5 2v.7q0 2.1 1.5 2.1"/>
    </g>
    <foreignObject width="120" height="20" x="140" y="119">
        <div xmlns="http://www.w3.org/1999/xhtml" style="backdrop-filter:blur(2px);clip-path:url(#d);height:100%;width:100%"/>
    </foreignObject>
    <g data-figma-bg-blur-radius="4">
        <g clip-path="url(#e)">
            <mask id="f" fill="#fff">
                <path d="M144 123h112v9a3 3 0 0 1-3 3H147a3 3 0 0 1-3-3z"/>
            </mask>
            <path fill="#e5484d" fill-opacity=".2" d="M144 123h112v9a3 3 0 0 1-3 3H147a3 3 0 0 1-3-3z"/>
            <path stroke="#e5484d" d="m97.9 153.6 50.9-51M104.8 153.6l50.9-51M111.7 153.6l50.9-51M118.6 153.6l50.9-51M125.5 153.6l50.9-51M132.4 153.6l50.9-51M139.3 153.6l50.9-51M146.2 153.6l50.9-51M153.1 153.6l51-51M160.1 153.6l50.9-51M167 153.6l50.9-51M173.9 153.6l50.9-51M180.8 153.6l50.9-51M187.7 153.6l50.9-51M194.6 153.6l50.9-51M201.5 153.6l50.9-51M208.4 153.6l51-51M215.3 153.6l51-51M222.3 153.6l50.9-51M229.2 153.6l50.9-51M236.1 153.6l50.9-51M243 153.6l50.9-51M249.9 153.6l50.9-51"/>
        </g>
        <path fill="#e5484d" d="M144 123v-1h-1v1zm112 0h1v-1h-1zm-112 0v1h112v-2H144zm112 0h-1v9h2v-9zm-3 12v-1H147v2h106zm-109-3h1v-9h-2v9zm3 3v-1a2 2 0 0 1-2-2h-2a4 4 0 0 0 4 4zm109-3h-1a2 2 0 0 1-2 2v2a4 4 0 0 0 4-4z" mask="url(#f)"/>
    </g>
    <path fill="#0b0c0e" d="M275 37.5h106c1.4 0 2.5 1.1 2.5 2.5v83.5h-111V40c0-1.4 1.1-2.5 2.5-2.5"/>
    <path stroke="#1d212d" d="M275 37.5h106c1.4 0 2.5 1.1 2.5 2.5v83.5h-111V40c0-1.4 1.1-2.5 2.5-2.5Z"/>
    <path fill="#c0c1c3" fill-opacity=".7" d="M289.7 60.8q0 3.3-2.8 3.4-2.7-.1-2.8-3.4v-1.3q0-3.3 2.8-3.4 2.7.1 2.8 3.4zm-2.8 2.5q1.8-.1 1.9-2.5v-1.3q0-2.5-2-2.5-1.6.1-1.8 2.5v1.3q0 2.5 1.9 2.5m9.1-5.1V64h-.8v-1h-.1q-.5 1-1.9 1.1-1.9 0-2-2.1v-3.8h1v3.5q0 1.5 1.3 1.6 1.6-.1 1.6-1.7v-3.4zm3.4-1.6h1v1.6h2.3v.8h-2.3v3.3q0 1 1.2 1l1-.1v.8h-1q-2.2 0-2.2-1.7V59H298v-.8h1.6zm8.2 1.5q2 .1 2.2 2.5v1q-.1 2.4-2.2 2.5-1.4 0-1.7-1h-.1V66h-1v-7.8h1v.9q.5-1 1.8-1m-.3.8q-1.6 0-1.6 1.8v.8q.1 1.7 1.6 1.8 1.6 0 1.6-1.8v-.8q0-1.6-1.6-1.8m9-.7V64h-.8v-1q-.5 1-2 1.1-1.8 0-1.9-2.1v-3.8h1v3.5q0 1.5 1.3 1.6 1.6-.1 1.6-1.7v-3.4zm3.5-1.6h.9v1.6h2.3v.8h-2.3v3.3q0 1 1.3 1l1-.1v.8H322q-2.2 0-2.1-1.7V59h-1.6v-.8h1.6zm15 7.4h-1v-6.9h-2.3v-.8h5.6v.8h-2.3zm6.3.1q-2.4-.1-2.5-2.6v-.8q.1-2.5 2.5-2.6 2.4.1 2.5 2.6v.8q-.1 2.5-2.5 2.6m0-5.2q-1.6 0-1.6 1.8v.8q0 1.7 1.6 1.8 1.6 0 1.6-1.8v-.8q0-1.7-1.6-1.8m5.8 1.9 2.5-2.6h1.1l-2.2 2.3 2.4 3.5h-1l-2-2.9-.9.8V64h-.9v-8h1zm9.3 1.7h.9q-.4 1.5-2.3 1.6-2.5-.1-2.5-2.6v-.9q.1-2.4 2.4-2.5 2.3 0 2.4 2.7v.5h-4v.3q.1 1.6 1.7 1.7 1.1 0 1.4-.8m-1.5-3.6q-1.5 0-1.5 1.7h3q0-1.6-1.5-1.7m4.4 5.1v-5.8h.8v1h.1q.5-1 1.9-1.1 1.8 0 1.9 2.1V64h-1v-3.5q0-1.5-1.2-1.6-1.6.1-1.6 1.7V64zm7-4.2q0-1.6 2.1-1.7 1.9 0 2.2 1.6h-1q0-.9-1.2-.9t-1.2 1q0 .5 1 .8l.8.2q1.8.3 1.7 1.5-.2 1.7-2.3 1.8-2 0-2.3-1.6h1q.1.8 1.3.8 1.3 0 1.3-.9.1-.6-1-.8l-.8-.2q-1.6-.4-1.6-1.6"/>
    <path fill="#fff" d="M307 102v-3.4h-7.6v-2.2l5.4-11.3h2.8l-5.2 11v.2h4.7v-4.5h2.5v4.5h2.4v2.3h-2.4v3.4zm7.5-12c0-3 2.3-5.2 5.7-5.2 3.3 0 5.6 2 5.6 4.8 0 1.8-1 3.3-3.7 6.1l-3.6 3.7v.2h7.5v2.4h-11.4v-2l5.6-5.8c2.2-2.3 2.8-3.2 2.8-4.4q-.2-2.6-3-2.7-2.7.2-2.9 3h-2.6m22.2 12v-3.4H329v-2.2l5.3-11.3h3L332 96v.2h4.7v-4.5h2.5v4.5h2.4v2.3h-2.4v3.4zm7.4-12c0-3 2.4-5.2 5.7-5.2s5.6 2 5.6 4.8c0 1.8-.9 3.3-3.6 6.1l-3.6 3.7v.2h7.5v2.4h-11.4v-2l5.6-5.8c2.2-2.3 2.8-3.2 2.8-4.4q-.2-2.6-3-2.7c-1.7 0-3 1.2-3 3h-2.6"/>
    <g clip-path="url(#g)">
        <path fill="#121317" d="M272 123h112v9a3 3 0 0 1-3 3H275a3 3 0 0 1-3-3z"/>
        <path stroke="#242834" d="m225.9 153.6 50.9-51M232.8 153.6l50.9-51M239.7 153.6l50.9-51M246.6 153.6l50.9-51M253.5 153.6l50.9-51M260.4 153.6l50.9-51M267.3 153.6l50.9-51M274.2 153.6l50.9-51M281.1 153.6l51-51M288.1 153.6l50.9-51M295 153.6l50.9-51M301.9 153.6l50.9-51M308.8 153.6l50.9-51M315.7 153.6l50.9-51M322.6 153.6l50.9-51M329.5 153.6l50.9-51M336.4 153.6l51-51M343.4 153.6l50.9-51M350.3 153.6l50.9-51M357.2 153.6l50.9-51M364.1 153.6l50.9-51M371 153.6l50.9-51M377.9 153.6l50.9-51"/>
    </g>
    <path stroke="#242834" d="M383.5 123.5v8.5c0 1.4-1.1 2.5-2.5 2.5H275a2.5 2.5 0 0 1-2.5-2.5v-8.5z"/>
    <path fill="#0b0c0e" d="M403 37.5h106c1.4 0 2.5 1.1 2.5 2.5v83.5h-111V40c0-1.4 1.1-2.5 2.5-2.5"/>
    <path stroke="#1d212d" d="M403 37.5h106c1.4 0 2.5 1.1 2.5 2.5v83.5h-111V40c0-1.4 1.1-2.5 2.5-2.5Z"/>
    <path fill="#c0c1c3" fill-opacity=".7" d="M415 63.3q1.6 0 1.8-1.6h1c0 1.4-1.2 2.5-2.7 2.5q-2.9-.1-2.9-3.4v-1.3q0-3.4 2.9-3.4 2.5 0 2.6 2.7h-1q0-1.6-1.6-1.8-2 0-2 2.5v1.3q0 2.5 2 2.5m6 .8q-1.7-.1-1.8-1.7.1-1.6 2-1.8h1.7V60q0-1-1.3-1-1 0-1.3.7h-.9q.4-1.6 2.2-1.6 2.2 0 2.2 2v4h-.9v-1q-.5 1-1.8 1m.3-.8q1.6-.1 1.6-1.4v-.6h-1.5q-1.2 0-1.2 1t1.1 1M431 60h-1q-.1-1-1.4-1.1-1.5 0-1.5 2v.5q0 1.9 1.5 1.9 1.2 0 1.5-1.1h.9q-.3 1.9-2.4 2-2.4 0-2.5-2.7v-.8q.1-2.6 2.5-2.6 2 0 2.4 1.9m2 4v-8h.8v3.2q.5-1 2-1.1 1.8 0 1.9 2.1V64h-1v-3.5q0-1.5-1.2-1.6-1.6.1-1.7 1.7V64zm10.7-1.5h.8q-.2 1.5-2.3 1.6-2.4-.1-2.5-2.6v-.9q.1-2.4 2.5-2.5 2.3 0 2.4 2.7v.5h-4v.3q0 1.6 1.6 1.7 1.2 0 1.5-.8m-1.5-3.6q-1.5 0-1.6 1.7h3q0-1.6-1.4-1.7m13.4 4.4q1.8-.1 1.8-2v-5h1v5q0 2.8-2.8 2.9-2.6-.1-2.7-2.9v-5h1v5q0 1.9 1.7 2m5.8-6.7h1v1.6h2.3v.8h-2.4v3.3q0 1 1.3 1l1-.1v.8h-1q-2.2 0-2.2-1.7V59h-1.5v-.8h1.5zm7.9.2a.7.7 0 0 1-.8-.8q.1-.6.8-.7t.8.7q-.1.7-.8.8m2.4 7.2h-4.8v-.8h2V59h-2v-.7h3v5h1.8zm6.8 0h-4.8v-.8h2v-6.5h-2v-.8h2.9v7.3h2zm4.3 0a1 1 0 0 1-1-1q0-.9 1-1 .9.1 1 1-.1 1-1 1m6.7 0a1 1 0 0 1-1-1q.1-.9 1-1 1 .1 1 1t-1 1m6.8 0a1 1 0 0 1-1-1q.1-.9 1-1 .9.1 1 1-.1 1-1 1"/>
    <path fill="#fff" d="M426 102.4c-3.8 0-6.4-2-6.4-5 0-2 1.4-3.7 3.5-4.2V93a4 4 0 0 1-2.9-3.7c0-2.7 2.4-4.6 5.8-4.6 3.3 0 5.7 2 5.7 4.6q-.2 2.8-3 3.7v.2c2.2.4 3.6 2.2 3.6 4.3 0 2.9-2.6 4.9-6.3 4.9m0-10.3q2.7-.1 2.9-2.6-.2-2.4-3-2.6-2.7.1-2.9 2.6.1 2.5 3 2.6m0 8q3.2-.2 3.4-2.9c0-1.7-1.4-3-3.4-3-2.1 0-3.5 1.3-3.5 3s1.4 3 3.5 3m16.3 1.9v-3.4h-7.6v-2.2l5.4-11.3h2.9l-5.3 11v.2h4.7v-4.5h2.5v4.5h2.5v2.3H445v3.4zm13.3.2a2.4 2.4 0 0 1-2.4-2.5c0-1.3 1-2.4 2.4-2.4s2.4 1 2.4 2.4-1.1 2.5-2.4 2.5m14.8.2q-6-.2-6-8.9c0-5.6 2.1-8.8 6-8.8 4 0 6.1 3.2 6.1 8.8q-.1 8.7-6 8.9m-3.3-8.9v1l6.3-4.5q-.7-3-3-3-3.2.1-3.3 6.5m3.3 6.5q3.4-.1 3.4-6.5v-1l-6.3 4.6q.7 3 3 2.9m10.9-6.7q-3.2-.2-3.4-3.9v-.9c0-2.2 1.4-3.7 3.4-3.7q3.1.2 3.3 3.7v1q-.2 3.6-3.3 3.8m11.4-8.2v1.8L477.8 102v-1.8zm-11.4 6.4q1.5 0 1.5-2.1v-.7q0-2.1-1.5-2.1t-1.5 2v.8q0 2 1.5 2m8 10.8q-3.3-.1-3.4-3.8v-.9q.1-3.6 3.3-3.8c2 0 3.4 1.5 3.4 3.8v.9q-.1 3.7-3.4 3.8m0-1.8q1.5 0 1.5-2v-.8q0-2-1.6-2-1.5 0-1.5 2v.7q0 2.1 1.5 2.1"/>
    <g clip-path="url(#h)">
        <path fill="#121317" d="M400 123h112v9a3 3 0 0 1-3 3H403a3 3 0 0 1-3-3z"/>
        <path stroke="#242834" d="m353.9 153.6 50.9-51M360.8 153.6l50.9-51M367.7 153.6l50.9-51M374.6 153.6l50.9-51M381.5 153.6l50.9-51M388.4 153.6l50.9-51M395.3 153.6l50.9-51M402.2 153.6l50.9-51M409.1 153.6l51-51M416.1 153.6l50.9-51M423 153.6l50.9-51M429.9 153.6l50.9-51M436.8 153.6l50.9-51M443.7 153.6l50.9-51M450.6 153.6l50.9-51M457.5 153.6l50.9-51M464.4 153.6l51-51M471.4 153.6l50.9-51M478.3 153.6l50.9-51M485.2 153.6l50.9-51M492.1 153.6l50.9-51M499 153.6l50.9-51M505.9 153.6l50.9-51"/>
    </g>
    <path stroke="#242834" d="M511.5 123.5v8.5c0 1.4-1.1 2.5-2.5 2.5H403a2.5 2.5 0 0 1-2.5-2.5v-8.5z"/>
    <path fill="#0b0c0e" d="M19 151.5h302c1.4 0 2.5 1.1 2.5 2.5v117.5h-307V153.7a2.5 2.5 0 0 1 2.5-2.2"/>
    <path stroke="#1d212d" d="M19 151.5h302c1.4 0 2.5 1.1 2.5 2.5v117.5h-307V153.7a2.5 2.5 0 0 1 2.5-2.2Z"/>
    <g filter="url(#i)">
        <rect width="10" height="8" x="32" y="169.5" fill="#e5484d" rx="4"/>
    </g>
    <path fill="#c0c1c3" fill-opacity=".7" d="M53 174h-1.8v3h-1v-7.7H53q2.4.1 2.5 2.3 0 1.6-1.5 2.1l1.6 3.3h-1zm-1.8-3.9v3h1.5q1.7 0 1.7-1.5t-1.6-1.5zm9.8 5.4h1q-.5 1.6-2.4 1.6-2.5-.1-2.5-2.6v-.9q.2-2.4 2.4-2.5 2.4 0 2.4 2.7v.5h-4v.3q.1 1.6 1.7 1.7 1.1 0 1.4-.8m-1.5-3.6q-1.5 0-1.5 1.7h3q0-1.6-1.5-1.7m6.4-.8q1.2 0 1.7 1h.1v-1h1v7.9h-1V176h-.1q-.5 1-1.7 1-2.2-.1-2.2-2.5v-1q0-2.4 2.2-2.5m.2.8q-1.5 0-1.5 1.8v.8q0 1.7 1.5 1.8 1.5 0 1.6-1.8v-.8q0-1.6-1.6-1.8m9.3-.7v5.8h-.9v-1q-.6 1-1.9 1.1-2 0-2-2.1v-3.8h1v3.5q0 1.5 1.3 1.6 1.5-.1 1.6-1.7v-3.4zm6 4.3h.9q-.4 1.6-2.4 1.6-2.4-.1-2.5-2.6v-.9q.1-2.4 2.5-2.5 2.3 0 2.4 2.7v.5h-4v.3q0 1.6 1.6 1.7 1.2 0 1.5-.8m-1.5-3.6q-1.5 0-1.6 1.7h3q0-1.6-1.4-1.7m4.6.9q0-1.6 2.1-1.7 1.9 0 2.1 1.6H88q-.3-.9-1.3-.9-1.2 0-1.2 1 0 .6 1 .8l.8.2q1.7.3 1.7 1.5-.2 1.7-2.3 1.8-2 0-2.3-1.6h1q.1.8 1.3.8 1.3 0 1.3-.9 0-.6-1-.8l-.9-.2q-1.5-.4-1.5-1.6m7.9-3.2h.9v1.6h2.3v.8h-2.3v3.3q0 1 1.2 1l1.1-.1v.8h-1.1q-2.2 0-2.1-1.7V172h-1.6v-.8h1.6zm14.1 7.5q-2-.1-2.2-2.5v-1q.1-2.4 2.2-2.5 1.3 0 1.8 1v-3.2h1v8.1h-1v-.9q-.5 1-1.8 1m.3-.8q1.6 0 1.6-1.8v-.8q0-1.7-1.6-1.8-1.6 0-1.6 1.8v.8q.1 1.7 1.6 1.8m9.3-5.1v5.8h-1v-1q-.5 1-1.8 1.1-2 0-2-2.1v-3.8h1v3.5q0 1.5 1.2 1.6 1.6-.1 1.6-1.7v-3.4zm4.1 3.2v1.9h1.8v.7h-3.8v-.7h1.1v-4.4h-1.2v-.7h2.1v1.5h.1q.5-1.7 2-1.7.6 0 1 .2v1l-1-.2q-2 .1-2 2.4m6.4 2.7q-1.7-.1-1.8-1.7 0-1.6 2-1.8h1.7v-.6q0-1-1.3-1-1 0-1.3.7h-.9q.3-1.6 2.2-1.6 2.1 0 2.2 2v4h-1v-1q-.5 1-1.8 1m.3-.8q1.5-.1 1.6-1.4v-.6H127q-1.3 0-1.3 1t1.2 1m6.1-6.7h1v1.6h2.3v.8h-2.4v3.3q0 1 1.3 1l1-.1v.8h-1q-2.2 0-2.2-1.7V172h-1.5v-.8h1.5zm7.9.2a.7.7 0 0 1-.8-.8q.1-.7.8-.7t.7.7q0 .7-.7.8m2.4 7.2h-4.8v-.8h2V172h-2v-.7h2.9v5h2zm4.3.1q-2.5-.1-2.6-2.6v-.8q.1-2.5 2.6-2.6 2.4.1 2.5 2.6v.8q-.1 2.5-2.5 2.6m0-5.2q-1.6 0-1.7 1.8v.8q.1 1.7 1.7 1.8 1.6 0 1.6-1.8v-.8q0-1.7-1.6-1.8m4.4 5.1v-5.8h.8v1h.1q.5-1 1.9-1.1 1.9 0 2 2.1v3.8h-1v-3.5q0-1.5-1.3-1.6-1.6.1-1.6 1.7v3.4z"/>
    <path fill="url(#j)" d="M32 219.9v24.7h123.8L144.1 208l-7.2-.6h-.2l-8.5-4.2-10.5 5.7h-.1l-12.4 4.4-24 9.4h-.5L60.5 217l-5-1.4-8.9 3h-.1z"/>
    <path fill="url(#k)" d="m176.8 244.6 81.7-3.6-15.3-24-12.4-14-8.3-3-.3-.1-10.6-10.9-19.1 24.1-.4.2-13.1 3.3z"/>
    <path fill="#e5484d" d="M32.3 219.7a.6.6 0 1 0 0 1v-1m14.5-.7v.5h.1zm9-3v-.5h-.2zm5.2 1.5-.1.5zm20.2 5.5-.1.6h.3zm24-9.3-.1-.5zm12.5-4.4.2.5zm10.9-5.9.2-.5h-.5zm8.7 4.3-.2.5h.2zm7.6.6.5-.2q0-.3-.4-.3zm12 37.4-.5.1q0 .4.5.4zm19.6 0v.5q.5 0 .5-.5zm2.2-28.6-.2-.5q-.3 0-.4.5zm13.6-3.4.1.5q.3 0 .3-.2zM212 189l.4-.4a1 1 0 0 0-.9 0zm11.1 11.4-.4.4.2.1zm8.6 3 .4-.3-.3-.2zm12.5 14.1.4-.3zm13.4 20.2-.5.3.5.2zm42 .5h.6v-1h-.6v1m-267.2-18v.6l14.5-1.3v-1.1l-14.5 1.3zm14.5-1.2.1.5 9-3-.2-.5-.1-.5-9 3zm9-3-.2.6 5.3 1.4.1-.5.2-.5-5.3-1.5zm5.2 1.5-.1.5 20.2 5.6.1-.6.2-.5-20.2-5.5zm20.2 5.5.2.6 24-9.4-.1-.5-.2-.5-24 9.3zm24-9.3.3.5 12.4-4.4-.2-.5-.2-.5-12.4 4.4zm12.5-4.4.3.5 10.8-5.9-.2-.5-.3-.5-10.8 6zm10.9-5.9-.3.5 8.8 4.3.2-.5.3-.5-8.8-4.3zm8.7 4.3v.6l7.6.6v-1.1l-7.5-.6zm7.6.6-.5.2 12 37.3.5-.1.5-.2-12-37.4zm12 37.4v.5h19.6v-1.1h-19.6zm19.6 0h.5l2.2-28.5h-.5l-.6-.1-2.2 28.5zm2.2-28.6.1.6 13.6-3.5v-.5l-.2-.5-13.7 3.4zm13.6-3.4.4.3 19.6-24.7-.4-.3-.5-.3-19.5 24.6zM212 189l-.4.4 11.1 11.4.4-.4.4-.4-11.1-11.4zm11.1 11.4-.2.5 8.6 3 .2-.5.1-.5-8.5-3zm8.6 3-.5.4 12.6 14 .4-.3.4-.4-12.5-14zm12.5 14.1-.5.3L257 238l.5-.3.5-.3-13.5-20.2zm13.4 20.2v.5h42v-1.1h-42z"/>
    <path stroke="#e5484d" stroke-linecap="round" stroke-linejoin="round" stroke-width="1.1" d="M156.9 245.7h19.6"/>
    <path fill="#e5484d" stroke="#e5484d" stroke-width=".8" d="M300.6 235.8a2 2 0 0 1 0 4c-1 0-2-1-2-2 0-1.1 1-2 2-2Z"/>
    <g clip-path="url(#l)">
        <path fill="#121317" d="M16 271h308v9a3 3 0 0 1-3 3H19a3 3 0 0 1-3-3z"/>
        <path stroke="#242834" d="m-28.9 301.6 50.9-51M-22 301.6l50.9-51M-15.1 301.6l50.9-51M-8.2 301.6l50.9-51M-1.3 301.6l50.9-51M5.6 301.6l51-51M12.6 301.6l50.9-51M19.5 301.6l50.9-51M26.4 301.6l50.9-51M33.3 301.6l50.9-51M40.2 301.6l50.9-51M47.1 301.6l50.9-51M54 301.6l50.9-51M60.9 301.6l51-51M67.9 301.6l50.9-51M74.8 301.6l50.9-51M81.7 301.6l50.9-51M88.6 301.6l50.9-51M95.5 301.6l50.9-51M102.4 301.6l50.9-51M109.3 301.6l50.9-51M116.2 301.6l50.9-51M123.1 301.6l51-51M130.1 301.6l50.9-51M137 301.6l50.9-51M143.9 301.6l50.9-51M150.8 301.6l50.9-51M157.7 301.6l50.9-51M164.6 301.6l50.9-51M171.5 301.6l50.9-51M178.4 301.6l50.9-51M185.3 301.6l51-51M192.3 301.6l50.9-51M199.2 301.6l50.9-51M206.1 301.6l50.9-51M213 301.6l50.9-51M219.9 301.6l50.9-51M226.8 301.6l50.9-51M233.7 301.6l50.9-51M240.6 301.6l51-51M247.6 301.6l50.9-51M254.5 301.6l50.9-51M261.4 301.6l50.9-51M268.3 301.6l50.9-51M275.2 301.6l50.9-51M282.1 301.6l50.9-51M289 301.6l50.9-51M295.9 301.6l50.9-51M302.8 301.6l51-51M309.8 301.6l50.9-51M316.7 301.6l50.9-51M323.6 301.6l50.9-51"/>
    </g>
    <path stroke="#242834" d="M323.5 271.5v8.5c0 1.4-1.1 2.5-2.5 2.5H19a2.5 2.5 0 0 1-2.5-2.5v-8.5z"/>
    <path fill="#0b0c0e" d="M343 151.5h166c1.4 0 2.5 1.1 2.5 2.5v117.5h-171V153.7a2.5 2.5 0 0 1 2.5-2.2"/>
    <path stroke="#1d212d" d="M343 151.5h166c1.4 0 2.5 1.1 2.5 2.5v117.5h-171V153.7a2.5 2.5 0 0 1 2.5-2.2Z"/>
    <path fill="#4e74f8" d="M466.4 211.7a40.7 40.7 0 1 1-81.4 0 40.7 40.7 0 0 1 81.4 0m-70.4 0a29.7 29.7 0 1 0 59.4 0 29.7 29.7 0 0 0-59.4 0"/>
    <path fill="#23c4f8" d="M466.4 211.7a41 41 0 0 0-24.3-37.2l-4.4 10a30 30 0 0 1 17.7 27.2z"/>
    <path fill="#bd9979" d="M425.7 252.4a40.7 40.7 0 0 0 38.2-54.8l-10.4 3.8a29.7 29.7 0 0 1-27.8 40z"/>
    <path fill="#f24769" d="M394.8 238.2a41 41 0 0 0 34.5 14l-1-11a30 30 0 0 1-25.2-10.2z"/>
    <rect width="13.8" height="6.5" x="458.1" y="175.9" fill="#242834" rx="3.3"/>
    <rect width="13.8" height="6.5" x="470" y="205.2" fill="#242834" rx="3.3"/>
    <rect width="13.8" height="6.5" x="381.5" y="243.4" fill="#242834" rx="3.3"/>
    <rect width="13.8" height="6.5" x="378" y="179.1" fill="#242834" rx="3.3"/>
    <g clip-path="url(#m)">
        <path fill="#121317" d="M340 271h172v9a3 3 0 0 1-3 3H343a3 3 0 0 1-3-3z"/>
        <path stroke="#242834" d="m289.3 301.6 50.9-51M296.2 301.6l50.9-51M303.1 301.6l50.9-51M310 301.6l50.9-51M316.9 301.6l51-51M323.9 301.6l50.9-51M330.8 301.6l50.9-51M337.7 301.6l50.9-51M344.6 301.6l50.9-51M351.5 301.6l50.9-51M358.4 301.6l50.9-51M365.3 301.6l50.9-51M372.2 301.6l50.9-51M379.1 301.6l51-51M386.1 301.6l50.9-51M393 301.6l50.9-51M399.9 301.6l50.9-51M406.8 301.6l50.9-51M413.7 301.6l50.9-51M420.6 301.6l50.9-51M427.5 301.6l50.9-51M434.4 301.6l51-51M441.4 301.6l50.9-51M448.3 301.6l50.9-51M455.2 301.6l50.9-51M462.1 301.6l50.9-51M469 301.6l50.9-51M475.9 301.6l50.9-51M482.8 301.6l50.9-51M489.7 301.6l50.9-51M496.6 301.6l51-51M503.6 301.6l50.9-51M510.5 301.6l50.9-51"/>
    </g>
    <path stroke="#242834" d="M511.5 271.5v8.5c0 1.4-1.1 2.5-2.5 2.5H343a2.5 2.5 0 0 1-2.5-2.5v-8.5z"/>
    <foreignObject width="332" height="160" x="119" y="101">
        <div xmlns="http://www.w3.org/1999/xhtml" style="backdrop-filter:blur(20px);clip-path:url(#n);height:100%;width:100%"/>
    </foreignObject>
    <g data-figma-bg-blur-radius="40" filter="url(#o)">
        <rect width="211" height="80" x="159" y="141" fill="#21242c" fill-opacity=".4" rx="4"/>
        <rect width="210" height="79" x="159.5" y="141.5" stroke="#23262e" rx="3.5"/>
        <path fill="#c0c1c3" fill-opacity=".7" d="M176 162.3h1.6l2.7 6.8h.1l2.8-6.8h1.6v8.7h-1.2v-6.3h-.1l-2.6 6.3h-1l-2.6-6.3v6.3H176zm12 8.7h-1.5l3.2-8.7h1.5l3.2 8.7H193l-2.5-7.1zm.2-3.4h4.5v1h-4.5zm6.3-5.3h1.5l2.3 4h.1l2.3-4h1.5l-3.2 5.3v3.4h-1.3v-3.4zm12.7 7v-1l3.8-6h.9v1.5h-.6l-2.7 4.3h5.2v1.2zm4.2 1.7v-8.7h1.2v8.7zm6-1.2v.5l-.2 1-.6 1.8h-1l.2-.7.4-2.1v-.5zm6.2 1.2v-1l3-3 1.2-1.6.2-.7-.2-.8-.6-.5-.8-.1-.8.1-.5.6q-.2.3-.2.8h-1.3q0-.8.4-1.4.3-.6 1-1l1.4-.2q.8 0 1.5.3t1 .9.3 1.2q0 .6-.2 1 0 .4-.6 1l-1.2 1.4-1.8 1.8h4v1.2zm12.5-7.8.6.4-3.2 6.5-.6-.5zm-1.3 8q-1 0-1.7-.6t-1-1.5a7 7 0 0 1-.5-2.5q0-1.4.4-2.4t1.1-1.5 1.7-.6 1.8.6 1 1.5.4 2.4a7 7 0 0 1-.3 2.5q-.5 1-1.1 1.5t-1.8.5m0-1.2q1 0 1.4-.9a5 5 0 0 0 .5-2.5q0-1-.2-1.8t-.6-1.1-1-.4q-1 0-1.4.8a5 5 0 0 0-.5 2.5q0 1.2.2 1.9.2.8.6 1.1.5.4 1 .4m5.6 1v-1l3-3 1.2-1.6.1-.7a1 1 0 0 0-.7-1.3l-.8-.1-.8.1-.6.6-.2.8h-1.2q0-.8.4-1.4.3-.6 1-1l1.4-.2q.8 0 1.5.3t1 .9.3 1.2q0 .6-.2 1l-.6 1-1.3 1.4-1.7 1.8h4v1.2zm8-1.7v-1l3.7-6h.8v1.5h-.5l-2.7 4.3h5.2v1.2zm4 1.7v-8.7h1.3v8.7zm7.3-3.6v-1h12v1zm21-4.2.6.4-3.2 6.5-.6-.5zm-1.3 8q-1 0-1.7-.6-.8-.5-1.1-1.5a7 7 0 0 1-.4-2.5q0-1.4.4-2.4t1-1.5 1.8-.6 1.7.6 1.1 1.5.4 2.4a7 7 0 0 1-.4 2.5q-.4 1-1 1.5-.8.6-1.8.5m0-1.2q.9 0 1.4-.9a5 5 0 0 0 .5-2.5q0-1-.2-1.8t-.7-1.1-1-.4q-.9 0-1.4.8a5 5 0 0 0-.5 2.5q0 1.2.2 1.9.3.8.7 1.1t1 .4m5-.7v-1l3.9-6h.8v1.5h-.5l-2.7 4.3h5.1v1.2zm4.2 1.7v-8.7h1.3v8.7zm5.3-1-.6-.3-.2-.6q0-.4.2-.6l.6-.3.6.3q.3.2.3.6 0 .2-.2.4l-.3.3zm0-4.5q-.3 0-.6-.2l-.2-.6q0-.3.2-.6l.6-.3.6.3.3.6q0 .2-.2.4 0 .3-.3.3zm3.3 5.5v-1l3-3 1.2-1.6.2-.7-.2-.8-.6-.5-.8-.1-.8.1-.6.6-.1.8h-1.3q0-.8.4-1.4.3-.6 1-1l1.4-.2q.8 0 1.5.3t1 .9.3 1.2q0 .6-.2 1 0 .4-.6 1l-1.2 1.4-1.8 1.8h4v1.2zm8-1.7v-1l3.7-6h.9v1.5h-.6l-2.7 4.3h5.2v1.2zm4 1.7v-8.7h1.3v8.7zm5.4-1q-.5 0-.6-.3l-.3-.6q0-.4.3-.6.1-.3.6-.3l.6.3.2.6-.1.4-.3.3zm0-4.5q-.5 0-.6-.2l-.3-.6q0-.3.3-.6.1-.3.6-.3l.6.3.2.6-.1.4q0 .3-.3.3zm3.3 5.5v-1l3-3 1.2-1.6.1-.7a1.3 1.3 0 0 0-.8-1.3l-.8-.1-.8.1-.5.6-.2.8h-1.3q0-.8.4-1.4l1-1 1.5-.2q.8 0 1.4.3t1 .9.4 1.2l-.2 1-.7 1-1.2 1.4-1.7 1.8h3.9v1.2zm7.9-1.7v-1l3.8-6h.8v1.5h-.5l-2.7 4.3h5.1v1.2zm4.1 1.7v-8.7h1.3v8.7z"/>
        <rect width="10" height="8" x="175" y="191" fill="#e5484d" rx="4"/>
        <path fill="#fff" d="M194.3 193q.2-2.4 2.9-2.6 2.6.2 2.8 2.4.1 1.2-1.9 3l-1.8 1.9h3.8v1.3h-5.7v-1l2.8-2.9c1-1.2 1.4-1.6 1.4-2.2q0-1.3-1.5-1.4-1.4 0-1.5 1.5zm9.3 2.2v-1h1q1.3-.1 1.4-1.4t-1.4-1.3q-1.5 0-1.6 1.4h-1.3q.2-2.5 3-2.5c1.5 0 2.7.9 2.7 2.2q0 1.5-1.5 2 1.7.4 1.8 2-.2 2.4-3 2.6-2.8-.1-3.1-2.5h1.3q.1 1.2 1.7 1.3 1.6-.1 1.7-1.4-.1-1.4-1.7-1.4zm8.4 3.9q-1-.1-1.2-1.2.2-1.2 1.2-1.3 1.1.1 1.2 1.3 0 1-1.2 1.2m8.3-.1v-1.7h-3.9v-1.1l2.7-5.7h1.5l-2.7 5.6h2.4V194h1.3v2.3h1.2v1.1h-1.2v1.7zm4.4 0 3.7-7.2H224v-1.3h5.9v1.3l-3.7 7.2zm7-4.6q.1-1.9 2.6-2 2.3 0 2.5 1.9h-1.3q-.2-.8-1.2-.8-1.1 0-1.2.8 0 .6 1 .8l1 .2q1.9.4 1.8 1.8-.1 1.9-2.6 2-2.5 0-2.7-1.8h1.4q.2.8 1.3.8t1.2-.9q.1-.6-1-.8l-1-.2q-1.7-.3-1.7-1.8"/>
    </g>
    <g clip-rule="evenodd" filter="url(#p)">
        <path fill="#fff" fill-rule="evenodd" d="M264.5 244a7 7 0 1 0 0-14 7 7 0 0 0 0 14"/>
        <path stroke="#000" stroke-opacity=".1" stroke-width=".3" d="M264.5 244a7 7 0 1 0 0-14 7 7 0 0 0 0 14Z"/>
    </g>
    <g filter="url(#q)">
        <path fill="#e5484d" fill-rule="evenodd" d="M264.5 241.9a4.9 4.9 0 1 0 0-9.8 4.9 4.9 0 0 0 0 9.8" clip-rule="evenodd"/>
    </g>
    <defs>
        <clipPath id="b" transform="translate(-140 -33)">
            <path d="M144 40a3 3 0 0 1 3-3h106a3 3 0 0 1 3 3v84H144z"/>
        </clipPath>
        <clipPath id="d" transform="translate(-140 -119)">
            <path d="M144 123h112v9a3 3 0 0 1-3 3H147a3 3 0 0 1-3-3z"/>
        </clipPath>
        <clipPath id="n" transform="translate(-119 -101)">
            <rect width="211" height="80" x="159" y="141" rx="4"/>
        </clipPath>
        <clipPath id="a">
            <path fill="#fff" d="M16 123h112v9a3 3 0 0 1-3 3H19a3 3 0 0 1-3-3z"/>
        </clipPath>
        <clipPath id="e">
            <path fill="#fff" d="M144 123h112v9a3 3 0 0 1-3 3H147a3 3 0 0 1-3-3z"/>
        </clipPath>
        <clipPath id="g">
            <path fill="#fff" d="M272 123h112v9a3 3 0 0 1-3 3H275a3 3 0 0 1-3-3z"/>
        </clipPath>
        <clipPath id="h">
            <path fill="#fff" d="M400 123h112v9a3 3 0 0 1-3 3H403a3 3 0 0 1-3-3z"/>
        </clipPath>
        <clipPath id="l">
            <path fill="#fff" d="M16 271h308v9a3 3 0 0 1-3 3H19a3 3 0 0 1-3-3z"/>
        </clipPath>
        <clipPath id="m">
            <path fill="#fff" d="M340 271h172v9a3 3 0 0 1-3 3H343a3 3 0 0 1-3-3z"/>
        </clipPath>
        <filter id="i" width="58" height="56" x="8" y="145.5" color-interpolation-filters="sRGB" filterUnits="userSpaceOnUse">
            <feFlood flood-opacity="0" result="BackgroundImageFix"/>
            <feColorMatrix in="SourceAlpha" result="hardAlpha" values="0 0 0 0 0 0 0 0 0 0 0 0 0 0 0 0 0 0 127 0"/>
            <feOffset/>
            <feGaussianBlur stdDeviation="12"/>
            <feComposite in2="hardAlpha" operator="out"/>
            <feColorMatrix values="0 0 0 0 0.898039 0 0 0 0 0.282353 0 0 0 0 0.301961 0 0 0 0.8 0"/>
            <feBlend in2="BackgroundImageFix" result="effect1_dropShadow_9631_2935"/>
            <feBlend in="SourceGraphic" in2="effect1_dropShadow_9631_2935" result="shape"/>
        </filter>
        <filter id="o" width="332" height="160" x="119" y="101" color-interpolation-filters="sRGB" filterUnits="userSpaceOnUse">
            <feFlood flood-opacity="0" result="BackgroundImageFix"/>
            <feColorMatrix in="SourceAlpha" result="hardAlpha" values="0 0 0 0 0 0 0 0 0 0 0 0 0 0 0 0 0 0 127 0"/>
            <feOffset dx="2" dy="4"/>
            <feGaussianBlur stdDeviation="2.5"/>
            <feColorMatrix values="0 0 0 0 0 0 0 0 0 0 0 0 0 0 0 0 0 0 0.2 0"/>
            <feBlend in2="BackgroundImageFix" result="effect1_dropShadow_9631_2935"/>
            <feBlend in="SourceGraphic" in2="effect1_dropShadow_9631_2935" result="shape"/>
        </filter>
        <filter id="p" width="19.9" height="19.9" x="254.5" y="227.4" color-interpolation-filters="sRGB" filterUnits="userSpaceOnUse">
            <feFlood flood-opacity="0" result="BackgroundImageFix"/>
            <feColorMatrix in="SourceAlpha" result="hardAlpha" values="0 0 0 0 0 0 0 0 0 0 0 0 0 0 0 0 0 0 127 0"/>
            <feOffset dy=".3"/>
            <feGaussianBlur stdDeviation="1.4"/>
            <feColorMatrix values="0 0 0 0 0 0 0 0 0 0 0 0 0 0 0 0 0 0 0.2 0"/>
            <feBlend in2="BackgroundImageFix" result="effect1_dropShadow_9631_2935"/>
            <feBlend in="SourceGraphic" in2="effect1_dropShadow_9631_2935" result="shape"/>
        </filter>
        <filter id="q" width="9.8" height="10" x="259.6" y="232.1" color-interpolation-filters="sRGB" filterUnits="userSpaceOnUse">
            <feFlood flood-opacity="0" result="BackgroundImageFix"/>
            <feBlend in="SourceGraphic" in2="BackgroundImageFix" result="shape"/>
            <feColorMatrix in="SourceAlpha" result="hardAlpha" values="0 0 0 0 0 0 0 0 0 0 0 0 0 0 0 0 0 0 127 0"/>
            <feOffset dy=".2"/>
            <feGaussianBlur stdDeviation=".8"/>
            <feComposite in2="hardAlpha" k2="-1" k3="1" operator="arithmetic"/>
            <feColorMatrix values="0 0 0 0 0 0 0 0 0 0 0 0 0 0 0 0 0 0 0.2 0"/>
            <feBlend in2="shape" result="effect1_innerShadow_9631_2935"/>
        </filter>
        <linearGradient id="j" x1="147.7" x2="147.7" y1="189" y2="244.6" gradientUnits="userSpaceOnUse">
            <stop stop-color="#e5484d" stop-opacity=".2"/>
            <stop offset="1" stop-color="#e5484d" stop-opacity="0"/>
        </linearGradient>
        <linearGradient id="k" x1="147.7" x2="147.7" y1="189" y2="244.6" gradientUnits="userSpaceOnUse">
            <stop stop-color="#e5484d" stop-opacity=".2"/>
            <stop offset="1" stop-color="#e5484d" stop-opacity="0"/>
        </linearGradient>
    </defs>
</svg>