<svg xmlns="http://www.w3.org/2000/svg" fill="none" viewBox="0 0 272 404">
    <g clip-path="url(#a)">
        <path stroke="#242834" d="M15.5 0v404M49.5 0v404M136 0v141M136 243v161M16 323.5h208.5M16 59.5h208.5M16 51.5h208.5M16 343.5h208.5M16 351.5h208.5M16 79.5h208.5M180 324v80M180 0v80"/>
        <g clip-path="url(#b)">
            <mask id="c" fill="#fff">
                <path d="M223 404V0h49v404z"/>
            </mask>
            <path fill="#0b0c0e" d="M223 404V0h49v404z"/>
            <path stroke="#242834" d="m272.6 449.3-51-50.9M272.6 442.4l-51-50.9M272.6 435.5l-51-50.9M272.6 428.6l-51-51M272.6 421.6l-51-50.9M272.6 414.7l-51-50.9M272.6 407.8l-51-50.9M272.6 400.9l-51-50.9M272.6 394l-51-50.9M272.6 387.1l-51-50.9M272.6 380.2l-51-50.9M272.6 373.3l-51-50.9M272.6 366.4l-51-51M272.6 359.4l-51-50.9M272.6 352.5l-51-50.9M272.6 345.6l-51-50.9M272.6 338.7l-51-50.9M272.6 331.8l-51-50.9M272.6 324.9l-51-50.9M272.6 318l-51-50.9M272.6 311.1l-51-51M272.6 304.1l-51-50.9M272.6 297.2l-51-50.9M272.6 290.3l-51-50.9M272.6 283.4l-51-50.9M272.6 276.5l-51-50.9M272.6 269.6l-51-50.9M272.6 262.7l-51-50.9M272.6 255.8l-51-50.9M272.6 248.9l-51-51M272.6 241.9l-51-50.9M272.6 235l-51-50.9M272.6 228.1l-51-50.9M272.6 221.2l-51-50.9M272.6 214.3l-51-50.9M272.6 207.4l-51-50.9M272.6 200.5l-51-50.9M272.6 193.6l-51-50.9M272.6 186.7l-51-51M272.6 179.7l-51-50.9M272.6 172.8l-51-50.9M272.6 165.9l-51-50.9M272.6 159l-51-50.9M272.6 152.1l-51-50.9M272.6 145.2l-51-50.9M272.6 138.3l-51-50.9M272.6 131.4l-51-51M272.6 124.4l-51-50.9M272.6 117.5l-51-50.9M272.6 110.6l-51-50.9M272.6 103.7l-51-50.9M272.6 96.8l-51-50.9M272.6 89.9l-51-50.9M272.6 83l-51-50.9M272.6 76.1l-51-50.9M272.6 69.2l-51-51M272.6 62.2l-51-50.9M272.6 55.3l-51-50.9M272.6 48.4l-51-50.9M272.6 41.5l-51-50.9M272.6 34.6l-51-50.9M272.6 27.7l-51-50.9M272.6 20.8l-51-50.9M272.6 13.9l-51-51M272.6 6.9l-51-50.9M272.6 0l-51-50.9"/>
        </g>
        <path fill="#242834" d="M224 404V0h-2v404z" mask="url(#c)"/>
        <mask id="d" width="104" height="60" x="84" y="140" maskUnits="userSpaceOnUse" style="mask-type:alpha">
            <path fill="#d9d9d9" d="m136 140 52 60H84z"/>
        </mask>
        <g stroke="#242834" mask="url(#d)">
            <path fill="#0b0c0e" d="M186.9 199.5H85l50.9-58.7z"/>
            <path d="M88 220v-80M94 220v-80M100 220v-80M106 220v-80M112 220v-80M118 220v-80M124 220v-80M130 220v-80M136 220v-80M142 220v-80M148 220v-80M154 220v-80M160 220v-80M166 220v-80M172 220v-80M178 220v-80M184 220v-80"/>
        </g>
        <path fill="#0b0c0e" stroke="#242834" d="M186.9 243.5H85l50.9-58.7z"/>
        <path fill="#e5484d" d="m136 224 7.5 9h-15z"/>
        <path fill="url(#e)" d="M273 343h61v273h-61z" transform="rotate(90 273 343)"/>
        <path fill="url(#f)" d="M0 0h61v273H0z" transform="matrix(0 -1 -1 0 273 61)"/>
    </g>
    <defs>
        <linearGradient id="e" x1="321.8" x2="296.7" y1="479.5" y2="479.5" gradientUnits="userSpaceOnUse">
            <stop stop-color="#0b0c0e"/>
            <stop offset="1" stop-color="#0b0c0e" stop-opacity=".1"/>
        </linearGradient>
        <linearGradient id="f" x1="48.8" x2="23.7" y1="136.5" y2="136.5" gradientUnits="userSpaceOnUse">
            <stop stop-color="#0b0c0e"/>
            <stop offset="1" stop-color="#0b0c0e" stop-opacity=".1"/>
        </linearGradient>
        <clipPath id="a">
            <path fill="#fff" d="M0 0h272v404H0z"/>
        </clipPath>
        <clipPath id="b">
            <path fill="#fff" d="M223 404V0h49v404z"/>
        </clipPath>
    </defs>
</svg>