<svg xmlns="http://www.w3.org/2000/svg" fill="none" viewBox="0 0 1132 400">
    <g clip-path="url(#a)">
        <path fill="#fff" d="M565.5 22.6c4.2-6.7 11-13.8 18.4-16.8a38.1 38.1 0 0 1 53 41.5c2.5-.5 5-2 7.6-3 15.6-4.4 32.2.4 42.2 13.8a38 38 0 0 1 5 36q-3.5 8.8-11 15.4l.4.5a37.9 37.9 0 0 1 23.6 65 41 41 0 0 1-31 10.8H457.3a39 39 0 0 1-38.9-23.3c-5.8-13.5-3-30.9 8-41.2 6.7-7.2 15.3-10 24.5-11.6a39 39 0 0 1-12.5-37.1A38.2 38.2 0 0 1 494 47.4l.3-.3a38 38 0 0 1 17.2-38.6 38.5 38.5 0 0 1 54 14.1"/>
        <path fill="#645faa" d="M626.8 28.5c4.6 9.4 1.9 21.7-3 30.1l-37.5 84.5-.3.4-13.6-85.7c-1-8.3 7.7-11.8 12.9-15.7-.3-1.2-1.6-1.2-2.4-1.7l-12.7-.2-.4-.3a29 29 0 0 1 15.5-25.7 30 30 0 0 1 33.2 3.3q5.6 4.8 8.3 11"/>
        <path fill="#c9234a" d="M557.6 25.6c3 5.6 4.8 12 3.8 19.2L546 143l-.2.3-4-8-38.4-85.6a29.7 29.7 0 0 1 39.8-36.5c5.6 2.4 11 6.9 14.3 12.4"/>
        <path fill="#0089cf" d="M682.3 66.9c5.2 8.8 4 22.1-1.7 30.3-3.6 5.7-9.4 8.6-14.4 12.3l-79.5 54.6h-.2l.9-2.6 42.1-95.1a30 30 0 0 1 31.1-15.2 31 31 0 0 1 21.7 15.7"/>
        <path fill="#f36f21" d="m501.7 66.4 43.9 97.7h-.7l-88.5-61c-9-7.5-12.7-18.9-9.6-30.3a31 31 0 0 1 18-19.9c13.8-5 29.5.3 36.9 13.5"/>
        <path fill="#0db14b" d="M705.4 135.9c4.4 9.3 2.7 22-3.6 30a30 30 0 0 1-24.5 11.4h-94.2l79-54.9a30.5 30.5 0 0 1 43.3 13.5"/>
        <path fill="#fdb913" d="M426.2 135.9c-4.4 9.3-2.7 22 3.6 30a30 30 0 0 0 24.4 11.4h94.3l-79-54.9a30.5 30.5 0 0 0-43.3 13.5"/>
        <path fill="#fff" d="M256.9 233.8a83.1 83.1 0 1 0 .1 166.3 83.1 83.1 0 0 0-.1-166.3m0 149.8A66.8 66.8 0 1 1 257 250a66.8 66.8 0 0 1-.1 133.6M973 318c-4.4-2.4-31.5-16.3-35.4-18.4-14.2-7.2-19.3-13.7-19.3-24.5 0-15.2 12.4-25 31.7-25 11.3 0 22.2 5 28.6 8.7q1.9 1 4 1a8.2 8.2 0 0 0 4-15.3 79 79 0 0 0-36.6-10.7c-28.3 0-48 17-48 41.3 0 21.8 14.3 32 28.3 39.2l35.5 18.3c10.8 5.7 16.8 14.2 16.8 24 0 13-11.1 27-31.7 27-20 0-35.5-13.4-39.8-17.5l-1.3-1.2-12.1 11 1.4 1.4c5.4 5.3 25 22.7 51.8 22.7 30 0 48-22 48-43.4 0-16-9.4-30-25.9-38.6M86.5 250.2c17.9 0 34.7 7 47.2 19.5 3 3 8.7 3 11.6 0a8 8 0 0 0 2.4-5.8 8 8 0 0 0-2.4-5.7l-1-1A83.2 83.2 0 1 0 86.6 400c24.1 0 46-10.4 61-27l-11.5-11.5A66.6 66.6 0 0 1 19.8 317c0-36.8 30-66.7 66.7-66.7m563.2 0c17.8 0 34.6 7 47.2 19.5 3 3 8.6 3 11.5 0a8 8 0 0 0 0-11.5l-1-1A83.2 83.2 0 1 0 649.7 400c24.2 0 46-10.4 61.1-27l-11.5-11.5a66.6 66.6 0 1 1-49.6-111.3M509 233.8c-3 0-5.5 2-6.8 4.6-1.4 2.5-49 120.1-49 120.1s-47.5-117.6-48.8-120.1c-1.3-2.6-3.7-4.6-6.8-4.6-3.6 0-6.3 2.7-7.2 6S362.6 391 362.6 391q-.2.7-.1 1.5A7.4 7.4 0 0 0 377 394l23.2-126.6s44.8 110.7 46.1 113.4c1.3 2.6 3.8 4.6 6.9 4.6s5.5-2 6.8-4.6c1.4-2.7 46.2-113.4 46.2-113.4l24.1 131.7h15s-28.2-156-29.2-159.3-3.6-6-7.2-6m295.3 0c-3 0-5.5 2-6.8 4.7-1.4 2.6-61.6 151.2-61.6 151.2q-.5 1.5-.5 3a7.4 7.4 0 0 0 14.2 2.6l23.4-57.5h62.7l25 61.3h15.9s-64.1-158-65.4-160.6c-1.3-2.7-3.8-4.7-6.9-4.7m-24.7 87.7 24.7-60.8 24.8 60.8zm340-86.8H1027a8.2 8.2 0 0 0 0 16.4h38.8v148h15V251h38.7a8.2 8.2 0 0 0 0-16.3"/>
    </g>
    <defs>
        <clipPath id="a">
            <path fill="#fff" d="M0 0h1131.2v400H0z"/>
        </clipPath>
    </defs>
</svg>