<svg xmlns="http://www.w3.org/2000/svg" fill="none" viewBox="0 0 455 200">
    <g clip-path="url(#a)">
        <path fill="#fff" d="m335 125.3-1.8.5c-63.2 16.2-60.4-12-59.5-17.2H340l2.7-15.3a100 100 0 0 0 1.8-21.5 29 29 0 0 0-6.7-16.7 38 38 0 0 0-10.7-9 48 48 0 0 0-24-6 49 49 0 0 0-38.9 16.6 60 60 0 0 0-12.5 25.7l-.4 1.8c-.7 3.2-3 14-4 23.3-6.5 57 58.9 51.3 83.1 43.9zm-57-38.5.2-1.9c2.3-8.4 7.3-19.6 23.9-19.6 4 0 11.3.7 15 5.6q3.9 5 2 14.8l-.3 1.1zm-72.5 4.4c2-12.7 12.3-22 25.1-22 4 0 8.3.5 11.8 2.6l5.2-28.8a68 68 0 0 0-17.1-3 54 54 0 0 0-52.7 45.3L165.3 156H194zm236.8-37.8A45 45 0 0 0 426.4 43 50 50 0 0 0 407 40c-26.3.9-44.4 16.8-49.5 43.8a208 208 0 0 0-3 24.5 45 45 0 0 0 12.1 34.4c8.9 9 21.8 14 35.6 13.5 26.1-.8 44.1-16.8 49.3-43.8a225 225 0 0 0 3-24.4 45 45 0 0 0-12.2-34.6m-14.5 34.9c-.2 3.8-1.1 13.2-2.2 18.5-4.2 22.5-18.8 23-23.6 23.1a21 21 0 0 1-15.7-5.8q-5.7-5.8-5.2-16.1c.2-3.6 1.2-13.3 2.2-18.6 2.9-15.3 10.4-22.7 23.7-23a21 21 0 0 1 16.1 6q5.6 5.9 4.8 16M180.4 9A83 83 0 0 0 155.7 4a42 42 0 0 0-14 2A57 57 0 0 0 102 51.3l-16.4 92.2a29 29 0 0 1-29 25.3 30 30 0 0 1-29.9-34.5l.2-.7a30 30 0 0 1 29.7-25.2h24.6l5-27.5H59a61 61 0 0 0-44.5 20.7A56 56 0 0 0 1 128.2a69 69 0 0 0 .8 27.3A50 50 0 0 0 24 187a61 61 0 0 0 12.6 5.8 68 68 0 0 0 47.2-2 58 58 0 0 0 31.4-43.5l2.3-12.8 4.6-25.9h26.6l4.9-27.5h-26.7l4.2-23.4a29 29 0 0 1 3.3-9.4 28 28 0 0 1 28.1-13.6 27 27 0 0 1 10.7 4.2q1 .5 1.7 1.2z"/>
    </g>
    <defs>
        <clipPath id="a">
            <path fill="#fff" d="M0 0h454.5v200H0z"/>
        </clipPath>
    </defs>
</svg>