<svg xmlns="http://www.w3.org/2000/svg" fill="none" viewBox="0 0 680 240">
    <g fill="#fff" clip-path="url(#a)">
        <path d="m231.4 201.5-59.3-1.1-31.7-26c-17.5-14.3-31.5-27.5-31-29.3.2-1.6 18.3-15.1 40-29.9l39.4-26.9h31.3c17.2 0 31.2.7 31.2 1.8 0 1-7.9 7-17.6 13.6-9.5 6.6-27 18.3-38.5 26.5l-21.3 14.3 33.3 27.6a596 596 0 0 0 33.7 27c.5-.5 5.2-23.4 10.4-50.8a980 980 0 0 1 11.8-55c1.8-5.2 2-5.5 27.4-3.9 13.8 1 25.6 1.8 25.8 2 1.6 1.4-20.6 107-22.9 109-1.6 1.3-23.7 1.8-62 1.1m126.8-.4c-1.1-1.6-3-6.6-3.9-11s-6.5-25.7-12.4-47.5C336 121 330.6 100.3 329.7 97l-1.4-6.3h56.4l2.2 8.6c1.2 4.5 3.4 15.6 4.8 24.2 1.6 8.8 3.6 17.2 4.5 19 1.2 2 7.5-5.2 20.9-23.8l19-26.9 16.3-.7 16-.7 3.4 12 8 26.8c2.2 8.1 5.2 14.7 6 14.4 1.2-.2 8.5-10.6 16.2-23.3a390 390 0 0 1 16.7-26.5c3.9-4.7 57.5-4.7 55.7.3-2 5-70 106.2-72.7 108-4.3 3-43.7 2-46-1-1.3-1.5-5.1-10.8-8.5-20.5s-7.3-18.2-8.2-18.8c-1.1-.7-6.8 5.2-12.7 12.9-23.7 31-21 29.2-44.8 29.2q-21 0-23.3-2.7m205.8-1.2c0-2.2 5-27.4 10.6-56.1l10.7-52.1L612 91c29.7-.7 28-1.8 24.2 17l-9.3 46c-3.6 19.2-7.7 38.2-8.6 41.8l-1.5 6.8-26.5.7c-24.3.5-26.5.2-26.3-3.4m-537.7-.4c3.1-3 68.6-47.6 73.5-50 5.3-3 5.5-2.8 1 22.3-6 32.2-2.3 29.7-42.4 29.7-19.7 0-33.5-.9-32.1-2m55.4-74.3c-16.3-13.6-20.6-18.6-20.6-23 .3-7.3 10.4-60.5 12.5-63.7 1.8-3 53.2-3 53.2 0 0 2-16.8 88-19.3 99.2-.6 2.7-2 5-3.1 5s-11.3-8-22.7-17.5M601 83c-4-1.8-8.1-6.1-10-10.4-2.7-6.6-2.4-8.4 1.4-15.7a34 34 0 0 1 30.8-18.3c9.5 0 12.2 1.1 18.1 6.8 5.9 6.1 6.8 8.1 5.7 15.2-3.2 19-27 30.5-46 22.4m-327.4-6c-5.9-6-6.8-8-5.7-15 4.4-26.1 44.2-35.4 54.8-12.8 3.4 7 3.4 8.2-.4 16.1a33 33 0 0 1-30.6 18.6c-9.5 0-12.2-1.2-18-6.8"/>
    </g>
    <defs>
        <clipPath id="a">
            <path fill="#fff" d="M0 0h679.2v240H0z"/>
        </clipPath>
    </defs>
</svg>