<svg xmlns="http://www.w3.org/2000/svg" fill="none" viewBox="0 0 1111 200">
    <g clip-path="url(#a)">
        <path fill="#5a77f6" d="M0 0v163h76V65.2h43.6V163h76V0z"/>
        <path fill="#fff" d="M282.6 0h32.9l75.8 100.8V0h35.1v163h-30.3L317.7 60.1v103h-35.1zm161 101.7c0 38 27.4 64 64.7 64 22.4 0 39-8.7 50.6-23l-20.1-17.9a41 41 0 0 1-30 12.8c-15.8 0-26.9-8.3-30.4-24.3h86.3q.4-5 .4-9.2c0-35.2-19-67.3-60.3-67.3-36 0-61.3 29.1-61.3 64.5zM478 91.3c2.8-15.9 12.3-26.3 27-26.3s24 10.6 26 26.3zm109.2 36.5c0 28.7 14.5 37.3 36 37.3a52 52 0 0 0 27.8-7.2v-28.2a35 35 0 0 1-17.4 4.4c-7.8 0-11.3-4-11.3-12V69h29.1v-30h-29.1V7.4h-35.1v31.7h-14.8v30H587zM835.9 200H871v-53.2a48 48 0 0 0 38.6 18.5c29.4 0 56.5-22.6 56.5-64v-.5c0-41.4-27.5-64-56.5-64-18.2 0-30 8.5-38.6 20V39.2h-35zm95-98.7c0 20.8-13.9 34.2-30.3 34.2s-30-13.7-30-34.2v-.5c0-20.6 13.6-34.2 30-34.2S931 80.2 931 100.8zm49.5 98.7h35.1v-53.2a48 48 0 0 0 38.6 18.5c29.4 0 56.4-22.6 56.4-64v-.5c0-41.4-27.5-64-56.4-64-18.2 0-30 8.5-38.6 20V39.2h-35.1zm95-98.7c0 20.8-13.9 34.2-30.3 34.2s-30-13.7-30-34.2v-.5c0-20.6 13.6-34.2 30-34.2s30.3 13.6 30.3 34.2zM659.9 163h36.3l14.8-36.3H775l15 36.3h37L759.5 0h-32zm61.6-67.7 21.6-52.5 21.4 52.5z"/>
    </g>
    <defs>
        <clipPath id="a">
            <path fill="#fff" d="M0 0h1110.5v200H0z"/>
        </clipPath>
    </defs>
</svg>