<svg xmlns="http://www.w3.org/2000/svg" fill="none" viewBox="0 0 881 240">
    <mask id="a" width="871" height="240" x="5" y="0" maskUnits="userSpaceOnUse" style="mask-type:luminance">
        <path fill="#fff" d="M875.4 0H5.4v240h870z"/>
    </mask>
    <g mask="url(#a)">
        <path fill="#fff" d="M410.2 127a58 58 0 0 0 8-30.2 60 60 0 0 0-3.9-21.8 54 54 0 0 0-11.4-18 55 55 0 0 0-17.7-12.4A57 57 0 0 0 362 40h-65v157h35.8v-43.5h16.8l27.4 43.6h41.5l-30.9-49.6a51 51 0 0 0 22.6-20.5M380.3 107a27 27 0 0 1-5 8.6 24 24 0 0 1-7.8 6 23 23 0 0 1-10.1 2.2h-24.6V69.6h24.6a23 23 0 0 1 10.1 2.3 24 24 0 0 1 7.8 6 27 27 0 0 1 5 8.6 31 31 0 0 1 0 20.6zm128-2.7a33 33 0 0 0-5.2-7 35 35 0 0 0-7.6-5.8 42 42 0 0 0-9.4-4 37 37 0 0 0-10.2-1.4 50 50 0 0 0-21 4.4 50 50 0 0 0-16.5 11.9 53 53 0 0 0-10.6 18 70 70 0 0 0 0 45 53 53 0 0 0 10.6 18 50 50 0 0 0 16.4 11.9 50 50 0 0 0 21.1 4.4 37 37 0 0 0 10.2-1.5 46 46 0 0 0 9.4-3.8 35 35 0 0 0 7.6-5.6 28 28 0 0 0 5.3-7V197H542V88.9h-33.7zm-1.8 49.3a27 27 0 0 1-5.2 8.7 25 25 0 0 1-8 6 25 25 0 0 1-10.3 2.2q-5.4 0-10.4-2.2a25 25 0 0 1-8-6 27 27 0 0 1-5.1-8.7 30 30 0 0 1-1.9-10.7c0-7.1 2.5-14 7-19.3a25 25 0 0 1 8-6 25 25 0 0 1 10.4-2.3q5.4 0 10.4 2.2a25 25 0 0 1 8 6 29 29 0 0 1 7 19.4 31 31 0 0 1-2 10.7m183.8 17.7a23 23 0 0 1-5.7-.7 10 10 0 0 1-4.7-2.6 13 13 0 0 1-3-5.4q-1.2-3.6-1.2-9.7v-38.5H700V88.9h-24.3V57h-33.5v32h-37.6V57H571v32h-16.8v25.6H571v46.2q0 13.5 3.6 21.2 3.7 7.8 9.3 11.5A29 29 0 0 0 596 198q6.3.9 12.6.9 7.5 0 13.1-.6l9.4-1.2v-26.3a26 26 0 0 1-5.7.6H619a23 23 0 0 1-5.8-.7 10 10 0 0 1-4.6-2.6 13 13 0 0 1-3.1-5.4q-1.1-3.6-1.1-9.7v-38.5H642v46.2q0 13.5 3.6 21.2 3.6 7.8 9.3 11.5a29 29 0 0 0 12.2 4.6q6.3.9 12.6.9a136 136 0 0 0 22.5-1.8v-26.3a26 26 0 0 1-5.7.6zM752 40h-33.7v157H752zm119.5 76.5a47 47 0 0 0-11-15.7A55 55 0 0 0 843.3 90q-10.1-4-22.7-4-13.9 0-24.4 4.5a51 51 0 0 0-17.6 12.2 52 52 0 0 0-10.9 18 66 66 0 0 0-3.6 22.3 67 67 0 0 0 3.8 23 51 51 0 0 0 11 18 49 49 0 0 0 18 11.8q10.7 4.2 24.6 4.2a68 68 0 0 0 20.7-3 53 53 0 0 0 15.9-7.9 42 42 0 0 0 10.8-11.8A38 38 0 0 0 874 163H841a19 19 0 0 1-6.3 8.7q-4.6 3.6-13.4 3.6-6.6 0-11-1.9a19 19 0 0 1-7.2-5.2 20 20 0 0 1-4-7.6 42 42 0 0 1-1.4-9.3h76.6q.8-4.3 1-8.8l.1-7.1a47 47 0 0 0-3.9-18.9m-73.8 15q0-11 6.4-16.8t16.3-5.8q9.7 0 15.8 6t6 16.7z"/>
        <path fill="#ff8000" d="M123.4 237c63.6 0 115.1-52.4 115.1-117S187 3 123.5 3 8.2 55.4 8.2 120s51.5 117 115.1 117"/>
        <path fill="#00ce84" d="M214.3 126.2c.9-24.2-4.6-38-10.5-46-4.8-6.5-12.4-10.5-27-10.4l-38.6.9-11.8-11a32 32 0 0 0-12.4-7.1 32 32 0 0 0-14.3-1C27.6 62.5 30.3 144 30.3 144s-8 0-18.8 4.4c8 23 15.4 50.2 63.5 78.3.8-4.2 11.4-35.1 11.4-35.1s10.6-32 35.2-20.5c20.6 9.6 42.8 9.4 51.6 8.9a27 27 0 0 0 16.3-6.8 74 74 0 0 0 15-18.3s-54.8-11-80.6-38.3c25.2 22.2 90.5 9.6 90.5 9.6"/>
        <path fill="#000" d="M195.4 98.5c2.4-1.2.7-10.2-.5-12.6l-1-1.7a5 5 0 0 0-1.8-1 5 5 0 0 0-3.8.1 5 5 0 0 0-1.6 1.2l-1 1.7a5 5 0 0 0 .3 4c1.2 2.5 6.9 9.5 9.4 8.3m-76.2-20c-.2-7.2-4-13-8.7-12.9s-8.1 6.2-7.9 13.4 4.1 13 8.7 12.9 8.2-6.1 8-13.4"/>
        <path fill="#fff" d="M114.1 78.4c1.2 0 2.1-1.8 2-3.8s-1-3.7-2.2-3.7-2.1 1.8-2 3.8c0 2 1 3.7 2.2 3.7"/>
        <path fill="#000" d="M123.4 0c-65 0-118 53.8-118 120s53 120 118 120 118-53.8 118-120S188.6 0 123.5 0M16.1 153a143 143 0 0 1 15.8 23.8c.8 1.5 2.8 1.5 3 0A114 114 0 0 0 33 144v-.1q0-10.5 2-20.7a87 87 0 0 1 19.8 3.2h1s.5-.3.7-.6a2 2 0 0 0-.2-1.8A93 93 0 0 0 38 110.3q1-3.7 2.6-7.5a96 96 0 0 1 3.7-8.2A90 90 0 0 1 65 104.8a1.4 1.4 0 0 0 1.6 0l.5-.7v-1A98 98 0 0 0 54.5 79a68 68 0 0 1 9.9-9.6 86 86 0 0 1 19 11.9 1.3 1.3 0 0 0 2-.5q.2-.3.1-.8a101 101 0 0 0-6-19.6 83 83 0 0 1 20.7-6 29 29 0 0 1 13 1 29 29 0 0 1 11.2 6.6l11.8 11q1 .7 2 .7l38.5-.9c15.8-.2 21.6 4.8 24.8 9.2 6.8 9.2 10.3 23.5 10 41.7-11.7 1.9-63.8 9.2-85.3-9a25 25 0 0 0 1.5-10.9 3 3 0 0 0-1.1-2 3 3 0 0 0-4.1.6 3 3 0 0 0-.6 2.1A17 17 0 0 1 113 121l-.9.7a3 3 0 0 0-.6 2.2q0 .6.3 1.1a3 3 0 0 0 1.7 1.5 3 3 0 0 0 2.3-.2 22 22 0 0 0 7.3-6.2c22.5 22.6 63.3 33.7 76.5 36.9a76 76 0 0 1-12.3 14 24 24 0 0 1-14.5 6c-8.3.4-29.4-1.6-50.5-8.8q-12-4.2-21.1 0c-9.1 4.2-11.2 8.3-15.3 16.8l-.5 1-.3.6a237 237 0 0 0-12.8 34.8 113 113 0 0 1-35-28.3 115 115 0 0 1-21.3-40M123.4 234a110 110 0 0 1-45.6-9.9 231 231 0 0 1 11.6-32.3l.5-1.2 1.3-3c5-10.3 13.2-19.3 29.3-13.7a160 160 0 0 0 52.8 9c6.6-.3 13-3 18-7.4a77 77 0 0 0 15.7-19.1 3 3 0 0 0 0-2.7l-2-3.7a13 13 0 0 1-1.4-9.6 13 13 0 0 1 5.7-7.7l5.9-3.6a3 3 0 0 0 1.4-1 3 3 0 0 0 .6-1.7q1.1-31.6-11-48c-6-8.2-15.2-11.7-29.6-11.6l-37.3.9-10.9-10.1a35 35 0 0 0-13.5-7.9 35 35 0 0 0-15.6-1.1 79 79 0 0 0-64.2 52.2 124 124 0 0 0-7.9 40.4 80 80 0 0 0-13.2 3.7 116 116 0 0 1-2.7-24.9C11.3 57.1 61.6 6 123.4 6c61.9 0 112.2 51.1 112.2 114s-50.3 114-112.2 114"/>
        <path fill="#fff" d="m144.4 128.1 1 3.1c.8 2.1 2.9 2.8 4.6 1.4l3.4-2.6a73 73 0 0 1-9-1.9m44.1 4.5 2.9 3a5 5 0 0 0 3.2 1.3 5 5 0 0 0 3.2-1.3l3.3-3.3q-5.6.3-12.6.3m-18 4.4-7.4 3.1a282 282 0 0 0 18.6 6.3l-2.3-5.6a7 7 0 0 0-1.5-2.2 7 7 0 0 0-2.2-1.5 7 7 0 0 0-5.2 0"/>
    </g>
</svg>