<svg xmlns="http://www.w3.org/2000/svg" fill="none" viewBox="0 0 662 460">
    <path fill="#0d9dda" d="M276.1 50.2a115.2 115.2 0 0 1 184.7 24.3c17.6-7.9 37-12.3 57.3-12.3 78.3 0 141.7 64 141.7 143a142.3 142.3 0 0 1-169.6 140.2A103.7 103.7 0 0 1 354.5 388c-18 42.3-60 72-108.7 72s-94.2-32.2-111-77.3Q124 385 112.4 385A110 110 0 0 1 2.6 274.2c0-41 22.1-76.8 54.9-96A127.6 127.6 0 0 1 276 50.2"/>
    <path fill="#fff" d="M97.9 238.6c-.5 1 .1 1.2.3 1.5l3.7 2.3c6.7 3.5 13 4.6 19.6 4.6 13.5 0 21.9-7.2 21.9-18.7v-.2c0-10.7-9.5-14.6-18.4-17.4l-1.1-.3c-6.7-2.2-12.4-4-12.4-8.5v-.2c0-3.8 3.3-6.6 8.6-6.6 5.8 0 12.7 2 17 4.4 0 0 1.4.9 1.9-.4l2.7-7.4c.3-.7-.2-1.2-.6-1.5-5.1-3.1-12.1-5.2-19.4-5.2h-1.3c-12.4 0-21 7.5-21 18.1v.2c0 11.3 9.5 15 18.4 17.5l1.4.4c6.5 2 12 3.8 12 8.3v.2c0 4.2-3.6 7.3-9.4 7.3-2.3 0-9.6 0-17.4-5l-2.2-1.4c-.4-.2-1.4-.7-1.8.6l-2.7 7.4zM295.2 238.6c-.5 1 .1 1.2.3 1.5l3.7 2.3c6.7 3.5 13 4.6 19.6 4.6 13.5 0 21.9-7.2 21.9-18.7v-.2c0-10.7-9.4-14.6-18.4-17.4l-1.1-.3c-6.7-2.2-12.4-4-12.4-8.5v-.2c0-3.8 3.3-6.6 8.6-6.6 5.8 0 12.7 2 17 4.4 0 0 1.4.9 1.9-.4l2.7-7.4c.3-.7-.2-1.2-.6-1.5-5.1-3.1-12.1-5.2-19.4-5.2h-1.3c-12.4 0-21 7.5-21 18.1v.2c0 11.3 9.5 15 18.4 17.5l1.4.4c6.5 2 12 3.8 12 8.3v.2c0 4.2-3.6 7.3-9.4 7.3-2.3 0-9.6 0-17.4-5l-2.2-1.4c-.2-.2-1.4-.6-1.8.6l-2.7 7.4zM441.1 203.8q-1.6-5.6-5-9.7-3.5-4.2-8.7-6.6a29 29 0 0 0-12-2.4q-7 0-12.1 2.4a25 25 0 0 0-13.8 16.3 43 43 0 0 0 0 24.2q1.7 5.6 5.1 9.8a25 25 0 0 0 20.7 8.9q7 0 12.1-2.4 5.2-2.3 8.6-6.5 3.5-4.2 5.1-9.8a43 43 0 0 0 0-24.2M430 216a28 28 0 0 1-3.6 15.3q-3.6 5.3-11 5.3t-10.9-5.3a28 28 0 0 1-3.6-15.3q0-9.8 3.5-15.2 3.6-5.4 11-5.3 7.4 0 10.9 5.3 3.6 5.4 3.6 15.2"/>
    <path fill="#fff" fill-rule="evenodd" d="M533.6 234.8c-.4-1-1.5-.6-1.5-.6q-2.4 1-5.2 1.5t-6.2.4q-8.2 0-12.9-4.8t-4.8-15.4q.1-9.4 4.3-14.8t12.6-5.5c4.6 0 8.1.5 11.9 1.8 0 0 .8.3 1.3-.8l2.8-7.7c.3-.9-.5-1.2-.7-1.3-1.5-.6-5-1.5-7.5-1.9a58 58 0 0 0-8.4-.5q-7.2 0-12.6 2.4a26 26 0 0 0-14.5 16.3 39 39 0 0 0-1.9 12.2q0 14 7.5 22.4t22.2 8.3c5.7 0 11.6-1.1 16-2.9 0 0 .7-.3.4-1.3l-2.7-7.6zM591.2 201.8A23 23 0 0 0 568 185q-7.2 0-12.6 2.4a25 25 0 0 0-8.8 6.7q-3.5 4.2-5.1 10a44 44 0 0 0 0 24.2 25 25 0 0 0 15.1 16q5.8 2.3 13.8 2.3c11 0 16.8-2.5 19.2-3.8q.8-.2.4-1.8l-2.5-7c-.4-1-1.5-.7-1.5-.7-2.7 1-6.6 2.9-15.6 2.9-6 0-10.3-1.8-13-4.5q-4.2-4.1-4.5-12.7h38s1 0 1.2-.9c0-.4 1.3-7.8-1.2-16.4zm-38 8q.9-5.5 3.2-9 3.4-5.5 10.9-5.6 7.3.1 10.6 5.5 2.3 3.7 2.5 9zM286.1 201.8a23 23 0 0 0-23-16.7q-7.3 0-12.6 2.4a25 25 0 0 0-8.8 6.7q-3.4 4.2-5.2 10a44 44 0 0 0 0 24.2q1.8 5.7 5.6 9.7 3.8 4.3 9.6 6.3 5.8 2.3 13.8 2.3c11 0 16.8-2.5 19.2-3.8.4-.2.8-.7.3-1.8l-2.6-7c-.3-1-1.4-.7-1.4-.7-2.7 1-6.6 2.9-15.7 2.9-5.9 0-10.2-1.8-13-4.5q-4-4.1-4.4-12.7h38s1 0 1.1-.9c0-.4 1.3-7.8-1.1-16.4zm-37.9 8q.7-5.5 3.1-9 3.5-5.5 11-5.6c5 0 8.2 2 10.7 5.5q2.1 3.7 2.5 9h-27.2" clip-rule="evenodd"/>
    <path fill="#fff" d="M181 207.9q-2.3-.2-6-.2-4.8 0-9.3 1.2t-8 3.7a19 19 0 0 0-5.6 6.3q-2 3.8-2 8.7 0 5.1 1.8 8.7a16 16 0 0 0 5 6 22 22 0 0 0 7.7 3.4q4.6 1 10 1a77 77 0 0 0 11.6-1l12.2-2.5c1-.2.9-1.2.9-1.2v-34.9q0-11.5-6.1-16.8-6-5.2-17.5-5.2c-2.9 0-7.5.3-10.2 1 0 0-8.3 1.5-11.7 4.2 0 0-.7.5-.4 1.5l2.8 7.3c.3 1 1.2.6 1.2.6l.6-.2c7.4-4 16.6-4 16.6-4q6.2.1 9.5 2.5c2 1.6 3.1 4 3.1 9v1.7zM166 234.6a9 9 0 0 1-2.3-2.2 9 9 0 0 1-1.1-5q-.1-5 3.4-7.4s3.3-2.9 11-2.7c5.5 0 10.4.8 10.4.8v17.4s-4.8 1-10.3 1.3c-7.8.5-11.2-2.2-11.1-2.2"/>
    <path fill="#fff" fill-rule="evenodd" d="M488.2 188.2c.3-.8-.3-1.3-.6-1.3-.6-.2-3.8-1-6.3-1.1a19 19 0 0 0-16.4 6.3v-4.7q0-1-1-1.1H454q-1 .1-1 1.1v56.9q0 1 1 1.2h10q1.1-.2 1.2-1.2v-28.4c0-3.8.4-7.6 1.3-10q1.3-3.5 3.3-5.6 2.1-2 4.7-2.8a17 17 0 0 1 9.2-.2q1.1 0 1.4-1l2.9-8zM394.3 162l-3.8-1q-2.2-.4-5.1-.4-10.5 0-16.1 5.9a31 31 0 0 0-7.6 17.2l-.5 2.6h-8.6s-1 0-1.3 1l-1.4 8q-.2 1.2 1.2 1.2h8.4l-8.6 47.7q-1 5.8-2.3 9.4-1.1 3.4-2.6 5.4a7 7 0 0 1-3.5 2.6 14 14 0 0 1-7.5.3c-1-.1-1.4-.3-2.1-.6 0 0-1-.4-1.4.6l-2.8 7.8c-.3.7.2 1.3.6 1.5l3.5 1q3 .6 5.6.5 5.3 0 9.3-1.4 4-1.5 7-5c2.3-2.4 3.6-5 5-8.5q2-5.1 3.4-12.8l8.5-48.6h12.6s1.1 0 1.3-1l1.5-8q.1-1.1-1.3-1.2h-12.1s.6-4.5 2-8.6q1-2.5 2.7-4 1.4-1.5 3.1-2.1t4.1-.6a20 20 0 0 1 5.1.8c1.2.4 1.5 0 1.7-.6l3-8c.2-.8-.5-1.2-.8-1.2zM224.2 244.3q-.1 1-1.1 1.2h-10.2q-1-.2-1-1.2V163q0-1 1-1.1h10.2q1 .1 1 1.1z" clip-rule="evenodd"/>
</svg>