<svg xmlns="http://www.w3.org/2000/svg" fill="none" viewBox="0 0 1184 200">
    <path fill="#fff" d="M50 138v-11.8h41.6v15a14 14 0 0 0 9.7 13.5 14 14 0 0 0 5.9.6 13.5 13.5 0 0 0 15-10.5 19 19 0 0 0-.3-11.6c-8-20.3-63-29.4-70-61a56 56 0 0 1-.3-21c4.3-25.4 26.6-34.5 54.2-34.5 22 0 52.4 5 52.4 39v11.1h-38.7v-9.7a13.3 13.3 0 0 0-14.5-14 13 13 0 0 0-14.2 10.5 21 21 0 0 0 .3 8.1c4.5 18 63.3 27.8 69.8 60.4a72 72 0 0 1 .2 25.7c-3.7 25.8-26.8 35.5-54.7 35.5C77 183.3 50 172.8 50 138m504-.5v-11.9h41.2v14.9a14 14 0 0 0 4.4 10.5 14 14 0 0 0 10.8 3.5 13.4 13.4 0 0 0 15-10.3 18 18 0 0 0-.2-11.3c-7.8-20-62.3-29.2-69.3-60.7a54 54 0 0 1-.2-20.8c4.3-25 26.6-34.2 53.7-34.2 21.7 0 51.8 5.4 51.8 38.8v10.8h-38.4v-9.4a13 13 0 0 0-3.9-10.3 13 13 0 0 0-10.3-3.7 12.5 12.5 0 0 0-14 10.2 21 21 0 0 0 .3 8.1c4.3 18 62.5 27.5 69 59.9a71 71 0 0 1 .2 25.3c-3.7 26-26.5 35.4-54.1 35.4-29 0-56-10.6-56-44.8m147.2 5.7a61 61 0 0 1-.3-10.3V21.3h39.2v115.1a43 43 0 0 0 .3 6 15.3 15.3 0 0 0 29.5 0 42 42 0 0 0 .3-6V21.3h39.2v111.6l-.3 10.3c-2.7 29.1-25.5 38.5-54 38.5s-51.2-9.4-54-38.5zm322.6-1.6q-.6-5.3-.5-10.4V65.9c0-2.7.2-7.6.5-10.3 3.5-29.1 26.9-38.3 54.5-38.3 27.4 0 51.5 9.2 54.2 38.3q.5 5 .3 10.3v5h-39.2v-8.5q0-3-.5-6a16 16 0 0 0-5.9-8.2 16 16 0 0 0-9.6-3.1q-5.3 0-9.5 3.1a16 16 0 0 0-5.9 8.2 32 32 0 0 0-.5 7.3v71.2q0 3 .2 6a15 15 0 0 0 16.4 11.3c3.6.4 7.2-.6 10-2.7a15 15 0 0 0 5.8-8.6q.6-3 .3-6v-22.7h-15.8V89.5h54.7v41.8q0 5.1-.5 10.2c-2.7 28.3-27 38.3-54.5 38.3-27.4 0-51.8-10-54.5-38.3zm-546.2 35.3-1-144-27 144h-39.1l-26.6-144-1 144h-38.7l3.2-155.4h63L430.2 143l19.6-121.4h63l3.5 155.4zm-206.2 0-20.9-144-21.5 144h-41.8l28.4-155.4h69L313.1 177zm656-1.7L888.6 46.1l2.2 129.1h-38.1V21.5H910l36.5 125.2-2.1-125.2h38.4v153.8z"/>
</svg>